Titillium Sans Pro-Black.ufo
<glyph name="exclam" format="2">
  <advance width="302"/>
  <unicode hex="0021"/>
  <outline>
    <contour>
      <point x="37" y="190" type="line"/>
      <point x="37" y="0" type="line"/>
      <point x="265" y="0" type="line"/>
      <point x="265" y="190" type="line"/>
    </contour>
    <contour>
      <point x="30" y="700" type="line"/>
      <point x="51" y="254" type="line"/>
      <point x="251" y="254" type="line"/>
      <point x="272" y="700" type="line"/>
    </contour>
  </outline>
</glyph>
<glyph name="numbersign" format="2">
  <advance width="636"/>
  <unicode hex="0023"/>
  <outline>
    <contour>
      <point x="526" y="122" type="line"/>
      <point x="606" y="122" type="line"/>
      <point x="606" y="277" type="line"/>
      <point x="526" y="277" type="line"/>
      <point x="526" y="388" type="line"/>
      <point x="606" y="388" type="line"/>
      <point x="606" y="543" type="line"/>
      <point x="526" y="543" type="line"/>
      <point x="526" y="665" type="line"/>
      <point x="356" y="665" type="line"/>
      <point x="356" y="543" type="line"/>
      <point x="280" y="543" type="line"/>
      <point x="280" y="665" type="line"/>
      <point x="110" y="665" type="line"/>
      <point x="110" y="543" type="line"/>
      <point x="30" y="543" type="line"/>
      <point x="30" y="388" type="line"/>
      <point x="110" y="388" type="line"/>
      <point x="110" y="277" type="line"/>
      <point x="30" y="277" type="line"/>
      <point x="30" y="122" type="line"/>
      <point x="110" y="122" type="line"/>
      <point x="110" y="0" type="line"/>
      <point x="280" y="0" type="line"/>
      <point x="280" y="122" type="line"/>
      <point x="356" y="122" type="line"/>
      <point x="356" y="0" type="line"/>
      <point x="526" y="0" type="line"/>
    </contour>
    <contour>
      <point x="365" y="397" type="line"/>
      <point x="365" y="268" type="line"/>
      <point x="271" y="268" type="line"/>
      <point x="271" y="397" type="line"/>
    </contour>
  </outline>
</glyph>
<glyph name="dollar" format="2">
  <advance width="555"/>
  <unicode hex="0024"/>
  <outline>
    <contour>
      <point x="497" y="484" type="curve"/>
      <point x="512" y="653" type="line"/>
      <point x="512" y="653"/>
      <point x="370" y="677"/>
      <point x="266" y="677" type="curve" smooth="yes"/>
      <point x="115" y="677"/>
      <point x="21" y="619"/>
      <point x="21" y="455" type="curve" smooth="yes"/>
      <point x="21" y="345"/>
      <point x="67" y="290"/>
      <point x="158" y="269" type="curve" smooth="yes"/>
      <point x="264" y="244" type="line" smooth="yes"/>
      <point x="311" y="233"/>
      <point x="319" y="226"/>
      <point x="319" y="204" type="curve" smooth="yes"/>
      <point x="319" y="186"/>
      <point x="308" y="174"/>
      <point x="252" y="174" type="curve" smooth="yes"/>
      <point x="178" y="174"/>
      <point x="41" y="187"/>
      <point x="41" y="187" type="curve"/>
      <point x="21" y="21" type="line"/>
      <point x="21" y="21"/>
      <point x="146" y="-6"/>
      <point x="270" y="-6" type="curve" smooth="yes"/>
      <point x="442" y="-6"/>
      <point x="541" y="49"/>
      <point x="541" y="235" type="curve" smooth="yes"/>
      <point x="541" y="327"/>
      <point x="513" y="377"/>
      <point x="385" y="415" type="curve" smooth="yes"/>
      <point x="290" y="443" type="line" smooth="yes"/>
      <point x="246" y="456"/>
      <point x="241" y="458"/>
      <point x="241" y="473" type="curve" smooth="yes"/>
      <point x="241" y="495"/>
      <point x="250" y="498"/>
      <point x="294" y="498" type="curve" smooth="yes"/>
      <point x="381" y="498"/>
      <point x="497" y="484"/>
    </contour>
    <contour>
      <point x="284" y="800" type="line"/>
      <point x="267" y="652" type="line"/>
      <point x="337" y="652" type="line"/>
      <point x="354" y="800" type="line"/>
    </contour>
    <contour>
      <point x="217" y="30" type="line"/>
      <point x="197" y="-142" type="line"/>
      <point x="267" y="-142" type="line"/>
      <point x="287" y="30" type="line"/>
    </contour>
  </outline>
</glyph>
<glyph name="ampersand" format="2">
	<advance width="766"/>
	<unicode hex="0026"/>
	<outline>
		<contour>
			<point x="366" y="715" type="curve" smooth="yes"/>
			<point x="179" y="715"/>
			<point x="96" y="643"/>
			<point x="96" y="518" type="curve" smooth="yes"/>
			<point x="96" y="462"/>
			<point x="113" y="427"/>
			<point x="146" y="393" type="curve"/>
			<point x="59" y="363"/>
			<point x="14" y="312"/>
			<point x="14" y="198" type="curve" smooth="yes"/>
			<point x="14" y="36"/>
			<point x="142" y="-13"/>
			<point x="304" y="-13" type="curve" smooth="yes"/>
			<point x="430" y="-13"/>
			<point x="498" y="25"/>
			<point x="538" y="74" type="curve"/>
			<point x="660" y="-33" type="line"/>
			<point x="774" y="103" type="line"/>
			<point x="680" y="175" type="line"/>
			<point x="713" y="222"/>
			<point x="732" y="277"/>
			<point x="741" y="338" type="curve"/>
			<point x="547" y="345" type="line"/>
			<point x="545" y="330"/>
			<point x="541" y="316"/>
			<point x="535" y="303" type="curve"/>
			<point x="473" y="356" type="line"/>
			<point x="579" y="392"/>
			<point x="624" y="430"/>
			<point x="624" y="526" type="curve" smooth="yes"/>
			<point x="624" y="678"/>
			<point x="511" y="715"/>
		</contour>
		<contour>
			<point x="312" y="162" type="curve" smooth="yes"/>
			<point x="266" y="162"/>
			<point x="242" y="182"/>
			<point x="242" y="218" type="curve" smooth="yes"/>
			<point x="242" y="250"/>
			<point x="254" y="270"/>
			<point x="269" y="285" type="curve"/>
			<point x="373" y="179" type="line"/>
			<point x="358" y="168"/>
			<point x="337" y="162"/>
		</contour>
		<contour>
			<point x="325" y="520" type="curve" smooth="yes"/>
			<point x="325" y="550"/>
			<point x="335" y="565"/>
			<point x="360" y="565" type="curve" smooth="yes"/>
			<point x="386" y="565"/>
			<point x="396" y="548"/>
			<point x="396" y="521" type="curve" smooth="yes"/>
			<point x="396" y="485"/>
			<point x="380" y="473"/>
			<point x="358" y="458" type="curve"/>
			<point x="346" y="470" type="line" smooth="yes"/>
			<point x="331" y="485"/>
			<point x="325" y="499"/>
		</contour>
	</outline>
</glyph>
<glyph name="quotesingle" format="2">
	<advance width="272"/>
	<unicode hex="0027"/>
	<outline>
		<contour>
			<point x="17" y="730" type="line"/>
			<point x="48" y="420" type="line"/>
			<point x="224" y="420" type="line"/>
			<point x="255" y="730" type="line"/>
		</contour>
	</outline>
</glyph>
<glyph name="parenleft" format="2">
	<advance width="349"/>
	<unicode hex="0028"/>
	<outline>
		<contour>
			<point x="338" y="750" type="curve"/>
			<point x="143" y="750" type="line"/>
			<point x="143" y="750"/>
			<point x="21" y="561"/>
			<point x="21" y="301" type="curve" smooth="yes"/>
			<point x="21" y="41"/>
			<point x="143" y="-125"/>
			<point x="143" y="-125" type="curve"/>
			<point x="338" y="-125" type="line"/>
			<point x="338" y="-125"/>
			<point x="248" y="62"/>
			<point x="248" y="301" type="curve" smooth="yes"/>
			<point x="248" y="540"/>
			<point x="338" y="750"/>
		</contour>
	</outline>
</glyph>
<glyph name="asterisk" format="2">
  <advance width="459"/>
  <unicode hex="002A"/>
  <outline>
    <contour>
      <point x="319" y="436" type="line"/>
      <point x="431" y="428" type="line"/>
      <point x="431" y="575" type="line"/>
      <point x="318" y="567" type="line"/>
      <point x="360" y="670" type="line"/>
      <point x="220" y="715" type="line"/>
      <point x="193" y="606" type="line"/>
      <point x="108" y="678" type="line"/>
      <point x="22" y="559" type="line"/>
      <point x="117" y="499" type="line"/>
      <point x="24" y="440" type="line"/>
      <point x="109" y="322" type="line"/>
      <point x="195" y="394" type="line"/>
      <point x="224" y="286" type="line"/>
      <point x="361" y="331" type="line"/>
    </contour>
  </outline>
</glyph>
<glyph name="plus" format="2">
  <advance width="560"/>
  <unicode hex="002B"/>
  <outline>
    <contour>
      <point x="50" y="374" type="line"/>
      <point x="50" y="194" type="line"/>
      <point x="190" y="194" type="line"/>
      <point x="190" y="54" type="line"/>
      <point x="370" y="54" type="line"/>
      <point x="370" y="194" type="line"/>
      <point x="510" y="194" type="line"/>
      <point x="510" y="374" type="line"/>
      <point x="370" y="374" type="line"/>
      <point x="370" y="514" type="line"/>
      <point x="190" y="514" type="line"/>
      <point x="190" y="374" type="line"/>
    </contour>
  </outline>
</glyph>
<glyph name="comma" format="2">
  <advance width="293"/>
  <unicode hex="002C"/>
  <outline>
    <contour>
      <point x="37" y="200" type="line"/>
      <point x="15" y="-103" type="line"/>
      <point x="200" y="-103" type="line"/>
      <point x="279" y="200" type="line"/>
    </contour>
  </outline>
</glyph>
<glyph name="hyphen" format="2">
	<advance width="360"/>
	<unicode hex="002D"/>
	<outline>
		<contour>
			<point x="31" y="374" type="line"/>
			<point x="31" y="194" type="line"/>
			<point x="329" y="194" type="line"/>
			<point x="329" y="374" type="line"/>
		</contour>
	</outline>
</glyph>
<glyph name="slash" format="2">
  <advance width="495"/>
  <unicode hex="002F"/>
  <outline>
    <contour>
      <point x="303" y="734" type="line"/>
      <point x="7" y="24" type="line"/>
      <point x="193" y="-56" type="line"/>
      <point x="489" y="654" type="line"/>
    </contour>
  </outline>
</glyph>
<glyph name="zero" format="2">
  <advance width="576"/>
  <unicode hex="0030"/>
  <note>
zero
</note>
  <outline>
    <contour>
      <point x="288" y="502" type="curve" smooth="yes"/>
      <point x="315" y="502"/>
      <point x="321" y="481"/>
      <point x="321" y="332" type="curve" smooth="yes"/>
      <point x="321" y="195"/>
      <point x="314" y="174"/>
      <point x="288" y="174" type="curve" smooth="yes"/>
      <point x="262" y="174"/>
      <point x="255" y="195"/>
      <point x="255" y="332" type="curve" smooth="yes"/>
      <point x="255" y="481"/>
      <point x="261" y="502"/>
    </contour>
    <contour>
      <point x="288" y="690" type="curve" smooth="yes"/>
      <point x="94" y="690"/>
      <point x="28" y="584"/>
      <point x="28" y="332" type="curve" smooth="yes"/>
      <point x="28" y="92"/>
      <point x="89" y="-14"/>
      <point x="288" y="-14" type="curve" smooth="yes"/>
      <point x="487" y="-14"/>
      <point x="548" y="92"/>
      <point x="548" y="332" type="curve" smooth="yes"/>
      <point x="548" y="584"/>
      <point x="482" y="690"/>
    </contour>
  </outline>
</glyph>
<glyph name="one" format="2">
	<advance width="460"/>
	<unicode hex="0031"/>
	<note>
		one
	</note>
	<outline>
		<contour>
			<point x="223" y="673" type="line"/>
			<point x="-6" y="532" type="line"/>
			<point x="62" y="369" type="line"/>
			<point x="187" y="435" type="line"/>
			<point x="187" y="0" type="line"/>
			<point x="418" y="0" type="line"/>
			<point x="418" y="673" type="line"/>
		</contour>
	</outline>
</glyph>
<glyph name="two" format="2">
  <advance width="531"/>
  <unicode hex="0032"/>
  <note>
two
</note>
  <outline>
    <contour>
      <point x="29" y="0" type="line"/>
      <point x="497" y="0" type="line"/>
      <point x="497" y="184" type="line"/>
      <point x="287" y="184" type="line"/>
      <point x="356" y="235" type="line" smooth="yes"/>
      <point x="462" y="314"/>
      <point x="501" y="378"/>
      <point x="501" y="475" type="curve" smooth="yes"/>
      <point x="501" y="630"/>
      <point x="406" y="690"/>
      <point x="257" y="690" type="curve" smooth="yes"/>
      <point x="138" y="690"/>
      <point x="31" y="652"/>
      <point x="31" y="652" type="curve"/>
      <point x="42" y="477" type="line"/>
      <point x="42" y="477"/>
      <point x="122" y="493"/>
      <point x="180" y="493" type="curve" smooth="yes"/>
      <point x="250" y="493"/>
      <point x="265" y="471"/>
      <point x="265" y="447" type="curve" smooth="yes"/>
      <point x="265" y="402"/>
      <point x="216" y="351"/>
      <point x="118" y="259" type="curve" smooth="yes"/>
      <point x="29" y="175" type="line"/>
    </contour>
  </outline>
</glyph>
<glyph name="three" format="2">
  <advance width="549"/>
  <unicode hex="0033"/>
  <note>
three
</note>
  <outline>
    <contour>
      <point x="33" y="660" type="curve"/>
      <point x="38" y="486" type="line"/>
      <point x="38" y="486"/>
      <point x="136" y="495"/>
      <point x="207" y="495" type="curve" smooth="yes"/>
      <point x="248" y="495"/>
      <point x="276" y="492"/>
      <point x="276" y="462" type="curve" smooth="yes"/>
      <point x="276" y="444"/>
      <point x="266" y="428"/>
      <point x="226" y="428" type="curve" smooth="yes"/>
      <point x="86" y="428" type="line"/>
      <point x="86" y="254" type="line"/>
      <point x="230" y="254" type="line" smooth="yes"/>
      <point x="272" y="254"/>
      <point x="284" y="240"/>
      <point x="284" y="217" type="curve" smooth="yes"/>
      <point x="284" y="194"/>
      <point x="267" y="181"/>
      <point x="204" y="181" type="curve" smooth="yes"/>
      <point x="148" y="181"/>
      <point x="34" y="191"/>
      <point x="34" y="191" type="curve"/>
      <point x="28" y="13" type="line"/>
      <point x="28" y="13"/>
      <point x="140" y="-14"/>
      <point x="259" y="-14" type="curve" smooth="yes"/>
      <point x="420" y="-14"/>
      <point x="521" y="34"/>
      <point x="521" y="203" type="curve" smooth="yes"/>
      <point x="521" y="291"/>
      <point x="488" y="330"/>
      <point x="435" y="353" type="curve"/>
      <point x="484" y="383"/>
      <point x="512" y="424"/>
      <point x="512" y="498" type="curve" smooth="yes"/>
      <point x="512" y="644"/>
      <point x="408" y="690"/>
      <point x="262" y="690" type="curve" smooth="yes"/>
      <point x="143" y="690"/>
      <point x="33" y="660"/>
    </contour>
  </outline>
</glyph>
<glyph name="four" format="2">
	<advance width="571"/>
	<unicode hex="0034"/>
	<note>
		four
	</note>
	<outline>
		<contour>
			<point x="300" y="90" type="line"/>
			<point x="300" y="0" type="line"/>
			<point x="527" y="0" type="line"/>
			<point x="527" y="90" type="line"/>
			<point x="552" y="90" type="line"/>
			<point x="552" y="278" type="line"/>
			<point x="527" y="278" type="line"/>
			<point x="527" y="398" type="line"/>
			<point x="321" y="391" type="line"/>
			<point x="301" y="278" type="line"/>
			<point x="252" y="278" type="line"/>
			<point x="381" y="673" type="line"/>
			<point x="119" y="673" type="line"/>
			<point x="29" y="252" type="line"/>
			<point x="29" y="90" type="line"/>
		</contour>
	</outline>
</glyph>
<glyph name="five" format="2">
	<advance width="566"/>
	<unicode hex="0035"/>
	<note>
		five
	</note>
	<outline>
		<contour>
			<point x="515" y="673" type="line"/>
			<point x="57" y="673" type="line"/>
			<point x="43" y="246" type="line"/>
			<point x="191" y="228" type="line"/>
			<point x="191" y="228"/>
			<point x="235" y="240"/>
			<point x="274" y="240" type="curve" smooth="yes"/>
			<point x="305" y="240"/>
			<point x="319" y="232"/>
			<point x="319" y="210" type="curve" smooth="yes"/>
			<point x="319" y="189"/>
			<point x="300" y="181"/>
			<point x="253" y="181" type="curve" smooth="yes"/>
			<point x="178" y="181"/>
			<point x="43" y="201"/>
			<point x="43" y="201" type="curve"/>
			<point x="26" y="26" type="line"/>
			<point x="26" y="26"/>
			<point x="165" y="-13"/>
			<point x="285" y="-13" type="curve" smooth="yes"/>
			<point x="439" y="-13"/>
			<point x="540" y="52"/>
			<point x="540" y="221" type="curve" smooth="yes"/>
			<point x="540" y="386"/>
			<point x="463" y="434"/>
			<point x="339" y="434" type="curve" smooth="yes"/>
			<point x="270" y="434"/>
			<point x="227" y="419"/>
			<point x="227" y="419" type="curve"/>
			<point x="232" y="483" type="line"/>
			<point x="515" y="483" type="line"/>
		</contour>
	</outline>
</glyph>
<glyph name="six" format="2">
  <advance width="579"/>
  <unicode hex="0036"/>
  <note>
six
</note>
  <outline>
    <contour>
      <point x="523" y="486" type="curve"/>
      <point x="539" y="655" type="line"/>
      <point x="539" y="655"/>
      <point x="408" y="690"/>
      <point x="308" y="690" type="curve" smooth="yes"/>
      <point x="162" y="690"/>
      <point x="27" y="616"/>
      <point x="27" y="330" type="curve" smooth="yes"/>
      <point x="27" y="103"/>
      <point x="110" y="-14"/>
      <point x="300" y="-14" type="curve" smooth="yes"/>
      <point x="453" y="-14"/>
      <point x="556" y="57"/>
      <point x="556" y="229" type="curve" smooth="yes"/>
      <point x="556" y="378"/>
      <point x="478" y="440"/>
      <point x="356" y="440" type="curve" smooth="yes"/>
      <point x="274" y="440"/>
      <point x="245" y="410"/>
      <point x="245" y="411" type="curve" smooth="yes"/>
      <point x="249" y="471"/>
      <point x="268" y="503"/>
      <point x="345" y="503" type="curve" smooth="yes"/>
      <point x="408" y="503"/>
      <point x="523" y="486"/>
    </contour>
    <contour>
      <point x="302" y="271" type="curve" smooth="yes"/>
      <point x="332" y="271"/>
      <point x="348" y="257"/>
      <point x="348" y="220" type="curve" smooth="yes"/>
      <point x="348" y="188"/>
      <point x="336" y="168"/>
      <point x="300" y="168" type="curve" smooth="yes"/>
      <point x="252" y="168"/>
      <point x="244" y="196"/>
      <point x="244" y="253" type="curve"/>
      <point x="244" y="253"/>
      <point x="267" y="271"/>
    </contour>
  </outline>
</glyph>
<glyph name="seven" format="2">
	<advance width="503"/>
	<unicode hex="0037"/>
	<note>
		seven
	</note>
	<outline>
		<contour>
			<point x="19" y="673" type="line"/>
			<point x="19" y="469" type="line"/>
			<point x="242" y="469" type="line"/>
			<point x="242" y="443" type="line"/>
			<point x="70" y="68" type="line"/>
			<point x="281" y="-14" type="line"/>
			<point x="481" y="457" type="line"/>
			<point x="481" y="673" type="line"/>
		</contour>
	</outline>
</glyph>
<glyph name="eight" format="2">
  <advance width="586"/>
  <unicode hex="0038"/>
  <note>
eight
</note>
  <outline>
    <contour>
      <point x="253" y="198" type="curve" smooth="yes"/>
      <point x="253" y="242"/>
      <point x="270" y="253"/>
      <point x="280" y="263" type="curve"/>
      <point x="306" y="263" type="line"/>
      <point x="316" y="253"/>
      <point x="333" y="242"/>
      <point x="333" y="198" type="curve" smooth="yes"/>
      <point x="333" y="171"/>
      <point x="322" y="158"/>
      <point x="293" y="158" type="curve" smooth="yes"/>
      <point x="264" y="158"/>
      <point x="253" y="171"/>
    </contour>
    <contour>
      <point x="26" y="195" type="curve" smooth="yes"/>
      <point x="26" y="48"/>
      <point x="121" y="-14"/>
      <point x="293" y="-14" type="curve" smooth="yes"/>
      <point x="465" y="-14"/>
      <point x="560" y="48"/>
      <point x="560" y="195" type="curve" smooth="yes"/>
      <point x="560" y="276"/>
      <point x="532" y="321"/>
      <point x="458" y="350" type="curve"/>
      <point x="524" y="384"/>
      <point x="549" y="429"/>
      <point x="549" y="497" type="curve" smooth="yes"/>
      <point x="549" y="642"/>
      <point x="447" y="690"/>
      <point x="293" y="690" type="curve" smooth="yes"/>
      <point x="139" y="690"/>
      <point x="37" y="642"/>
      <point x="37" y="497" type="curve" smooth="yes"/>
      <point x="37" y="429"/>
      <point x="62" y="384"/>
      <point x="128" y="350" type="curve"/>
      <point x="54" y="321"/>
      <point x="26" y="276"/>
    </contour>
    <contour>
      <point x="293" y="519" type="curve" smooth="yes"/>
      <point x="317" y="519"/>
      <point x="328" y="505"/>
      <point x="328" y="481" type="curve" smooth="yes"/>
      <point x="328" y="446"/>
      <point x="316" y="433"/>
      <point x="306" y="423" type="curve"/>
      <point x="280" y="423" type="line"/>
      <point x="270" y="433"/>
      <point x="258" y="446"/>
      <point x="258" y="481" type="curve" smooth="yes"/>
      <point x="258" y="505"/>
      <point x="269" y="519"/>
    </contour>
  </outline>
</glyph>
<glyph name="nine" format="2">
	<advance width="578"/>
	<unicode hex="0039"/>
	<note>
		nine
	</note>
	<outline>
		<contour>
			<point x="55" y="190" type="curve"/>
			<point x="39" y="21" type="line"/>
			<point x="39" y="21"/>
			<point x="168" y="-14"/>
			<point x="275" y="-14" type="curve" smooth="yes"/>
			<point x="423" y="-14"/>
			<point x="551" y="65"/>
			<point x="551" y="347" type="curve" smooth="yes"/>
			<point x="551" y="573"/>
			<point x="468" y="690"/>
			<point x="278" y="690" type="curve" smooth="yes"/>
			<point x="125" y="690"/>
			<point x="23" y="621"/>
			<point x="23" y="446" type="curve" smooth="yes"/>
			<point x="23" y="301"/>
			<point x="93" y="236"/>
			<point x="230" y="236" type="curve" smooth="yes"/>
			<point x="297" y="236"/>
			<point x="333" y="264"/>
			<point x="333" y="263" type="curve" smooth="yes"/>
			<point x="329" y="210"/>
			<point x="317" y="173"/>
			<point x="233" y="173" type="curve" smooth="yes"/>
			<point x="176" y="173"/>
			<point x="55" y="190"/>
		</contour>
		<contour>
			<point x="276" y="405" type="curve" smooth="yes"/>
			<point x="246" y="405"/>
			<point x="231" y="418"/>
			<point x="231" y="456" type="curve" smooth="yes"/>
			<point x="231" y="488"/>
			<point x="242" y="510"/>
			<point x="280" y="510" type="curve" smooth="yes"/>
			<point x="329" y="510"/>
			<point x="335" y="476"/>
			<point x="335" y="423" type="curve"/>
			<point x="335" y="423"/>
			<point x="311" y="405"/>
		</contour>
	</outline>
</glyph>
<glyph name="equal" format="2">
  <advance width="560"/>
  <unicode hex="003D"/>
  <outline>
    <contour>
      <point x="64" y="472" type="line"/>
      <point x="64" y="312" type="line"/>
      <point x="496" y="312" type="line"/>
      <point x="496" y="472" type="line"/>
    </contour>
    <contour>
      <point x="64" y="256" type="line"/>
      <point x="64" y="96" type="line"/>
      <point x="496" y="96" type="line"/>
      <point x="496" y="256" type="line"/>
    </contour>
  </outline>
</glyph>
<glyph name="greater" format="2">
  <advance width="560"/>
  <unicode hex="003E"/>
  <outline>
    <contour>
      <point x="328" y="284" type="line"/>
      <point x="73" y="213" type="line"/>
      <point x="73" y="13" type="line"/>
      <point x="489" y="170" type="line"/>
      <point x="489" y="398" type="line"/>
      <point x="73" y="555" type="line"/>
      <point x="73" y="355" type="line"/>
    </contour>
  </outline>
</glyph>
<glyph name="question" format="2">
  <advance width="463"/>
  <unicode hex="003F"/>
  <outline>
    <contour>
      <point x="451" y="518" type="curve" smooth="yes"/>
      <point x="451" y="669"/>
      <point x="384" y="715"/>
      <point x="247" y="715" type="curve" smooth="yes"/>
      <point x="125" y="715"/>
      <point x="12" y="683"/>
      <point x="12" y="683" type="curve"/>
      <point x="19" y="521" type="line"/>
      <point x="19" y="521"/>
      <point x="95" y="535"/>
      <point x="155" y="535" type="curve" smooth="yes"/>
      <point x="209" y="535"/>
      <point x="225" y="526"/>
      <point x="225" y="495" type="curve" smooth="yes"/>
      <point x="225" y="474"/>
      <point x="218" y="463"/>
      <point x="172" y="429" type="curve" smooth="yes"/>
      <point x="100" y="376"/>
      <point x="87" y="351"/>
      <point x="87" y="317" type="curve" smooth="yes"/>
      <point x="87" y="273"/>
      <point x="108" y="254"/>
      <point x="108" y="254" type="curve"/>
      <point x="283" y="254" type="line"/>
      <point x="284" y="273" type="line" smooth="yes"/>
      <point x="285" y="290"/>
      <point x="302" y="307"/>
      <point x="363" y="344" type="curve" smooth="yes"/>
      <point x="430" y="385"/>
      <point x="451" y="433"/>
    </contour>
    <contour>
      <point x="88" y="190" type="line"/>
      <point x="88" y="0" type="line"/>
      <point x="316" y="0" type="line"/>
      <point x="316" y="190" type="line"/>
    </contour>
  </outline>
</glyph>
<glyph name="at" format="2">
  <advance width="1049"/>
  <unicode hex="0040"/>
  <outline>
    <contour>
      <point x="1026" y="307" type="curve" smooth="yes"/>
      <point x="1026" y="324" type="line" smooth="yes"/>
      <point x="1026" y="628"/>
      <point x="870" y="745"/>
      <point x="545" y="745" type="curve" smooth="yes"/>
      <point x="229" y="745"/>
      <point x="20" y="634"/>
      <point x="20" y="236" type="curve" smooth="yes"/>
      <point x="20" y="-65"/>
      <point x="155" y="-219"/>
      <point x="515" y="-219" type="curve" smooth="yes"/>
      <point x="603" y="-219"/>
      <point x="681" y="-207"/>
      <point x="681" y="-207" type="curve"/>
      <point x="678" y="-59" type="line"/>
      <point x="678" y="-59"/>
      <point x="575" y="-69"/>
      <point x="535" y="-69" type="curve" smooth="yes"/>
      <point x="278" y="-69"/>
      <point x="185" y="-6"/>
      <point x="185" y="236" type="curve" smooth="yes"/>
      <point x="185" y="545"/>
      <point x="318" y="593"/>
      <point x="545" y="593" type="curve" smooth="yes"/>
      <point x="777" y="593"/>
      <point x="859" y="530"/>
      <point x="859" y="316" type="curve" smooth="yes"/>
      <point x="859" y="298" type="line" smooth="yes"/>
      <point x="859" y="189"/>
      <point x="854" y="168"/>
      <point x="824" y="168" type="curve" smooth="yes"/>
      <point x="795" y="168"/>
      <point x="783" y="190"/>
      <point x="783" y="300" type="curve" smooth="yes"/>
      <point x="783" y="492" type="line"/>
      <point x="569" y="492" type="line"/>
      <point x="569" y="467" type="line"/>
      <point x="569" y="467"/>
      <point x="511" y="505"/>
      <point x="441" y="505" type="curve" smooth="yes"/>
      <point x="322" y="505"/>
      <point x="257" y="425"/>
      <point x="257" y="245" type="curve" smooth="yes"/>
      <point x="257" y="75"/>
      <point x="317" y="0"/>
      <point x="466" y="0" type="curve" smooth="yes"/>
      <point x="531" y="0"/>
      <point x="582" y="25"/>
      <point x="619" y="61" type="curve"/>
      <point x="656" y="17"/>
      <point x="709" y="0"/>
      <point x="791" y="0" type="curve" smooth="yes"/>
      <point x="972" y="0"/>
      <point x="1026" y="79"/>
    </contour>
    <contour>
      <point x="518" y="178" type="curve" smooth="yes"/>
      <point x="492" y="178"/>
      <point x="483" y="195"/>
      <point x="483" y="250" type="curve" smooth="yes"/>
      <point x="483" y="312"/>
      <point x="495" y="324"/>
      <point x="531" y="324" type="curve" smooth="yes"/>
      <point x="544" y="324"/>
      <point x="559" y="320"/>
      <point x="559" y="320" type="curve"/>
      <point x="559" y="279" type="line" smooth="yes"/>
      <point x="559" y="246"/>
      <point x="560" y="216"/>
      <point x="564" y="189" type="curve"/>
      <point x="546" y="182"/>
      <point x="529" y="178"/>
    </contour>
  </outline>
</glyph>
<glyph name="A" format="2">
	<advance width="657"/>
	<unicode hex="0041"/>
	<anchor x="329" y="0" name="bottom"/>
	<anchor x="654" y="0" name="ogonek"/>
	<anchor x="329" y="710" name="top"/>
	<note>
		A
	</note>
	<outline>
		<contour>
			<point x="341" y="528" type="line"/>
			<point x="377" y="290" type="line"/>
			<point x="278" y="290" type="line"/>
			<point x="316" y="528" type="line"/>
		</contour>
		<contour>
			<point x="4" y="0" type="line"/>
			<point x="232" y="0" type="line"/>
			<point x="248" y="113" type="line"/>
			<point x="401" y="113" type="line"/>
			<point x="420" y="0" type="line"/>
			<point x="654" y="0" type="line"/>
			<point x="503" y="710" type="line"/>
			<point x="152" y="710" type="line"/>
		</contour>
	</outline>
</glyph>
<glyph name="B" format="2">
  <advance width="636"/>
  <unicode hex="0042"/>
  <note>
B
</note>
  <anchor x="319" y="0" name="bottom"/>
  <anchor x="319" y="350" name="center"/>
  <anchor x="318" y="710" name="top"/>
  <outline>
    <contour>
      <point x="377" y="710" type="curve" smooth="yes"/>
      <point x="40" y="710" type="line"/>
      <point x="40" y="0" type="line"/>
      <point x="377" y="0" type="line" smooth="yes"/>
      <point x="515" y="0"/>
      <point x="617" y="49"/>
      <point x="617" y="198" type="curve" smooth="yes"/>
      <point x="617" y="295"/>
      <point x="574" y="341"/>
      <point x="513" y="360" type="curve"/>
      <point x="574" y="396"/>
      <point x="598" y="440"/>
      <point x="598" y="515" type="curve" smooth="yes"/>
      <point x="598" y="658"/>
      <point x="515" y="710"/>
    </contour>
    <contour>
      <point x="272" y="284" type="line"/>
      <point x="315" y="284" type="line" smooth="yes"/>
      <point x="360" y="284"/>
      <point x="375" y="270"/>
      <point x="375" y="220" type="curve" smooth="yes"/>
      <point x="375" y="171"/>
      <point x="361" y="160"/>
      <point x="315" y="160" type="curve" smooth="yes"/>
      <point x="272" y="160" type="line"/>
    </contour>
    <contour>
      <point x="272" y="558" type="line"/>
      <point x="315" y="558" type="line" smooth="yes"/>
      <point x="353" y="558"/>
      <point x="368" y="544"/>
      <point x="368" y="492" type="curve" smooth="yes"/>
      <point x="368" y="443"/>
      <point x="355" y="430"/>
      <point x="315" y="430" type="curve" smooth="yes"/>
      <point x="272" y="430" type="line"/>
    </contour>
  </outline>
</glyph>
<glyph name="C" format="2">
	<advance width="560"/>
	<unicode hex="0043"/>
	<anchor x="298" y="0" name="bottom"/>
	<anchor x="345" y="710" name="top"/>
	<note>
		C
	</note>
	<outline>
		<contour>
			<point x="537" y="13" type="curve"/>
			<point x="534" y="189" type="line"/>
			<point x="534" y="189"/>
			<point x="443" y="183"/>
			<point x="387" y="183" type="curve" smooth="yes"/>
			<point x="282" y="183"/>
			<point x="262" y="202"/>
			<point x="262" y="355" type="curve" smooth="yes"/>
			<point x="262" y="512"/>
			<point x="281" y="530"/>
			<point x="375" y="530" type="curve" smooth="yes"/>
			<point x="443" y="530"/>
			<point x="531" y="520"/>
			<point x="531" y="520" type="curve"/>
			<point x="537" y="699" type="line"/>
			<point x="537" y="699"/>
			<point x="419" y="726"/>
			<point x="304" y="726" type="curve" smooth="yes"/>
			<point x="112" y="726"/>
			<point x="26" y="644"/>
			<point x="26" y="347" type="curve" smooth="yes"/>
			<point x="26" y="65"/>
			<point x="104" y="-13"/>
			<point x="314" y="-13" type="curve" smooth="yes"/>
			<point x="433" y="-13"/>
			<point x="537" y="13"/>
		</contour>
	</outline>
</glyph>
<glyph name="D" format="2">
	<advance width="666"/>
	<unicode hex="0044"/>
	<anchor x="307" y="0" name="bottom"/>
	<anchor x="128" y="350" name="center"/>
	<anchor x="328" y="710" name="top"/>
	<note>
		D
	</note>
	<outline>
		<contour>
			<point x="40" y="0" type="line"/>
			<point x="373" y="0" type="line" smooth="yes"/>
			<point x="586" y="0"/>
			<point x="640" y="124"/>
			<point x="640" y="360" type="curve" smooth="yes"/>
			<point x="640" y="610"/>
			<point x="576" y="710"/>
			<point x="363" y="710" type="curve" smooth="yes"/>
			<point x="40" y="710" type="line"/>
		</contour>
		<contour>
			<point x="404" y="360" type="curve" smooth="yes"/>
			<point x="404" y="220"/>
			<point x="388" y="189"/>
			<point x="325" y="189" type="curve" smooth="yes"/>
			<point x="272" y="189" type="line"/>
			<point x="272" y="521" type="line"/>
			<point x="325" y="521" type="line" smooth="yes"/>
			<point x="388" y="521"/>
			<point x="404" y="496"/>
		</contour>
	</outline>
</glyph>
<glyph name="E" format="2">
  <advance width="571"/>
  <unicode hex="0045"/>
  <note>
E
</note>
  <anchor x="298" y="0" name="bottom"/>
  <anchor x="506" y="0" name="ogonek"/>
  <anchor x="301" y="710" name="top"/>
  <anchor x="20" y="710" name="topleft"/>
  <outline>
    <contour>
      <point x="40" y="710" type="line"/>
      <point x="40" y="0" type="line"/>
      <point x="542" y="0" type="line"/>
      <point x="542" y="185" type="line"/>
      <point x="272" y="185" type="line"/>
      <point x="272" y="276" type="line"/>
      <point x="482" y="276" type="line"/>
      <point x="482" y="446" type="line"/>
      <point x="272" y="446" type="line"/>
      <point x="272" y="525" type="line"/>
      <point x="542" y="525" type="line"/>
      <point x="542" y="710" type="line"/>
    </contour>
  </outline>
</glyph>
<glyph name="F" format="2">
	<advance width="537"/>
	<unicode hex="0046"/>
	<anchor x="267" y="0" name="bottom"/>
	<anchor x="270" y="710" name="top"/>
	<note>
		F
	</note>
	<outline>
		<contour>
			<point x="40" y="710" type="line"/>
			<point x="40" y="0" type="line"/>
			<point x="272" y="0" type="line"/>
			<point x="272" y="233" type="line"/>
			<point x="463" y="233" type="line"/>
			<point x="463" y="413" type="line"/>
			<point x="272" y="413" type="line"/>
			<point x="272" y="525" type="line"/>
			<point x="523" y="525" type="line"/>
			<point x="523" y="710" type="line"/>
		</contour>
	</outline>
</glyph>
<glyph name="G" format="2">
	<advance width="639"/>
	<unicode hex="0047"/>
	<anchor x="331" y="0" name="bottom"/>
	<anchor x="352" y="710" name="top"/>
	<note>
		G
	</note>
	<outline>
		<contour>
			<point x="346" y="409" type="line"/>
			<point x="347" y="247" type="line"/>
			<point x="387" y="247" type="line"/>
			<point x="387" y="181" type="line"/>
			<point x="387" y="181"/>
			<point x="366" y="180"/>
			<point x="353" y="180" type="curve" smooth="yes"/>
			<point x="280" y="180"/>
			<point x="262" y="218"/>
			<point x="262" y="344" type="curve" smooth="yes"/>
			<point x="262" y="484"/>
			<point x="270" y="530"/>
			<point x="361" y="530" type="curve" smooth="yes"/>
			<point x="444" y="530"/>
			<point x="598" y="517"/>
			<point x="598" y="517" type="curve"/>
			<point x="598" y="692" type="line"/>
			<point x="598" y="692"/>
			<point x="438" y="726"/>
			<point x="323" y="726" type="curve" smooth="yes"/>
			<point x="98" y="726"/>
			<point x="26" y="640"/>
			<point x="26" y="336" type="curve" smooth="yes"/>
			<point x="26" y="93"/>
			<point x="88" y="-14"/>
			<point x="307" y="-14" type="curve" smooth="yes"/>
			<point x="422" y="-14"/>
			<point x="603" y="15"/>
			<point x="603" y="15" type="curve"/>
			<point x="603" y="409" type="line"/>
		</contour>
	</outline>
</glyph>
<glyph name="H" format="2">
  <advance width="687"/>
  <unicode hex="0048"/>
  <note>
H
</note>
  <anchor x="344" y="0" name="bottom"/>
  <anchor x="344" y="615" name="center"/>
  <anchor x="344" y="710" name="top"/>
  <anchor x="20" y="710" name="topleft"/>
  <outline>
    <contour>
      <point x="415" y="267" type="line"/>
      <point x="415" y="0" type="line"/>
      <point x="647" y="0" type="line"/>
      <point x="647" y="710" type="line"/>
      <point x="415" y="710" type="line"/>
      <point x="415" y="457" type="line"/>
      <point x="272" y="457" type="line"/>
      <point x="272" y="710" type="line"/>
      <point x="40" y="710" type="line"/>
      <point x="40" y="0" type="line"/>
      <point x="272" y="0" type="line"/>
      <point x="272" y="267" type="line"/>
    </contour>
  </outline>
</glyph>
<glyph name="I" format="2">
  <advance width="312"/>
  <unicode hex="0049"/>
  <note>
I
</note>
  <anchor x="156" y="0" name="bottom"/>
  <anchor x="271" y="0" name="ogonek"/>
  <anchor x="156" y="353" name="stroke"/>
  <anchor x="156" y="710" name="top"/>
  <anchor x="20" y="710" name="topleft"/>
  <outline>
    <contour>
      <point x="40" y="710" type="line"/>
      <point x="40" y="0" type="line"/>
      <point x="272" y="0" type="line"/>
      <point x="272" y="710" type="line"/>
    </contour>
  </outline>
</glyph>
<glyph name="J" format="2">
  <advance width="351"/>
  <unicode hex="004A"/>
  <note>
J
</note>
  <anchor x="180" y="0" name="bottom"/>
  <anchor x="194" y="710" name="top"/>
  <outline>
    <contour>
      <point x="313" y="183" type="curve" smooth="yes"/>
      <point x="313" y="710" type="line"/>
      <point x="81" y="710" type="line"/>
      <point x="81" y="268" type="line" smooth="yes"/>
      <point x="81" y="187"/>
      <point x="77" y="184"/>
      <point x="24" y="184" type="curve"/>
      <point x="24" y="-7" type="line"/>
      <point x="257" y="-7"/>
      <point x="313" y="25"/>
    </contour>
  </outline>
</glyph>
<glyph name="K" format="2">
	<advance width="629"/>
	<unicode hex="004B"/>
	<anchor x="316" y="0" name="bottom"/>
	<anchor x="320" y="710" name="top"/>
	<note>
		K
	</note>
	<outline>
		<contour>
			<point x="313" y="251" type="line"/>
			<point x="386" y="0" type="line"/>
			<point x="627" y="0" type="line"/>
			<point x="510" y="374" type="line"/>
			<point x="617" y="710" type="line"/>
			<point x="387" y="710" type="line"/>
			<point x="312" y="461" type="line"/>
			<point x="272" y="461" type="line"/>
			<point x="272" y="710" type="line"/>
			<point x="40" y="710" type="line"/>
			<point x="40" y="0" type="line"/>
			<point x="272" y="0" type="line"/>
			<point x="272" y="251" type="line"/>
		</contour>
	</outline>
</glyph>
<glyph name="L" format="2">
	<advance width="504"/>
	<unicode hex="004C"/>
	<anchor x="250" y="0" name="bottom"/>
	<anchor x="150" y="400" name="center"/>
	<anchor x="160" y="710" name="top"/>
	<anchor x="330" y="710" name="topright"/>
	<note>
		L
	</note>
	<outline>
		<contour>
			<point x="40" y="0" type="line"/>
			<point x="490" y="0" type="line"/>
			<point x="490" y="190" type="line"/>
			<point x="272" y="190" type="line"/>
			<point x="272" y="710" type="line"/>
			<point x="40" y="710" type="line"/>
		</contour>
	</outline>
</glyph>
<glyph name="M" format="2">
  <advance width="875"/>
  <unicode hex="004D"/>
  <note>
M
</note>
  <anchor x="438" y="0" name="bottom"/>
  <anchor x="438" y="710" name="top"/>
  <outline>
    <contour>
      <point x="40" y="710" type="line"/>
      <point x="40" y="0" type="line"/>
      <point x="262" y="0" type="line"/>
      <point x="262" y="385" type="line"/>
      <point x="287" y="385" type="line"/>
      <point x="348" y="0" type="line"/>
      <point x="526" y="0" type="line"/>
      <point x="588" y="385" type="line"/>
      <point x="613" y="385" type="line"/>
      <point x="613" y="0" type="line"/>
      <point x="835" y="0" type="line"/>
      <point x="835" y="710" type="line"/>
      <point x="494" y="710" type="line"/>
      <point x="437" y="364" type="line"/>
      <point x="379" y="710" type="line"/>
    </contour>
  </outline>
</glyph>
<glyph name="N" format="2">
  <advance width="729"/>
  <unicode hex="004E"/>
  <note>
N
</note>
  <anchor x="365" y="0" name="bottom"/>
  <anchor x="365" y="710" name="top"/>
  <outline>
    <contour>
      <point x="40" y="710" type="line"/>
      <point x="40" y="0" type="line"/>
      <point x="272" y="0" type="line"/>
      <point x="272" y="313" type="line"/>
      <point x="297" y="313" type="line"/>
      <point x="469" y="0" type="line"/>
      <point x="689" y="0" type="line"/>
      <point x="689" y="710" type="line"/>
      <point x="457" y="710" type="line"/>
      <point x="457" y="406" type="line"/>
      <point x="432" y="406" type="line"/>
      <point x="260" y="710" type="line"/>
    </contour>
  </outline>
</glyph>
<glyph name="O" format="2">
	<advance width="684"/>
	<unicode hex="004F"/>
	<anchor x="342" y="0" name="bottom"/>
	<anchor x="342" y="350" name="center"/>
	<anchor x="459" y="0" name="ogonek"/>
	<anchor x="342" y="710" name="top"/>
	<anchor x="20" y="710" name="topleft"/>
	<anchor x="664" y="710" name="topright"/>
	<note>
		O
	</note>
	<outline>
		<contour>
			<point x="342" y="538" type="curve" smooth="yes"/>
			<point x="412" y="538"/>
			<point x="423" y="487"/>
			<point x="423" y="358" type="curve" smooth="yes"/>
			<point x="423" y="222"/>
			<point x="412" y="175"/>
			<point x="342" y="175" type="curve" smooth="yes"/>
			<point x="272" y="175"/>
			<point x="261" y="222"/>
			<point x="261" y="358" type="curve" smooth="yes"/>
			<point x="261" y="487"/>
			<point x="272" y="538"/>
		</contour>
		<contour>
			<point x="25" y="358" type="curve" smooth="yes"/>
			<point x="25" y="90"/>
			<point x="115" y="-13"/>
			<point x="342" y="-13" type="curve" smooth="yes"/>
			<point x="569" y="-13"/>
			<point x="659" y="90"/>
			<point x="659" y="358" type="curve" smooth="yes"/>
			<point x="659" y="619"/>
			<point x="572" y="726"/>
			<point x="342" y="726" type="curve" smooth="yes"/>
			<point x="112" y="726"/>
			<point x="25" y="619"/>
		</contour>
	</outline>
</glyph>
<glyph name="P" format="2">
	<advance width="623"/>
	<unicode hex="0050"/>
	<anchor x="314" y="0" name="bottom"/>
	<anchor x="302" y="710" name="top"/>
	<note>
		P
	</note>
	<outline>
		<contour>
			<point x="272" y="182" type="line"/>
			<point x="343" y="182" type="line" smooth="yes"/>
			<point x="503" y="182"/>
			<point x="608" y="238"/>
			<point x="608" y="449" type="curve" smooth="yes"/>
			<point x="608" y="660"/>
			<point x="503" y="710"/>
			<point x="343" y="710" type="curve" smooth="yes"/>
			<point x="40" y="710" type="line"/>
			<point x="40" y="0" type="line"/>
			<point x="272" y="0" type="line"/>
		</contour>
		<contour>
			<point x="318" y="365" type="curve" smooth="yes"/>
			<point x="272" y="365" type="line"/>
			<point x="272" y="527" type="line"/>
			<point x="318" y="527" type="line" smooth="yes"/>
			<point x="356" y="527"/>
			<point x="373" y="512"/>
			<point x="373" y="450" type="curve" smooth="yes"/>
			<point x="373" y="387"/>
			<point x="356" y="365"/>
		</contour>
	</outline>
</glyph>
<glyph name="Q" format="2">
	<advance width="684"/>
	<unicode hex="0051"/>
	<note>
		Q
	</note>
	<outline>
		<contour>
			<point x="340" y="175" type="curve" smooth="yes"/>
			<point x="270" y="175"/>
			<point x="261" y="223"/>
			<point x="261" y="357" type="curve" smooth="yes"/>
			<point x="261" y="490"/>
			<point x="270" y="538"/>
			<point x="340" y="538" type="curve" smooth="yes"/>
			<point x="409" y="538"/>
			<point x="423" y="490"/>
			<point x="423" y="357" type="curve" smooth="yes"/>
			<point x="423" y="224"/>
			<point x="408" y="175"/>
		</contour>
		<contour>
			<point x="25" y="357" type="curve" smooth="yes"/>
			<point x="25" y="88"/>
			<point x="117" y="-13"/>
			<point x="338" y="-13" type="curve" smooth="yes"/>
			<point x="348" y="-13"/>
			<point x="358" y="-13"/>
			<point x="367" y="-12" type="curve"/>
			<point x="465" y="-158" type="line"/>
			<point x="628" y="-59" type="line"/>
			<point x="561" y="48" type="line"/>
			<point x="627" y="103"/>
			<point x="659" y="196"/>
			<point x="659" y="357" type="curve" smooth="yes"/>
			<point x="659" y="625"/>
			<point x="571" y="726"/>
			<point x="338" y="726" type="curve" smooth="yes"/>
			<point x="114" y="726"/>
			<point x="25" y="625"/>
		</contour>
	</outline>
</glyph>
<glyph name="R" format="2">
	<advance width="633"/>
	<unicode hex="0052"/>
	<anchor x="316" y="0" name="bottom"/>
	<anchor x="316" y="710" name="top"/>
	<note>
		R
	</note>
	<outline>
		<contour>
			<point x="377" y="452" type="curve" smooth="yes"/>
			<point x="377" y="401"/>
			<point x="361" y="376"/>
			<point x="328" y="376" type="curve" smooth="yes"/>
			<point x="271" y="376" type="line"/>
			<point x="271" y="527" type="line"/>
			<point x="322" y="527" type="line" smooth="yes"/>
			<point x="360" y="527"/>
			<point x="377" y="505"/>
		</contour>
		<contour>
			<point x="272" y="202" type="line"/>
			<point x="319" y="202" type="line"/>
			<point x="367" y="0" type="line"/>
			<point x="603" y="0" type="line"/>
			<point x="531" y="263" type="line"/>
			<point x="577" y="302"/>
			<point x="611" y="356"/>
			<point x="611" y="467" type="curve" smooth="yes"/>
			<point x="611" y="651"/>
			<point x="517" y="710"/>
			<point x="342" y="710" type="curve" smooth="yes"/>
			<point x="40" y="710" type="line"/>
			<point x="40" y="0" type="line"/>
			<point x="272" y="0" type="line"/>
		</contour>
	</outline>
</glyph>
<glyph name="S" format="2">
	<advance width="590"/>
	<unicode hex="0053"/>
	<anchor x="271" y="0" name="bottom"/>
	<anchor x="296" y="700" name="top"/>
	<note>
		S
	</note>
	<outline>
		<contour>
			<point x="528" y="521" type="curve"/>
			<point x="544" y="701" type="line"/>
			<point x="544" y="701"/>
			<point x="394" y="726"/>
			<point x="283" y="726" type="curve" smooth="yes"/>
			<point x="123" y="726"/>
			<point x="24" y="664"/>
			<point x="24" y="491" type="curve" smooth="yes"/>
			<point x="24" y="373"/>
			<point x="71" y="323"/>
			<point x="168" y="290" type="curve" smooth="yes"/>
			<point x="281" y="252" type="line" smooth="yes"/>
			<point x="330" y="236"/>
			<point x="340" y="233"/>
			<point x="340" y="210" type="curve" smooth="yes"/>
			<point x="340" y="191"/>
			<point x="328" y="178"/>
			<point x="268" y="178" type="curve" smooth="yes"/>
			<point x="190" y="178"/>
			<point x="44" y="192"/>
			<point x="44" y="192" type="curve"/>
			<point x="24" y="15" type="line"/>
			<point x="24" y="15"/>
			<point x="156" y="-13"/>
			<point x="288" y="-13" type="curve" smooth="yes"/>
			<point x="470" y="-13"/>
			<point x="574" y="45"/>
			<point x="574" y="243" type="curve" smooth="yes"/>
			<point x="574" y="344"/>
			<point x="545" y="387"/>
			<point x="409" y="437" type="curve" smooth="yes"/>
			<point x="308" y="474" type="line" smooth="yes"/>
			<point x="263" y="490"/>
			<point x="256" y="494"/>
			<point x="256" y="509" type="curve" smooth="yes"/>
			<point x="256" y="532"/>
			<point x="266" y="536"/>
			<point x="313" y="536" type="curve" smooth="yes"/>
			<point x="405" y="536"/>
			<point x="528" y="521"/>
		</contour>
	</outline>
</glyph>
<glyph name="T" format="2">
	<advance width="556"/>
	<unicode hex="0054"/>
	<anchor x="278" y="0" name="bottom"/>
	<anchor x="278" y="326" name="center"/>
	<anchor x="278" y="710" name="top"/>
	<note>
		T
	</note>
	<outline>
		<contour>
			<point x="12" y="710" type="line"/>
			<point x="12" y="520" type="line"/>
			<point x="162" y="520" type="line"/>
			<point x="162" y="0" type="line"/>
			<point x="394" y="0" type="line"/>
			<point x="394" y="520" type="line"/>
			<point x="544" y="520" type="line"/>
			<point x="544" y="710" type="line"/>
		</contour>
	</outline>
</glyph>
<glyph name="U" format="2">
	<advance width="638"/>
	<unicode hex="0055"/>
	<anchor x="319" y="0" name="bottom"/>
	<anchor x="445" y="0" name="ogonek"/>
	<anchor x="319" y="710" name="top"/>
	<anchor x="612" y="710" name="topright"/>
	<note>
		U
	</note>
	<outline>
		<contour>
			<point x="268" y="230" type="curve" smooth="yes"/>
			<point x="268" y="710" type="line"/>
			<point x="36" y="710" type="line"/>
			<point x="36" y="239" type="line" smooth="yes"/>
			<point x="36" y="45"/>
			<point x="135" y="-14"/>
			<point x="319" y="-14" type="curve" smooth="yes"/>
			<point x="503" y="-14"/>
			<point x="602" y="45"/>
			<point x="602" y="239" type="curve" smooth="yes"/>
			<point x="602" y="710" type="line"/>
			<point x="370" y="710" type="line"/>
			<point x="370" y="230" type="line" smooth="yes"/>
			<point x="370" y="193"/>
			<point x="354" y="177"/>
			<point x="319" y="177" type="curve" smooth="yes"/>
			<point x="284" y="177"/>
			<point x="268" y="193"/>
		</contour>
	</outline>
</glyph>
<glyph name="V" format="2">
	<advance width="626"/>
	<unicode hex="0056"/>
	<anchor x="312" y="0" name="bottom"/>
	<anchor x="312" y="710" name="top"/>
	<note>
		V
	</note>
	<outline>
		<contour>
			<point x="489" y="0" type="line"/>
			<point x="619" y="710" type="line"/>
			<point x="374" y="710" type="line"/>
			<point x="327" y="234" type="line"/>
			<point x="302" y="234" type="line"/>
			<point x="250" y="710" type="line"/>
			<point x="5" y="710" type="line"/>
			<point x="140" y="0" type="line"/>
		</contour>
	</outline>
</glyph>
<glyph name="W" format="2">
  <advance width="951"/>
  <unicode hex="0057"/>
  <note>
W
</note>
  <anchor x="473" y="0" name="bottom"/>
  <anchor x="473" y="710" name="top"/>
  <outline>
    <contour>
      <point x="248" y="710" type="line"/>
      <point x="18" y="710" type="line"/>
      <point x="96" y="0" type="line"/>
      <point x="424" y="0" type="line"/>
      <point x="470" y="439" type="line"/>
      <point x="523" y="0" type="line"/>
      <point x="857" y="0" type="line"/>
      <point x="928" y="710" type="line"/>
      <point x="698" y="710" type="line"/>
      <point x="678" y="234" type="line"/>
      <point x="653" y="234" type="line"/>
      <point x="595" y="700" type="line"/>
      <point x="352" y="700" type="line"/>
      <point x="305" y="234" type="line"/>
      <point x="280" y="234" type="line"/>
    </contour>
  </outline>
</glyph>
<glyph name="X" format="2">
	<advance width="623"/>
	<unicode hex="0058"/>
	<note>
		X
	</note>
	<outline>
		<contour>
			<point x="-2" y="0" type="line"/>
			<point x="234" y="0" type="line"/>
			<point x="309" y="224" type="line"/>
			<point x="382" y="0" type="line"/>
			<point x="620" y="0" type="line"/>
			<point x="470" y="377" type="line"/>
			<point x="619" y="710" type="line"/>
			<point x="391" y="710" type="line"/>
			<point x="309" y="502" type="line"/>
			<point x="244" y="710" type="line"/>
			<point x="8" y="710" type="line"/>
			<point x="155" y="347" type="line"/>
		</contour>
	</outline>
</glyph>
<glyph name="Y" format="2">
  <advance width="595"/>
  <unicode hex="0059"/>
  <note>
Y
</note>
  <anchor x="300" y="0" name="bottom"/>
  <anchor x="300" y="710" name="top"/>
  <anchor x="5" y="710" name="topleft"/>
  <outline>
    <contour>
      <point x="413" y="0" type="line"/>
      <point x="413" y="240" type="line"/>
      <point x="609" y="710" type="line"/>
      <point x="364" y="710" type="line"/>
      <point x="299" y="483" type="line"/>
      <point x="236" y="710" type="line"/>
      <point x="-10" y="710" type="line"/>
      <point x="181" y="240" type="line"/>
      <point x="181" y="0" type="line"/>
    </contour>
  </outline>
</glyph>
<glyph name="Z" format="2">
  <advance width="605"/>
  <unicode hex="005A"/>
  <note>
Z
</note>
  <anchor x="302" y="0" name="bottom"/>
  <anchor x="302" y="350" name="center"/>
  <anchor x="302" y="710" name="top"/>
  <outline>
    <contour>
      <point x="35" y="710" type="line"/>
      <point x="35" y="520" type="line"/>
      <point x="257" y="520" type="line"/>
      <point x="257" y="495" type="line"/>
      <point x="26" y="190" type="line"/>
      <point x="26" y="0" type="line"/>
      <point x="582" y="0" type="line"/>
      <point x="582" y="190" type="line"/>
      <point x="339" y="190" type="line"/>
      <point x="339" y="215" type="line"/>
      <point x="565" y="511" type="line"/>
      <point x="565" y="710" type="line"/>
    </contour>
  </outline>
</glyph>
<glyph name="bracketleft" format="2">
	<advance width="362"/>
	<unicode hex="005B"/>
	<outline>
		<contour>
			<point x="336" y="570" type="line"/>
			<point x="336" y="750" type="line"/>
			<point x="37" y="750" type="line"/>
			<point x="37" y="-125" type="line"/>
			<point x="336" y="-125" type="line"/>
			<point x="336" y="55" type="line"/>
			<point x="262" y="55" type="line"/>
			<point x="262" y="570" type="line"/>
		</contour>
	</outline>
</glyph>
<glyph name="asciicircum" format="2">
	<advance width="560"/>
	<unicode hex="005E"/>
	<outline>
		<contour>
			<point x="280" y="498" type="line"/>
			<point x="321" y="321" type="line"/>
			<point x="541" y="321" type="line"/>
			<point x="417" y="673" type="line"/>
			<point x="143" y="673" type="line"/>
			<point x="19" y="321" type="line"/>
			<point x="239" y="321" type="line"/>
		</contour>
	</outline>
</glyph>
<glyph name="underscore" format="2">
  <advance width="566"/>
  <unicode hex="005F"/>
  <outline>
    <contour>
      <point x="23" y="-40" type="line"/>
      <point x="23" y="-180" type="line"/>
      <point x="543" y="-180" type="line"/>
      <point x="543" y="-40" type="line"/>
    </contour>
  </outline>
</glyph>
<glyph name="a" format="2">
  <advance width="561"/>
  <unicode hex="0061"/>
  <note>
a
</note>
  <anchor x="282" y="0" name="bottom"/>
  <anchor x="521" y="0" name="ogonek"/>
  <anchor x="276" y="520" name="top"/>
  <outline>
    <contour>
      <point x="521" y="166" type="curve" smooth="yes"/>
      <point x="521" y="359" type="line" smooth="yes"/>
      <point x="521" y="504"/>
      <point x="421" y="535"/>
      <point x="276" y="535" type="curve" smooth="yes"/>
      <point x="167" y="535"/>
      <point x="35" y="500"/>
      <point x="35" y="500" type="curve"/>
      <point x="40" y="348" type="line"/>
      <point x="40" y="348"/>
      <point x="165" y="361"/>
      <point x="254" y="361" type="curve" smooth="yes"/>
      <point x="280" y="361"/>
      <point x="297" y="356"/>
      <point x="297" y="333" type="curve" smooth="yes"/>
      <point x="297" y="316" type="line"/>
      <point x="205" y="311" type="line" smooth="yes"/>
      <point x="75" y="304"/>
      <point x="13" y="288"/>
      <point x="13" y="157" type="curve" smooth="yes"/>
      <point x="13" y="38"/>
      <point x="77" y="-13"/>
      <point x="193" y="-13" type="curve" smooth="yes"/>
      <point x="285" y="-13"/>
      <point x="332" y="28"/>
      <point x="332" y="28" type="curve"/>
      <point x="385" y="-9"/>
      <point x="452" y="-19"/>
      <point x="542" y="-12" type="curve"/>
      <point x="545" y="141" type="line"/>
      <point x="528" y="141"/>
      <point x="521" y="151"/>
    </contour>
    <contour>
      <point x="261" y="202" type="curve" smooth="yes"/>
      <point x="297" y="204" type="line"/>
      <point x="297" y="148" type="line"/>
      <point x="297" y="148"/>
      <point x="283" y="141"/>
      <point x="262" y="141" type="curve" smooth="yes"/>
      <point x="244" y="141"/>
      <point x="234" y="151"/>
      <point x="234" y="172" type="curve" smooth="yes"/>
      <point x="234" y="190"/>
      <point x="243" y="201"/>
    </contour>
  </outline>
</glyph>
<glyph name="b" format="2">
  <advance width="575"/>
  <unicode hex="0062"/>
  <note>
b
</note>
  <anchor x="286" y="0" name="bottom"/>
  <anchor x="286" y="260" name="center"/>
  <anchor x="141" y="730" name="top"/>
  <outline>
    <contour>
      <point x="364" y="535" type="curve" smooth="yes"/>
      <point x="310" y="535"/>
      <point x="254" y="519"/>
      <point x="254" y="519" type="curve"/>
      <point x="254" y="730" type="line"/>
      <point x="30" y="730" type="line"/>
      <point x="30" y="10" type="line"/>
      <point x="30" y="10"/>
      <point x="201" y="-13"/>
      <point x="302" y="-13" type="curve" smooth="yes"/>
      <point x="492" y="-13"/>
      <point x="556" y="76"/>
      <point x="556" y="264" type="curve" smooth="yes"/>
      <point x="556" y="447"/>
      <point x="496" y="535"/>
    </contour>
    <contour>
      <point x="286" y="172" type="curve" smooth="yes"/>
      <point x="267" y="172"/>
      <point x="254" y="175"/>
      <point x="254" y="175" type="curve"/>
      <point x="254" y="351" type="line"/>
      <point x="254" y="351"/>
      <point x="267" y="358"/>
      <point x="286" y="358" type="curve" smooth="yes"/>
      <point x="316" y="358"/>
      <point x="330" y="342"/>
      <point x="330" y="266" type="curve" smooth="yes"/>
      <point x="330" y="213"/>
      <point x="323" y="172"/>
    </contour>
  </outline>
</glyph>
<glyph name="c" format="2">
	<advance width="474"/>
	<unicode hex="0063"/>
	<anchor x="242" y="0" name="bottom"/>
	<anchor x="260" y="520" name="top"/>
	<note>
		c
	</note>
	<outline>
		<contour>
			<point x="254" y="535" type="curve" smooth="yes"/>
			<point x="101" y="535"/>
			<point x="19" y="477"/>
			<point x="19" y="256" type="curve" smooth="yes"/>
			<point x="19" y="65"/>
			<point x="73" y="-13"/>
			<point x="250" y="-13" type="curve" smooth="yes"/>
			<point x="357" y="-13"/>
			<point x="453" y="15"/>
			<point x="453" y="15" type="curve"/>
			<point x="446" y="190" type="line"/>
			<point x="446" y="190"/>
			<point x="341" y="183"/>
			<point x="302" y="183" type="curve" smooth="yes"/>
			<point x="259" y="183"/>
			<point x="245" y="196"/>
			<point x="245" y="256" type="curve" smooth="yes"/>
			<point x="245" y="318"/>
			<point x="260" y="340"/>
			<point x="302" y="340" type="curve" smooth="yes"/>
			<point x="340" y="340"/>
			<point x="443" y="332"/>
			<point x="443" y="332" type="curve"/>
			<point x="450" y="509" type="line"/>
			<point x="450" y="509"/>
			<point x="356" y="535"/>
		</contour>
	</outline>
</glyph>
<glyph name="d" format="2">
  <advance width="575"/>
  <unicode hex="0064"/>
  <note>
d
</note>
  <anchor x="290" y="0" name="bottom"/>
  <anchor x="290" y="260" name="center"/>
  <anchor x="431" y="617" name="stroke"/>
  <anchor x="432" y="730" name="top"/>
  <anchor x="590" y="730" name="topright"/>
  <outline>
    <contour>
      <point x="290" y="172" type="curve" smooth="yes"/>
      <point x="258" y="172"/>
      <point x="245" y="192"/>
      <point x="245" y="264" type="curve" smooth="yes"/>
      <point x="245" y="338"/>
      <point x="260" y="358"/>
      <point x="289" y="358" type="curve" smooth="yes"/>
      <point x="307" y="358"/>
      <point x="321" y="351"/>
      <point x="321" y="351" type="curve"/>
      <point x="321" y="175" type="line"/>
      <point x="321" y="175"/>
      <point x="307" y="172"/>
    </contour>
    <contour>
      <point x="545" y="0" type="line"/>
      <point x="545" y="730" type="line"/>
      <point x="321" y="730" type="line"/>
      <point x="321" y="519" type="line"/>
      <point x="321" y="519"/>
      <point x="268" y="535"/>
      <point x="220" y="535" type="curve" smooth="yes"/>
      <point x="75" y="535"/>
      <point x="19" y="450"/>
      <point x="19" y="252" type="curve" smooth="yes"/>
      <point x="19" y="91"/>
      <point x="62" y="-13"/>
      <point x="217" y="-13" type="curve" smooth="yes"/>
      <point x="267" y="-13"/>
      <point x="322" y="22"/>
      <point x="322" y="22" type="curve"/>
      <point x="324" y="0" type="line"/>
    </contour>
  </outline>
</glyph>
<glyph name="e" format="2">
  <advance width="560"/>
  <unicode hex="0065"/>
  <note>
e
</note>
  <anchor x="297" y="0" name="bottom"/>
  <anchor x="436" y="0" name="ogonek"/>
  <anchor x="280" y="520" name="top"/>
  <outline>
    <contour>
      <point x="310" y="152" type="curve" smooth="yes"/>
      <point x="242" y="152"/>
      <point x="239" y="163"/>
      <point x="238" y="205" type="curve"/>
      <point x="531" y="205" type="line"/>
      <point x="541" y="303" type="line"/>
      <point x="541" y="462"/>
      <point x="449" y="535"/>
      <point x="281" y="535" type="curve" smooth="yes"/>
      <point x="90" y="535"/>
      <point x="18" y="441"/>
      <point x="18" y="253" type="curve" smooth="yes"/>
      <point x="18" y="71"/>
      <point x="85" y="-13"/>
      <point x="282" y="-13" type="curve" smooth="yes"/>
      <point x="398" y="-13"/>
      <point x="531" y="16"/>
      <point x="531" y="16" type="curve"/>
      <point x="526" y="161" type="line"/>
      <point x="526" y="161"/>
      <point x="372" y="152"/>
    </contour>
    <contour>
      <point x="323" y="325" type="curve"/>
      <point x="239" y="325" type="line"/>
      <point x="240" y="370"/>
      <point x="248" y="387"/>
      <point x="282" y="387" type="curve" smooth="yes"/>
      <point x="313" y="387"/>
      <point x="323" y="371"/>
    </contour>
  </outline>
</glyph>
<glyph name="f" format="2">
  <advance width="363"/>
  <unicode hex="0066"/>
  <note>
f
</note>
  <anchor x="182" y="0" name="bottom"/>
  <anchor x="205" y="730" name="top"/>
  <outline>
    <contour>
      <point x="272" y="0" type="line"/>
      <point x="272" y="339" type="line"/>
      <point x="352" y="339" type="line"/>
      <point x="352" y="520" type="line"/>
      <point x="272" y="520" type="line"/>
      <point x="272" y="537" type="line" smooth="yes"/>
      <point x="272" y="561"/>
      <point x="279" y="570"/>
      <point x="320" y="570" type="curve" smooth="yes"/>
      <point x="329" y="570"/>
      <point x="341" y="570"/>
      <point x="354" y="568" type="curve"/>
      <point x="354" y="732" type="line"/>
      <point x="354" y="732"/>
      <point x="284" y="745"/>
      <point x="220" y="745" type="curve" smooth="yes"/>
      <point x="84" y="745"/>
      <point x="48" y="691"/>
      <point x="48" y="551" type="curve" smooth="yes"/>
      <point x="48" y="520" type="line"/>
      <point x="21" y="520" type="line"/>
      <point x="21" y="339" type="line"/>
      <point x="48" y="339" type="line"/>
      <point x="48" y="0" type="line"/>
    </contour>
  </outline>
</glyph>
<glyph name="g" format="2">
	<advance width="562"/>
	<unicode hex="0067"/>
	<anchor x="269" y="-200" name="bottom"/>
	<anchor x="275" y="520" name="top"/>
	<note>
		g
	</note>
	<outline>
		<contour>
			<point x="269" y="-200" type="curve" smooth="yes"/>
			<point x="468" y="-200"/>
			<point x="554" y="-130"/>
			<point x="554" y="-2" type="curve" smooth="yes"/>
			<point x="554" y="119"/>
			<point x="498" y="138"/>
			<point x="358" y="138" type="curve" smooth="yes"/>
			<point x="243" y="138"/>
			<point x="222" y="140"/>
			<point x="222" y="158" type="curve" smooth="yes"/>
			<point x="222" y="171"/>
			<point x="231" y="177"/>
			<point x="231" y="177" type="curve"/>
			<point x="243" y="175"/>
			<point x="258" y="174"/>
			<point x="269" y="174" type="curve" smooth="yes"/>
			<point x="436" y="174"/>
			<point x="511" y="211"/>
			<point x="511" y="341" type="curve" smooth="yes"/>
			<point x="511" y="365"/>
			<point x="506" y="385"/>
			<point x="499" y="396" type="curve"/>
			<point x="549" y="396" type="line"/>
			<point x="549" y="527" type="line"/>
			<point x="364" y="525" type="line"/>
			<point x="364" y="525"/>
			<point x="304" y="535"/>
			<point x="261" y="535" type="curve" smooth="yes"/>
			<point x="85" y="535"/>
			<point x="13" y="488"/>
			<point x="13" y="355" type="curve" smooth="yes"/>
			<point x="13" y="261"/>
			<point x="56" y="222"/>
			<point x="94" y="204" type="curve"/>
			<point x="94" y="204"/>
			<point x="40" y="168"/>
			<point x="40" y="111" type="curve" smooth="yes"/>
			<point x="40" y="102"/>
			<point x="51" y="76"/>
			<point x="72" y="59" type="curve"/>
			<point x="22" y="20"/>
			<point x="8" y="-15"/>
			<point x="8" y="-61" type="curve" smooth="yes"/>
			<point x="8" y="-173"/>
			<point x="123" y="-200"/>
		</contour>
		<contour>
			<point x="277" y="-7" type="curve" smooth="yes"/>
			<point x="341" y="-7"/>
			<point x="347" y="-15"/>
			<point x="347" y="-29" type="curve" smooth="yes"/>
			<point x="347" y="-44"/>
			<point x="336" y="-55"/>
			<point x="266" y="-55" type="curve" smooth="yes"/>
			<point x="208" y="-55"/>
			<point x="188" y="-44"/>
			<point x="188" y="-24" type="curve" smooth="yes"/>
			<point x="188" y="-11"/>
			<point x="195" y="-4"/>
			<point x="204" y="-1" type="curve"/>
			<point x="204" y="-1"/>
			<point x="227" y="-7"/>
		</contour>
		<contour>
			<point x="262" y="318" type="curve" smooth="yes"/>
			<point x="233" y="318"/>
			<point x="221" y="327"/>
			<point x="221" y="356" type="curve" smooth="yes"/>
			<point x="221" y="385"/>
			<point x="233" y="394"/>
			<point x="262" y="394" type="curve" smooth="yes"/>
			<point x="291" y="394"/>
			<point x="303" y="385"/>
			<point x="303" y="356" type="curve" smooth="yes"/>
			<point x="303" y="327"/>
			<point x="291" y="318"/>
		</contour>
	</outline>
</glyph>
<glyph name="h" format="2">
  <advance width="583"/>
  <unicode hex="0068"/>
  <note>
h
</note>
  <anchor x="290" y="0" name="bottom"/>
  <anchor x="204" y="617" name="stroke"/>
  <anchor x="142" y="730" name="top"/>
  <outline>
    <contour>
      <point x="30" y="0" type="line"/>
      <point x="254" y="0" type="line"/>
      <point x="254" y="336" type="line"/>
      <point x="254" y="336"/>
      <point x="278" y="342"/>
      <point x="295" y="342" type="curve" smooth="yes"/>
      <point x="322" y="342"/>
      <point x="333" y="316"/>
      <point x="333" y="255" type="curve" smooth="yes"/>
      <point x="333" y="0" type="line"/>
      <point x="557" y="0" type="line"/>
      <point x="557" y="278" type="line" smooth="yes"/>
      <point x="557" y="468"/>
      <point x="506" y="535"/>
      <point x="361" y="535" type="curve" smooth="yes"/>
      <point x="324" y="535"/>
      <point x="254" y="518"/>
      <point x="254" y="518" type="curve"/>
      <point x="254" y="730" type="line"/>
      <point x="30" y="730" type="line"/>
    </contour>
  </outline>
</glyph>
<glyph name="k" format="2">
	<advance width="558"/>
	<unicode hex="006B"/>
	<anchor x="279" y="0" name="bottom"/>
	<anchor x="141" y="730" name="top"/>
	<note>
		k
	</note>
	<outline>
		<contour>
			<point x="30" y="0" type="line"/>
			<point x="254" y="0" type="line"/>
			<point x="254" y="172" type="line"/>
			<point x="284" y="172" type="line"/>
			<point x="331" y="0" type="line"/>
			<point x="558" y="0" type="line"/>
			<point x="480" y="285" type="line"/>
			<point x="552" y="520" type="line"/>
			<point x="328" y="520" type="line"/>
			<point x="283" y="367" type="line"/>
			<point x="254" y="367" type="line"/>
			<point x="254" y="730" type="line"/>
			<point x="30" y="730" type="line"/>
		</contour>
	</outline>
</glyph>
<glyph name="l" format="2">
  <advance width="324"/>
  <unicode hex="006C"/>
  <note>
l
</note>
  <anchor x="175" y="0" name="bottom"/>
  <anchor x="167" y="365" name="center"/>
  <anchor x="157" y="730" name="top"/>
  <anchor x="295" y="730" name="topright"/>
  <outline>
    <contour>
      <point x="252" y="205" type="curve" smooth="yes"/>
      <point x="252" y="730" type="line"/>
      <point x="28" y="730" type="line"/>
      <point x="28" y="157" type="line" smooth="yes"/>
      <point x="28" y="35"/>
      <point x="68" y="-14"/>
      <point x="192" y="-14" type="curve" smooth="yes"/>
      <point x="267" y="-14"/>
      <point x="315" y="0"/>
      <point x="315" y="0" type="curve"/>
      <point x="309" y="174" type="line"/>
      <point x="309" y="174"/>
      <point x="293" y="173"/>
      <point x="283" y="173" type="curve" smooth="yes"/>
      <point x="261" y="173"/>
      <point x="252" y="180"/>
    </contour>
  </outline>
</glyph>
<glyph name="m" format="2">
	<advance width="866"/>
	<unicode hex="006D"/>
	<anchor x="433" y="0" name="bottom"/>
	<anchor x="493" y="520" name="top"/>
	<note>
		m
	</note>
	<outline>
		<contour>
			<point x="30" y="0" type="line"/>
			<point x="254" y="0" type="line"/>
			<point x="254" y="337" type="line"/>
			<point x="254" y="337"/>
			<point x="271" y="342"/>
			<point x="291" y="342" type="curve" smooth="yes"/>
			<point x="315" y="342"/>
			<point x="323" y="306"/>
			<point x="323" y="245" type="curve" smooth="yes"/>
			<point x="323" y="0" type="line"/>
			<point x="547" y="0" type="line"/>
			<point x="547" y="249" type="line" smooth="yes"/>
			<point x="547" y="284"/>
			<point x="545" y="321"/>
			<point x="540" y="336" type="curve"/>
			<point x="540" y="336"/>
			<point x="563" y="342"/>
			<point x="583" y="342" type="curve" smooth="yes"/>
			<point x="607" y="342"/>
			<point x="616" y="306"/>
			<point x="616" y="245" type="curve" smooth="yes"/>
			<point x="616" y="0" type="line"/>
			<point x="840" y="0" type="line"/>
			<point x="840" y="272" type="line" smooth="yes"/>
			<point x="840" y="446"/>
			<point x="807" y="535"/>
			<point x="644" y="535" type="curve" smooth="yes"/>
			<point x="565" y="535"/>
			<point x="500" y="488"/>
			<point x="500" y="488" type="curve"/>
			<point x="475" y="515"/>
			<point x="440" y="535"/>
			<point x="385" y="535" type="curve" smooth="yes"/>
			<point x="308" y="535"/>
			<point x="253" y="494"/>
			<point x="253" y="494" type="curve"/>
			<point x="253" y="520" type="line"/>
			<point x="30" y="520" type="line"/>
		</contour>
	</outline>
</glyph>
<glyph name="n" format="2">
	<advance width="583"/>
	<unicode hex="006E"/>
	<anchor x="291" y="0" name="bottom"/>
	<anchor x="311" y="520" name="top"/>
	<note>
		n
	</note>
	<outline>
		<contour>
			<point x="30" y="0" type="line"/>
			<point x="254" y="0" type="line"/>
			<point x="254" y="335" type="line"/>
			<point x="254" y="335"/>
			<point x="278" y="342"/>
			<point x="297" y="342" type="curve" smooth="yes"/>
			<point x="321" y="342"/>
			<point x="333" y="316"/>
			<point x="333" y="255" type="curve" smooth="yes"/>
			<point x="333" y="0" type="line"/>
			<point x="557" y="0" type="line"/>
			<point x="557" y="270" type="line" smooth="yes"/>
			<point x="557" y="468"/>
			<point x="506" y="535"/>
			<point x="399" y="535" type="curve" smooth="yes"/>
			<point x="316" y="535"/>
			<point x="253" y="494"/>
			<point x="253" y="494" type="curve"/>
			<point x="253" y="520" type="line"/>
			<point x="30" y="520" type="line"/>
		</contour>
	</outline>
</glyph>
<glyph name="o" format="2">
	<advance width="566"/>
	<unicode hex="006F"/>
	<anchor x="285" y="0" name="bottom"/>
	<anchor x="285" y="260" name="center"/>
	<anchor x="389" y="0" name="ogonek"/>
	<anchor x="285" y="520" name="top"/>
	<anchor x="547" y="520" name="topright"/>
	<note>
		o
	</note>
	<outline>
		<contour>
			<point x="283" y="168" type="curve" smooth="yes"/>
			<point x="254" y="169"/>
			<point x="244" y="189"/>
			<point x="244" y="261" type="curve" smooth="yes"/>
			<point x="244" y="333"/>
			<point x="254" y="353"/>
			<point x="283" y="354" type="curve" smooth="yes"/>
			<point x="312" y="353"/>
			<point x="322" y="333"/>
			<point x="322" y="261" type="curve" smooth="yes"/>
			<point x="322" y="189"/>
			<point x="312" y="169"/>
		</contour>
		<contour>
			<point x="283" y="535" type="curve" smooth="yes"/>
			<point x="111" y="534"/>
			<point x="18" y="461"/>
			<point x="18" y="261" type="curve" smooth="yes"/>
			<point x="18" y="59"/>
			<point x="111" y="-13"/>
			<point x="283" y="-14" type="curve" smooth="yes"/>
			<point x="455" y="-13"/>
			<point x="548" y="59"/>
			<point x="548" y="261" type="curve" smooth="yes"/>
			<point x="548" y="461"/>
			<point x="455" y="534"/>
		</contour>
	</outline>
</glyph>
<glyph name="p" format="2">
  <advance width="575"/>
  <unicode hex="0070"/>
  <note>
p
</note>
  <anchor x="286" y="0" name="bottom"/>
  <anchor x="286" y="520" name="top"/>
  <outline>
    <contour>
      <point x="30" y="520" type="line"/>
      <point x="30" y="-200" type="line"/>
      <point x="254" y="-200" type="line"/>
      <point x="254" y="0" type="line"/>
      <point x="254" y="0"/>
      <point x="301" y="-13"/>
      <point x="343" y="-13" type="curve" smooth="yes"/>
      <point x="496" y="-13"/>
      <point x="556" y="73"/>
      <point x="556" y="258" type="curve" smooth="yes"/>
      <point x="556" y="439"/>
      <point x="497" y="535"/>
      <point x="374" y="535" type="curve" smooth="yes"/>
      <point x="295" y="535"/>
      <point x="253" y="496"/>
      <point x="253" y="496" type="curve"/>
      <point x="251" y="520" type="line"/>
    </contour>
    <contour>
      <point x="286" y="354" type="curve" smooth="yes"/>
      <point x="315" y="354"/>
      <point x="330" y="338"/>
      <point x="330" y="258" type="curve" smooth="yes"/>
      <point x="330" y="202"/>
      <point x="321" y="168"/>
      <point x="286" y="168" type="curve" smooth="yes"/>
      <point x="267" y="168"/>
      <point x="254" y="175"/>
      <point x="254" y="175" type="curve"/>
      <point x="254" y="351" type="line"/>
      <point x="254" y="351"/>
      <point x="272" y="354"/>
    </contour>
  </outline>
</glyph>
<glyph name="q" format="2">
	<advance width="575"/>
	<unicode hex="0071"/>
	<note>
		q
	</note>
	<outline>
		<contour>
			<point x="206" y="-13" type="curve" smooth="yes"/>
			<point x="261" y="-13"/>
			<point x="321" y="4"/>
			<point x="321" y="4" type="curve"/>
			<point x="321" y="-200" type="line"/>
			<point x="545" y="-200" type="line"/>
			<point x="545" y="512" type="line"/>
			<point x="545" y="512"/>
			<point x="374" y="535"/>
			<point x="293" y="535" type="curve" smooth="yes"/>
			<point x="94" y="535"/>
			<point x="19" y="464"/>
			<point x="19" y="261" type="curve" smooth="yes"/>
			<point x="19" y="84"/>
			<point x="75" y="-13"/>
		</contour>
		<contour>
			<point x="291" y="358" type="curve" smooth="yes"/>
			<point x="312" y="358"/>
			<point x="321" y="355"/>
			<point x="321" y="355" type="curve"/>
			<point x="321" y="179" type="line"/>
			<point x="321" y="179"/>
			<point x="309" y="172"/>
			<point x="289" y="172" type="curve" smooth="yes"/>
			<point x="259" y="172"/>
			<point x="245" y="188"/>
			<point x="245" y="265" type="curve" smooth="yes"/>
			<point x="245" y="327"/>
			<point x="256" y="358"/>
		</contour>
	</outline>
</glyph>
<glyph name="r" format="2">
	<advance width="374"/>
	<unicode hex="0072"/>
	<anchor x="143" y="0" name="bottom"/>
	<anchor x="186" y="520" name="top"/>
	<note>
		r
	</note>
	<outline>
		<contour>
			<point x="30" y="520" type="line"/>
			<point x="30" y="0" type="line"/>
			<point x="254" y="0" type="line"/>
			<point x="254" y="289" type="line"/>
			<point x="254" y="289"/>
			<point x="314" y="320"/>
			<point x="360" y="328" type="curve"/>
			<point x="360" y="535" type="line"/>
			<point x="307" y="523"/>
			<point x="249" y="473"/>
			<point x="249" y="473" type="curve"/>
			<point x="249" y="520" type="line"/>
		</contour>
	</outline>
</glyph>
<glyph name="s" format="2">
  <advance width="488"/>
  <unicode hex="0073"/>
  <note>
s
</note>
  <anchor x="227" y="0" name="bottom"/>
  <anchor x="256" y="520" name="top"/>
  <outline>
    <contour>
      <point x="451" y="358" type="curve"/>
      <point x="453" y="512" type="line"/>
      <point x="453" y="512"/>
      <point x="374" y="535"/>
      <point x="259" y="535" type="curve" smooth="yes"/>
      <point x="116" y="535"/>
      <point x="20" y="499"/>
      <point x="20" y="344" type="curve" smooth="yes"/>
      <point x="20" y="254"/>
      <point x="53" y="218"/>
      <point x="148" y="197" type="curve" smooth="yes"/>
      <point x="221" y="181" type="line" smooth="yes"/>
      <point x="243" y="176"/>
      <point x="251" y="173"/>
      <point x="251" y="161" type="curve" smooth="yes"/>
      <point x="251" y="148"/>
      <point x="241" y="143"/>
      <point x="216" y="143" type="curve" smooth="yes"/>
      <point x="154" y="143"/>
      <point x="25" y="159"/>
      <point x="25" y="159" type="curve"/>
      <point x="21" y="6" type="line"/>
      <point x="21" y="6"/>
      <point x="112" y="-13"/>
      <point x="240" y="-13" type="curve" smooth="yes"/>
      <point x="409" y="-13"/>
      <point x="475" y="30"/>
      <point x="475" y="173" type="curve" smooth="yes"/>
      <point x="475" y="246"/>
      <point x="455" y="300"/>
      <point x="348" y="325" type="curve" smooth="yes"/>
      <point x="283" y="340" type="line" smooth="yes"/>
      <point x="251" y="347"/>
      <point x="245" y="348"/>
      <point x="245" y="360" type="curve" smooth="yes"/>
      <point x="245" y="374"/>
      <point x="257" y="376"/>
      <point x="275" y="376" type="curve" smooth="yes"/>
      <point x="338" y="376"/>
      <point x="451" y="358"/>
    </contour>
  </outline>
</glyph>
<glyph name="t" format="2">
  <advance width="386"/>
  <unicode hex="0074"/>
  <note>
t
</note>
  <anchor x="207" y="0" name="bottom"/>
  <anchor x="197" y="260" name="center"/>
  <anchor x="170" y="653" name="top"/>
  <anchor x="310" y="730" name="topright"/>
  <outline>
    <contour>
      <point x="283" y="340" type="line"/>
      <point x="363" y="340" type="line"/>
      <point x="363" y="520" type="line"/>
      <point x="279" y="520" type="line"/>
      <point x="279" y="653" type="line"/>
      <point x="59" y="653" type="line"/>
      <point x="59" y="520" type="line"/>
      <point x="19" y="520" type="line"/>
      <point x="19" y="340" type="line"/>
      <point x="59" y="340" type="line"/>
      <point x="59" y="168" type="line" smooth="yes"/>
      <point x="59" y="25"/>
      <point x="112" y="-13"/>
      <point x="232" y="-13" type="curve" smooth="yes"/>
      <point x="278" y="-13"/>
      <point x="364" y="2"/>
      <point x="364" y="2" type="curve"/>
      <point x="361" y="179" type="line"/>
      <point x="361" y="179"/>
      <point x="336" y="178"/>
      <point x="316" y="178" type="curve" smooth="yes"/>
      <point x="288" y="178"/>
      <point x="283" y="188"/>
      <point x="283" y="220" type="curve" smooth="yes"/>
    </contour>
  </outline>
</glyph>
<glyph name="u" format="2">
  <advance width="583"/>
  <unicode hex="0075"/>
  <note>
u
</note>
  <anchor x="293" y="0" name="bottom"/>
  <anchor x="486" y="0" name="ogonek"/>
  <anchor x="293" y="520" name="top"/>
  <anchor x="561" y="520" name="topright"/>
  <outline>
    <contour>
      <point x="553" y="520" type="line"/>
      <point x="329" y="520" type="line"/>
      <point x="329" y="185" type="line"/>
      <point x="329" y="185"/>
      <point x="308" y="178"/>
      <point x="286" y="178" type="curve" smooth="yes"/>
      <point x="265" y="178"/>
      <point x="251" y="188"/>
      <point x="251" y="229" type="curve" smooth="yes"/>
      <point x="251" y="520" type="line"/>
      <point x="27" y="520" type="line"/>
      <point x="27" y="203" type="line" smooth="yes"/>
      <point x="27" y="61"/>
      <point x="72" y="-13"/>
      <point x="191" y="-13" type="curve" smooth="yes"/>
      <point x="276" y="-13"/>
      <point x="331" y="26"/>
      <point x="331" y="26" type="curve"/>
      <point x="331" y="0" type="line"/>
      <point x="553" y="0" type="line"/>
    </contour>
  </outline>
</glyph>
<glyph name="v" format="2">
	<advance width="559"/>
	<unicode hex="0076"/>
	<anchor x="280" y="0" name="bottom"/>
	<anchor x="285" y="520" name="top"/>
	<note>
		v
	</note>
	<outline>
		<contour>
			<point x="245" y="520" type="line"/>
			<point x="7" y="520" type="line"/>
			<point x="92" y="0" type="line"/>
			<point x="467" y="0" type="line"/>
			<point x="552" y="520" type="line"/>
			<point x="328" y="520" type="line"/>
			<point x="300" y="187" type="line"/>
			<point x="275" y="187" type="line"/>
		</contour>
	</outline>
</glyph>
<glyph name="w" format="2">
  <advance width="801"/>
  <unicode hex="0077"/>
  <note>
w
</note>
  <anchor x="395" y="0" name="bottom"/>
  <anchor x="405" y="520" name="top"/>
  <outline>
    <contour>
      <point x="259" y="520" type="line"/>
      <point x="12" y="520" type="line"/>
      <point x="72" y="0" type="line"/>
      <point x="373" y="0" type="line"/>
      <point x="396" y="228" type="line"/>
      <point x="417" y="0" type="line"/>
      <point x="732" y="0" type="line"/>
      <point x="783" y="520" type="line"/>
      <point x="562" y="520" type="line"/>
      <point x="560" y="187" type="line"/>
      <point x="535" y="187" type="line"/>
      <point x="503" y="507" type="line"/>
      <point x="308" y="507" type="line"/>
      <point x="285" y="187" type="line"/>
      <point x="260" y="187" type="line"/>
    </contour>
  </outline>
</glyph>
<glyph name="x" format="2">
	<advance width="545"/>
	<unicode hex="0078"/>
	<note>
		x
	</note>
	<outline>
		<contour>
			<point x="2" y="520" type="line"/>
			<point x="101" y="250" type="line"/>
			<point x="-4" y="0" type="line"/>
			<point x="218" y="0" type="line"/>
			<point x="257" y="147" type="line"/>
			<point x="303" y="0" type="line"/>
			<point x="545" y="0" type="line"/>
			<point x="453" y="254" type="line"/>
			<point x="542" y="520" type="line"/>
			<point x="322" y="520" type="line"/>
			<point x="282" y="368" type="line"/>
			<point x="242" y="520" type="line"/>
		</contour>
	</outline>
</glyph>
<glyph name="y" format="2">
  <advance width="559"/>
  <unicode hex="0079"/>
  <note>
y
</note>
  <anchor x="280" y="0" name="bottom"/>
  <anchor x="286" y="520" name="top"/>
  <outline>
    <contour>
      <point x="7" y="520" type="line"/>
      <point x="92" y="0" type="line"/>
      <point x="245" y="0" type="line"/>
      <point x="201" y="-200" type="line"/>
      <point x="437" y="-200" type="line"/>
      <point x="552" y="520" type="line"/>
      <point x="327" y="520" type="line"/>
      <point x="296" y="187" type="line"/>
      <point x="271" y="187" type="line"/>
      <point x="245" y="520" type="line"/>
    </contour>
  </outline>
</glyph>
<glyph name="z" format="2">
	<advance width="515"/>
	<unicode hex="007A"/>
	<anchor x="256" y="0" name="bottom"/>
	<anchor x="256" y="260" name="center"/>
	<anchor x="256" y="520" name="top"/>
	<note>
		z
	</note>
	<outline>
		<contour>
			<point x="28" y="520" type="line"/>
			<point x="28" y="340" type="line"/>
			<point x="171" y="340" type="line"/>
			<point x="171" y="325" type="line"/>
			<point x="26" y="185" type="line"/>
			<point x="26" y="0" type="line"/>
			<point x="493" y="0" type="line"/>
			<point x="493" y="190" type="line"/>
			<point x="333" y="190" type="line"/>
			<point x="333" y="205" type="line"/>
			<point x="482" y="335" type="line"/>
			<point x="482" y="520" type="line"/>
		</contour>
	</outline>
</glyph>
<glyph name="braceleft" format="2">
	<advance width="375"/>
	<unicode hex="007B"/>
	<outline>
		<contour>
			<point x="282" y="201" type="curve" smooth="yes"/>
			<point x="282" y="269"/>
			<point x="269" y="289"/>
			<point x="226" y="311" type="curve"/>
			<point x="269" y="335"/>
			<point x="282" y="347"/>
			<point x="282" y="417" type="curve" smooth="yes"/>
			<point x="282" y="454"/>
			<point x="279" y="482"/>
			<point x="279" y="515" type="curve" smooth="yes"/>
			<point x="279" y="565"/>
			<point x="289" y="573"/>
			<point x="350" y="578" type="curve"/>
			<point x="350" y="758" type="line"/>
			<point x="172" y="758"/>
			<point x="52" y="745"/>
			<point x="52" y="583" type="curve" smooth="yes"/>
			<point x="52" y="546"/>
			<point x="65" y="469"/>
			<point x="65" y="433" type="curve" smooth="yes"/>
			<point x="65" y="417"/>
			<point x="50" y="404"/>
			<point x="21" y="399" type="curve"/>
			<point x="21" y="230" type="line"/>
			<point x="50" y="224"/>
			<point x="65" y="210"/>
			<point x="65" y="190" type="curve" smooth="yes"/>
			<point x="65" y="166"/>
			<point x="52" y="78"/>
			<point x="52" y="39" type="curve" smooth="yes"/>
			<point x="52" y="-116"/>
			<point x="170" y="-133"/>
			<point x="350" y="-133" type="curve"/>
			<point x="350" y="47" type="line"/>
			<point x="289" y="52"/>
			<point x="279" y="64"/>
			<point x="279" y="114" type="curve" smooth="yes"/>
			<point x="279" y="147"/>
			<point x="282" y="172"/>
		</contour>
	</outline>
</glyph>
<glyph name="bar" format="2">
  <advance width="300"/>
  <unicode hex="007C"/>
  <outline>
    <contour>
      <point x="41" y="730" type="line"/>
      <point x="41" y="-230" type="line"/>
      <point x="259" y="-230" type="line"/>
      <point x="259" y="730" type="line"/>
    </contour>
  </outline>
</glyph>
<glyph name="asciitilde" format="2">
  <advance width="560"/>
  <unicode hex="007E"/>
  <outline>
    <contour>
      <point x="534" y="240" type="curve"/>
      <point x="474" y="392" type="line"/>
      <point x="474" y="392"/>
      <point x="413" y="352"/>
      <point x="365" y="352" type="curve" smooth="yes"/>
      <point x="314" y="352"/>
      <point x="264" y="401"/>
      <point x="193" y="401" type="curve" smooth="yes"/>
      <point x="120" y="401"/>
      <point x="26" y="328"/>
      <point x="26" y="328" type="curve"/>
      <point x="86" y="176" type="line"/>
      <point x="86" y="176"/>
      <point x="147" y="216"/>
      <point x="195" y="216" type="curve" smooth="yes"/>
      <point x="246" y="216"/>
      <point x="296" y="167"/>
      <point x="367" y="167" type="curve" smooth="yes"/>
      <point x="440" y="167"/>
      <point x="534" y="240"/>
    </contour>
  </outline>
</glyph>
<glyph name="cent" format="2">
	<advance width="522"/>
	<unicode hex="00A2"/>
	<outline>
		<contour>
			<point x="249" y="42" type="curve"/>
			<point x="249" y="-87" type="line"/>
			<point x="319" y="-87" type="line"/>
			<point x="319" y="43" type="line"/>
			<point x="414" y="47"/>
			<point x="492" y="64"/>
			<point x="492" y="64" type="curve"/>
			<point x="486" y="212" type="line"/>
			<point x="486" y="212"/>
			<point x="382" y="208"/>
			<point x="301" y="208" type="curve" smooth="yes"/>
			<point x="264" y="208"/>
			<point x="253" y="222"/>
			<point x="253" y="273" type="curve" smooth="yes"/>
			<point x="253" y="326"/>
			<point x="265" y="340"/>
			<point x="301" y="340" type="curve" smooth="yes"/>
			<point x="382" y="340"/>
			<point x="484" y="336"/>
			<point x="484" y="336" type="curve"/>
			<point x="490" y="486" type="line"/>
			<point x="490" y="486"/>
			<point x="409" y="502"/>
			<point x="319" y="505" type="curve"/>
			<point x="319" y="639" type="line"/>
			<point x="249" y="639" type="line"/>
			<point x="249" y="506" type="line"/>
			<point x="93" y="502"/>
			<point x="31" y="454"/>
			<point x="31" y="271" type="curve" smooth="yes"/>
			<point x="31" y="109"/>
			<point x="78" y="46"/>
		</contour>
	</outline>
</glyph>
<glyph name="sterling" format="2">
	<advance width="551"/>
	<unicode hex="00A3"/>
	<outline>
		<contour>
			<point x="86" y="319" type="line"/>
			<point x="86" y="183" type="line"/>
			<point x="24" y="183" type="line"/>
			<point x="24" y="0" type="line"/>
			<point x="414" y="0" type="line"/>
			<point x="535" y="16" type="line"/>
			<point x="517" y="198" type="line"/>
			<point x="399" y="183" type="line"/>
			<point x="306" y="183" type="line"/>
			<point x="306" y="319" type="line"/>
			<point x="443" y="319" type="line"/>
			<point x="443" y="393" type="line"/>
			<point x="306" y="393" type="line"/>
			<point x="306" y="421" type="line" smooth="yes"/>
			<point x="306" y="474"/>
			<point x="321" y="494"/>
			<point x="401" y="494" type="curve" smooth="yes"/>
			<point x="430" y="494"/>
			<point x="501" y="490"/>
			<point x="501" y="490" type="curve"/>
			<point x="507" y="656" type="line"/>
			<point x="507" y="656"/>
			<point x="409" y="677"/>
			<point x="331" y="677" type="curve" smooth="yes"/>
			<point x="149" y="677"/>
			<point x="86" y="634"/>
			<point x="86" y="434" type="curve" smooth="yes"/>
			<point x="86" y="393" type="line"/>
			<point x="24" y="393" type="line"/>
			<point x="24" y="319" type="line"/>
		</contour>
	</outline>
</glyph>
<glyph name="currency" format="2">
  <advance width="528"/>
  <unicode hex="00A4"/>
  <outline>
    <contour>
      <point x="264" y="340" type="curve" smooth="yes"/>
      <point x="304" y="340"/>
      <point x="335" y="313"/>
      <point x="335" y="270" type="curve" smooth="yes"/>
      <point x="335" y="227"/>
      <point x="304" y="200"/>
      <point x="264" y="200" type="curve" smooth="yes"/>
      <point x="224" y="200"/>
      <point x="193" y="227"/>
      <point x="193" y="270" type="curve" smooth="yes"/>
      <point x="193" y="313"/>
      <point x="224" y="340"/>
    </contour>
    <contour>
      <point x="23" y="79" type="line"/>
      <point x="64" y="38" type="line"/>
      <point x="126" y="101" type="line"/>
      <point x="163" y="72"/>
      <point x="211" y="56"/>
      <point x="264" y="56" type="curve" smooth="yes"/>
      <point x="317" y="56"/>
      <point x="365" y="72"/>
      <point x="402" y="101" type="curve"/>
      <point x="464" y="38" type="line"/>
      <point x="505" y="79" type="line"/>
      <point x="442" y="143" type="line"/>
      <point x="471" y="177"/>
      <point x="485" y="220"/>
      <point x="485" y="270" type="curve" smooth="yes"/>
      <point x="485" y="320"/>
      <point x="471" y="363"/>
      <point x="442" y="397" type="curve"/>
      <point x="505" y="461" type="line"/>
      <point x="464" y="502" type="line"/>
      <point x="402" y="439" type="line"/>
      <point x="365" y="468"/>
      <point x="317" y="484"/>
      <point x="264" y="484" type="curve" smooth="yes"/>
      <point x="211" y="484"/>
      <point x="163" y="468"/>
      <point x="126" y="439" type="curve"/>
      <point x="64" y="502" type="line"/>
      <point x="23" y="461" type="line"/>
      <point x="86" y="397" type="line"/>
      <point x="57" y="363"/>
      <point x="43" y="320"/>
      <point x="43" y="270" type="curve" smooth="yes"/>
      <point x="43" y="220"/>
      <point x="57" y="177"/>
      <point x="86" y="143" type="curve"/>
    </contour>
  </outline>
</glyph>
<glyph name="yen" format="2">
  <advance width="593"/>
  <unicode hex="00A5"/>
  <outline>
    <contour>
      <point x="404" y="0" type="line"/>
      <point x="404" y="248" type="line"/>
      <point x="584" y="665" type="line"/>
      <point x="356" y="665" type="line"/>
      <point x="296" y="422" type="line"/>
      <point x="236" y="665" type="line"/>
      <point x="8" y="665" type="line"/>
      <point x="190" y="248" type="line"/>
      <point x="190" y="0" type="line"/>
    </contour>
    <contour>
      <point x="511" y="178" type="line"/>
      <point x="83" y="178" type="line"/>
      <point x="83" y="104" type="line"/>
      <point x="511" y="104" type="line"/>
    </contour>
    <contour>
      <point x="511" y="302" type="line"/>
      <point x="83" y="302" type="line"/>
      <point x="83" y="228" type="line"/>
      <point x="511" y="228" type="line"/>
    </contour>
  </outline>
</glyph>
<glyph name="brokenbar" format="2">
	<advance width="300"/>
	<unicode hex="00A6"/>
	<outline>
		<contour>
			<point x="259" y="730" type="line"/>
			<point x="41" y="730" type="line"/>
			<point x="41" y="320" type="line"/>
			<point x="259" y="320" type="line"/>
		</contour>
		<contour>
			<point x="259" y="180" type="line"/>
			<point x="41" y="180" type="line"/>
			<point x="41" y="-230" type="line"/>
			<point x="259" y="-230" type="line"/>
		</contour>
	</outline>
</glyph>
<glyph name="section" format="2">
  <advance width="597"/>
  <unicode hex="00A7"/>
  <outline>
    <contour>
      <point x="546" y="535" type="curve"/>
      <point x="552" y="699" type="line"/>
      <point x="552" y="699"/>
      <point x="400" y="726"/>
      <point x="291" y="726" type="curve" smooth="yes"/>
      <point x="149" y="726"/>
      <point x="32" y="681"/>
      <point x="32" y="522" type="curve" smooth="yes"/>
      <point x="32" y="474"/>
      <point x="42" y="435"/>
      <point x="79" y="396" type="curve"/>
      <point x="50" y="366"/>
      <point x="22" y="331"/>
      <point x="22" y="281" type="curve" smooth="yes"/>
      <point x="22" y="175"/>
      <point x="67" y="145"/>
      <point x="218" y="112" type="curve" smooth="yes"/>
      <point x="320" y="90"/>
      <point x="337" y="89"/>
      <point x="337" y="67" type="curve" smooth="yes"/>
      <point x="337" y="48"/>
      <point x="318" y="39"/>
      <point x="280" y="39" type="curve" smooth="yes"/>
      <point x="207" y="39"/>
      <point x="54" y="62"/>
      <point x="54" y="62" type="curve"/>
      <point x="37" y="-104" type="line"/>
      <point x="37" y="-104"/>
      <point x="181" y="-139"/>
      <point x="308" y="-139" type="curve" smooth="yes"/>
      <point x="438" y="-139"/>
      <point x="563" y="-102"/>
      <point x="563" y="79" type="curve" smooth="yes"/>
      <point x="563" y="130"/>
      <point x="553" y="149"/>
      <point x="518" y="177" type="curve"/>
      <point x="554" y="202"/>
      <point x="573" y="245"/>
      <point x="573" y="307" type="curve" smooth="yes"/>
      <point x="573" y="415"/>
      <point x="517" y="444"/>
      <point x="358" y="476" type="curve" smooth="yes"/>
      <point x="267" y="494"/>
      <point x="256" y="501"/>
      <point x="256" y="518" type="curve" smooth="yes"/>
      <point x="256" y="538"/>
      <point x="268" y="545"/>
      <point x="328" y="545" type="curve" smooth="yes"/>
      <point x="396" y="545"/>
      <point x="546" y="535"/>
    </contour>
    <contour>
      <point x="307" y="327" type="curve" smooth="yes"/>
      <point x="343" y="316"/>
      <point x="375" y="312"/>
      <point x="375" y="287" type="curve" smooth="yes"/>
      <point x="375" y="270"/>
      <point x="373" y="257"/>
      <point x="364" y="238" type="curve"/>
      <point x="347" y="245"/>
      <point x="315" y="254"/>
      <point x="284" y="264" type="curve" smooth="yes"/>
      <point x="237" y="279"/>
      <point x="229" y="286"/>
      <point x="229" y="304" type="curve" smooth="yes"/>
      <point x="229" y="320"/>
      <point x="234" y="336"/>
      <point x="242" y="345" type="curve"/>
      <point x="257" y="342"/>
      <point x="279" y="335"/>
    </contour>
  </outline>
</glyph>
<glyph name="copyright" format="2">
	<advance width="644"/>
	<unicode hex="00A9"/>
	<outline>
		<contour>
			<point x="322" y="685" type="curve" smooth="yes"/>
			<point x="450" y="685"/>
			<point x="546" y="578"/>
			<point x="546" y="450" type="curve" smooth="yes"/>
			<point x="546" y="322"/>
			<point x="450" y="215"/>
			<point x="322" y="215" type="curve" smooth="yes"/>
			<point x="194" y="215"/>
			<point x="98" y="322"/>
			<point x="98" y="450" type="curve" smooth="yes"/>
			<point x="98" y="578"/>
			<point x="194" y="685"/>
		</contour>
		<contour>
			<point x="31" y="450" type="curve" smooth="yes"/>
			<point x="31" y="279"/>
			<point x="157" y="152"/>
			<point x="322" y="152" type="curve" smooth="yes"/>
			<point x="487" y="152"/>
			<point x="613" y="279"/>
			<point x="613" y="450" type="curve" smooth="yes"/>
			<point x="613" y="619"/>
			<point x="490" y="748"/>
			<point x="322" y="748" type="curve" smooth="yes"/>
			<point x="154" y="748"/>
			<point x="31" y="619"/>
		</contour>
		<contour>
			<point x="418" y="301" type="curve"/>
			<point x="410" y="387" type="line"/>
			<point x="410" y="387"/>
			<point x="373" y="382"/>
			<point x="340" y="382" type="curve" smooth="yes"/>
			<point x="314" y="382"/>
			<point x="303" y="405"/>
			<point x="303" y="456" type="curve" smooth="yes"/>
			<point x="303" y="503"/>
			<point x="313" y="519"/>
			<point x="340" y="519" type="curve" smooth="yes"/>
			<point x="373" y="519"/>
			<point x="410" y="513"/>
			<point x="410" y="513" type="curve"/>
			<point x="418" y="603" type="line"/>
			<point x="418" y="603"/>
			<point x="384" y="619"/>
			<point x="334" y="619" type="curve" smooth="yes"/>
			<point x="237" y="619"/>
			<point x="195" y="580"/>
			<point x="195" y="456" type="curve" smooth="yes"/>
			<point x="195" y="318"/>
			<point x="237" y="282"/>
			<point x="329" y="282" type="curve" smooth="yes"/>
			<point x="388" y="282"/>
			<point x="418" y="301"/>
		</contour>
	</outline>
</glyph>
<glyph name="ordfeminine" format="2">
	<advance width="441"/>
	<unicode hex="00AA"/>
	<outline>
		<contour>
			<point x="392" y="499" type="curve" smooth="yes"/>
			<point x="392" y="611" type="line" smooth="yes"/>
			<point x="392" y="695"/>
			<point x="338" y="726"/>
			<point x="211" y="726" type="curve" smooth="yes"/>
			<point x="128" y="726"/>
			<point x="42" y="709"/>
			<point x="42" y="709" type="curve"/>
			<point x="45" y="602" type="line"/>
			<point x="45" y="602"/>
			<point x="137" y="614"/>
			<point x="206" y="614" type="curve" smooth="yes"/>
			<point x="231" y="614"/>
			<point x="235" y="611"/>
			<point x="235" y="602" type="curve" smooth="yes"/>
			<point x="235" y="592" type="line"/>
			<point x="178" y="590" type="line" smooth="yes"/>
			<point x="93" y="587"/>
			<point x="27" y="574"/>
			<point x="27" y="490" type="curve" smooth="yes"/>
			<point x="27" y="405"/>
			<point x="77" y="371"/>
			<point x="160" y="371" type="curve" smooth="yes"/>
			<point x="214" y="371"/>
			<point x="258" y="397"/>
			<point x="258" y="397" type="curve"/>
			<point x="291" y="371"/>
			<point x="350" y="368"/>
			<point x="410" y="378" type="curve"/>
			<point x="410" y="480" type="line"/>
			<point x="396" y="482"/>
			<point x="392" y="487"/>
		</contour>
		<contour>
			<point x="210" y="512" type="curve" smooth="yes"/>
			<point x="235" y="514" type="line"/>
			<point x="235" y="485" type="line"/>
			<point x="235" y="485"/>
			<point x="225" y="474"/>
			<point x="205" y="474" type="curve" smooth="yes"/>
			<point x="193" y="474"/>
			<point x="186" y="478"/>
			<point x="186" y="492" type="curve" smooth="yes"/>
			<point x="186" y="505"/>
			<point x="193" y="511"/>
		</contour>
		<contour>
			<point x="36" y="336" type="line"/>
			<point x="36" y="216" type="line"/>
			<point x="411" y="216" type="line"/>
			<point x="411" y="336" type="line"/>
		</contour>
	</outline>
</glyph>
<glyph name="logicalnot" format="2">
  <advance width="560"/>
  <unicode hex="00AC"/>
  <outline>
    <contour>
      <point x="512" y="126" type="line"/>
      <point x="512" y="428" type="line"/>
      <point x="43" y="428" type="line"/>
      <point x="43" y="264" type="line"/>
      <point x="332" y="264" type="line"/>
      <point x="332" y="126" type="line"/>
    </contour>
  </outline>
</glyph>
<glyph name="registered" format="2">
	<advance width="644"/>
	<unicode hex="00AE"/>
	<outline>
		<contour>
			<point x="326" y="385" type="line"/>
			<point x="359" y="291" type="line"/>
			<point x="461" y="291" type="line"/>
			<point x="418" y="403" type="line"/>
			<point x="448" y="428"/>
			<point x="461" y="459"/>
			<point x="461" y="499" type="curve" smooth="yes"/>
			<point x="461" y="587"/>
			<point x="409" y="609"/>
			<point x="341" y="609" type="curve" smooth="yes"/>
			<point x="198" y="609" type="line"/>
			<point x="198" y="291" type="line"/>
			<point x="299" y="291" type="line"/>
			<point x="299" y="385" type="line"/>
		</contour>
		<contour>
			<point x="298" y="455" type="line"/>
			<point x="298" y="536" type="line"/>
			<point x="326" y="536" type="line" smooth="yes"/>
			<point x="351" y="536"/>
			<point x="363" y="519"/>
			<point x="363" y="496" type="curve" smooth="yes"/>
			<point x="363" y="472"/>
			<point x="350" y="455"/>
			<point x="327" y="455" type="curve" smooth="yes"/>
		</contour>
		<contour>
			<point x="322" y="685" type="curve" smooth="yes"/>
			<point x="450" y="685"/>
			<point x="546" y="578"/>
			<point x="546" y="450" type="curve" smooth="yes"/>
			<point x="546" y="322"/>
			<point x="450" y="215"/>
			<point x="322" y="215" type="curve" smooth="yes"/>
			<point x="194" y="215"/>
			<point x="98" y="322"/>
			<point x="98" y="450" type="curve" smooth="yes"/>
			<point x="98" y="578"/>
			<point x="194" y="685"/>
		</contour>
		<contour>
			<point x="31" y="450" type="curve" smooth="yes"/>
			<point x="31" y="279"/>
			<point x="157" y="152"/>
			<point x="322" y="152" type="curve" smooth="yes"/>
			<point x="487" y="152"/>
			<point x="613" y="279"/>
			<point x="613" y="450" type="curve" smooth="yes"/>
			<point x="613" y="619"/>
			<point x="490" y="748"/>
			<point x="322" y="748" type="curve" smooth="yes"/>
			<point x="154" y="748"/>
			<point x="31" y="619"/>
		</contour>
	</outline>
</glyph>
<glyph name="degree" format="2">
  <advance width="388"/>
  <unicode hex="00B0"/>
  <outline>
    <contour>
      <point x="194" y="726" type="curve" smooth="yes"/>
      <point x="94" y="726"/>
      <point x="28" y="660"/>
      <point x="28" y="562" type="curve" smooth="yes"/>
      <point x="28" y="465"/>
      <point x="94" y="399"/>
      <point x="194" y="399" type="curve" smooth="yes"/>
      <point x="294" y="399"/>
      <point x="360" y="465"/>
      <point x="360" y="562" type="curve" smooth="yes"/>
      <point x="360" y="660"/>
      <point x="294" y="726"/>
    </contour>
    <contour>
      <point x="194" y="616" type="curve" smooth="yes"/>
      <point x="226" y="616"/>
      <point x="247" y="594"/>
      <point x="247" y="562" type="curve" smooth="yes"/>
      <point x="247" y="531"/>
      <point x="226" y="510"/>
      <point x="194" y="510" type="curve" smooth="yes"/>
      <point x="163" y="510"/>
      <point x="141" y="531"/>
      <point x="141" y="562" type="curve" smooth="yes"/>
      <point x="141" y="594"/>
      <point x="163" y="616"/>
    </contour>
  </outline>
</glyph>
<glyph name="plusminus" format="2">
  <advance width="560"/>
  <unicode hex="00B1"/>
  <outline>
    <contour>
      <point x="49" y="467" type="line"/>
      <point x="49" y="303" type="line"/>
      <point x="190" y="303" type="line"/>
      <point x="190" y="205" type="line"/>
      <point x="370" y="205" type="line"/>
      <point x="370" y="303" type="line"/>
      <point x="511" y="303" type="line"/>
      <point x="511" y="467" type="line"/>
      <point x="370" y="467" type="line"/>
      <point x="370" y="565" type="line"/>
      <point x="190" y="565" type="line"/>
      <point x="190" y="467" type="line"/>
    </contour>
    <contour>
      <point x="511" y="164" type="line"/>
      <point x="49" y="164" type="line"/>
      <point x="49" y="0" type="line"/>
      <point x="511" y="0" type="line"/>
    </contour>
  </outline>
</glyph>
<glyph name="micro" format="2">
  <advance width="601"/>
  <unicode hex="00B5"/>
  <outline>
    <contour>
      <point x="564" y="520" type="line"/>
      <point x="340" y="520" type="line"/>
      <point x="340" y="185" type="line"/>
      <point x="340" y="185"/>
      <point x="318" y="178"/>
      <point x="296" y="178" type="curve" smooth="yes"/>
      <point x="268" y="178"/>
      <point x="262" y="197"/>
      <point x="262" y="238" type="curve" smooth="yes"/>
      <point x="262" y="520" type="line"/>
      <point x="38" y="520" type="line"/>
      <point x="38" y="-200" type="line"/>
      <point x="240" y="-200" type="line"/>
      <point x="240" y="23" type="line"/>
      <point x="257" y="16"/>
      <point x="275" y="13"/>
      <point x="294" y="13" type="curve" smooth="yes"/>
      <point x="328" y="13"/>
      <point x="349" y="32"/>
      <point x="349" y="32" type="curve"/>
      <point x="349" y="0" type="line"/>
      <point x="564" y="0" type="line"/>
    </contour>
  </outline>
</glyph>
<glyph name="paragraph" format="2">
  <advance width="668"/>
  <unicode hex="00B6"/>
  <outline>
    <contour>
      <point x="424" y="550" type="line"/>
      <point x="424" y="0" type="line"/>
      <point x="584" y="0" type="line"/>
      <point x="584" y="550" type="line"/>
      <point x="640" y="550" type="line"/>
      <point x="640" y="700" type="line"/>
      <point x="211" y="700" type="line" smooth="yes"/>
      <point x="98" y="700"/>
      <point x="13" y="617"/>
      <point x="13" y="502" type="curve" smooth="yes"/>
      <point x="13" y="387"/>
      <point x="96" y="306"/>
      <point x="209" y="306" type="curve" smooth="yes"/>
      <point x="216" y="306" type="line"/>
      <point x="216" y="0" type="line"/>
      <point x="376" y="0" type="line"/>
      <point x="376" y="550" type="line"/>
    </contour>
  </outline>
</glyph>
<glyph name="periodcentered" format="2">
	<advance width="271"/>
	<unicode hex="00B7"/>
	<outline>
		<contour>
			<point x="33" y="359" type="line"/>
			<point x="33" y="159" type="line"/>
			<point x="238" y="159" type="line"/>
			<point x="238" y="359" type="line"/>
		</contour>
	</outline>
</glyph>
<glyph name="ordmasculine" format="2">
  <advance width="445"/>
  <unicode hex="00BA"/>
  <outline>
    <contour>
      <point x="223" y="726" type="curve" smooth="yes"/>
      <point x="85" y="726"/>
      <point x="27" y="678"/>
      <point x="27" y="548" type="curve" smooth="yes"/>
      <point x="27" y="418"/>
      <point x="85" y="371"/>
      <point x="223" y="371" type="curve" smooth="yes"/>
      <point x="361" y="371"/>
      <point x="418" y="418"/>
      <point x="418" y="548" type="curve" smooth="yes"/>
      <point x="418" y="678"/>
      <point x="361" y="726"/>
    </contour>
    <contour>
      <point x="223" y="492" type="curve" smooth="yes"/>
      <point x="198" y="492"/>
      <point x="186" y="505"/>
      <point x="186" y="551" type="curve" smooth="yes"/>
      <point x="186" y="593"/>
      <point x="196" y="606"/>
      <point x="223" y="606" type="curve" smooth="yes"/>
      <point x="249" y="606"/>
      <point x="259" y="594"/>
      <point x="259" y="551" type="curve" smooth="yes"/>
      <point x="259" y="505"/>
      <point x="249" y="492"/>
    </contour>
    <contour>
      <point x="37" y="336" type="line"/>
      <point x="37" y="216" type="line"/>
      <point x="408" y="216" type="line"/>
      <point x="408" y="336" type="line"/>
    </contour>
  </outline>
</glyph>
<glyph name="AE" format="2">
  <advance width="892"/>
  <unicode hex="00C6"/>
  <anchor x="435" y="0" name="bottom"/>
  <anchor x="527" y="700" name="top"/>
  <outline>
    <contour>
      <point x="365" y="515" type="line"/>
      <point x="365" y="0" type="line"/>
      <point x="864" y="0" type="line"/>
      <point x="864" y="185" type="line"/>
      <point x="591" y="185" type="line"/>
      <point x="591" y="265" type="line"/>
      <point x="804" y="265" type="line"/>
      <point x="804" y="435" type="line"/>
      <point x="591" y="435" type="line"/>
      <point x="591" y="515" type="line"/>
      <point x="864" y="515" type="line"/>
      <point x="864" y="700" type="line"/>
      <point x="141" y="700" type="line"/>
      <point x="-6" y="0" type="line"/>
      <point x="222" y="0" type="line"/>
      <point x="305" y="515" type="line"/>
    </contour>
    <contour>
      <point x="381" y="110" type="line"/>
      <point x="381" y="289" type="line"/>
      <point x="243" y="289" type="line"/>
      <point x="212" y="110" type="line"/>
    </contour>
  </outline>
</glyph>
<glyph name="multiply" format="2">
	<advance width="560"/>
	<unicode hex="00D7"/>
	<outline>
		<contour>
			<point x="279" y="407" type="line"/>
			<point x="153" y="534" type="line"/>
			<point x="30" y="412" type="line"/>
			<point x="156" y="284" type="line"/>
			<point x="30" y="156" type="line"/>
			<point x="153" y="34" type="line"/>
			<point x="279" y="160" type="line"/>
			<point x="407" y="34" type="line"/>
			<point x="530" y="157" type="line"/>
			<point x="403" y="284" type="line"/>
			<point x="530" y="411" type="line"/>
			<point x="406" y="534" type="line"/>
		</contour>
	</outline>
</glyph>
<glyph name="Thorn" format="2">
	<advance width="613"/>
	<unicode hex="00DE"/>
	<outline>
		<contour>
			<point x="72" y="611" type="line"/>
			<point x="72" y="89" type="line"/>
			<point x="321" y="89" type="line" smooth="yes"/>
			<point x="509" y="89"/>
			<point x="591" y="163"/>
			<point x="591" y="355" type="curve" smooth="yes"/>
			<point x="591" y="543"/>
			<point x="509" y="611"/>
			<point x="321" y="611" type="curve" smooth="yes"/>
		</contour>
		<contour>
			<point x="310" y="269" type="curve" smooth="yes"/>
			<point x="253" y="269" type="line"/>
			<point x="253" y="431" type="line"/>
			<point x="309" y="431" type="line" smooth="yes"/>
			<point x="336" y="431"/>
			<point x="356" y="418"/>
			<point x="356" y="353" type="curve" smooth="yes"/>
			<point x="356" y="291"/>
			<point x="338" y="269"/>
		</contour>
		<component base="I"/>
	</outline>
</glyph>
<glyph name="germandbls" format="2">
  <advance width="720"/>
  <unicode hex="00DF"/>
  <outline>
    <contour>
      <point x="30" y="0" type="line"/>
      <point x="254" y="0" type="line"/>
      <point x="254" y="502" type="line" smooth="yes"/>
      <point x="254" y="544"/>
      <point x="276" y="567"/>
      <point x="329" y="567" type="curve" smooth="yes"/>
      <point x="382" y="567"/>
      <point x="395" y="544"/>
      <point x="395" y="523" type="curve" smooth="yes"/>
      <point x="395" y="505"/>
      <point x="385" y="485"/>
      <point x="353" y="454" type="curve" smooth="yes"/>
      <point x="310" y="413"/>
      <point x="300" y="383"/>
      <point x="300" y="353" type="curve" smooth="yes"/>
      <point x="300" y="304"/>
      <point x="316" y="277"/>
      <point x="358" y="253" type="curve" smooth="yes"/>
      <point x="445" y="204" type="line" smooth="yes"/>
      <point x="478" y="186"/>
      <point x="488" y="180"/>
      <point x="488" y="167" type="curve" smooth="yes"/>
      <point x="488" y="154"/>
      <point x="477" y="145"/>
      <point x="439" y="145" type="curve" smooth="yes"/>
      <point x="393" y="145"/>
      <point x="311" y="158"/>
      <point x="311" y="158" type="curve"/>
      <point x="304" y="11" type="line"/>
      <point x="304" y="11"/>
      <point x="386" y="-13"/>
      <point x="484" y="-13" type="curve" smooth="yes"/>
      <point x="647" y="-13"/>
      <point x="714" y="53"/>
      <point x="714" y="185" type="curve" smooth="yes"/>
      <point x="714" y="249"/>
      <point x="693" y="296"/>
      <point x="633" y="331" type="curve" smooth="yes"/>
      <point x="550" y="379" type="line" smooth="yes"/>
      <point x="517" y="398"/>
      <point x="506" y="404"/>
      <point x="506" y="420" type="curve" smooth="yes"/>
      <point x="506" y="433"/>
      <point x="518" y="442"/>
      <point x="557" y="470" type="curve" smooth="yes"/>
      <point x="610" y="509"/>
      <point x="633" y="532"/>
      <point x="633" y="588" type="curve" smooth="yes"/>
      <point x="633" y="700"/>
      <point x="535" y="745"/>
      <point x="343" y="745" type="curve" smooth="yes"/>
      <point x="112" y="745"/>
      <point x="30" y="679"/>
      <point x="30" y="485" type="curve" smooth="yes"/>
    </contour>
  </outline>
</glyph>
<glyph name="ae" format="2">
  <advance width="803"/>
  <unicode hex="00E6"/>
  <anchor x="381" y="0" name="bottom"/>
  <anchor x="410" y="520" name="top"/>
  <outline>
    <contour>
      <point x="540" y="152" type="curve" smooth="yes"/>
      <point x="504" y="152"/>
      <point x="489" y="163"/>
      <point x="489" y="205" type="curve"/>
      <point x="774" y="205" type="line"/>
      <point x="784" y="305" type="line"/>
      <point x="784" y="461"/>
      <point x="689" y="535"/>
      <point x="548" y="535" type="curve" smooth="yes"/>
      <point x="471" y="535"/>
      <point x="432" y="515"/>
      <point x="405" y="489" type="curve"/>
      <point x="374" y="519"/>
      <point x="329" y="535"/>
      <point x="260" y="535" type="curve" smooth="yes"/>
      <point x="155" y="535"/>
      <point x="35" y="500"/>
      <point x="35" y="500" type="curve"/>
      <point x="40" y="348" type="line"/>
      <point x="40" y="348"/>
      <point x="159" y="361"/>
      <point x="248" y="361" type="curve" smooth="yes"/>
      <point x="280" y="361"/>
      <point x="291" y="353"/>
      <point x="291" y="331" type="curve" smooth="yes"/>
      <point x="291" y="316" type="line"/>
      <point x="217" y="312" type="line" smooth="yes"/>
      <point x="67" y="304"/>
      <point x="13" y="266"/>
      <point x="13" y="156" type="curve" smooth="yes"/>
      <point x="13" y="30"/>
      <point x="83" y="-13"/>
      <point x="186" y="-13" type="curve" smooth="yes"/>
      <point x="248" y="-13"/>
      <point x="294" y="2"/>
      <point x="326" y="19" type="curve" smooth="yes"/>
      <point x="352" y="33" type="line"/>
      <point x="393" y="0"/>
      <point x="457" y="-13"/>
      <point x="529" y="-13" type="curve" smooth="yes"/>
      <point x="639" y="-13"/>
      <point x="774" y="16"/>
      <point x="774" y="16" type="curve"/>
      <point x="769" y="161" type="line"/>
      <point x="769" y="161"/>
      <point x="624" y="152"/>
    </contour>
    <contour>
      <point x="259" y="141" type="curve" smooth="yes"/>
      <point x="243" y="141"/>
      <point x="228" y="148"/>
      <point x="228" y="172" type="curve" smooth="yes"/>
      <point x="228" y="188"/>
      <point x="237" y="201"/>
      <point x="257" y="202" type="curve" smooth="yes"/>
      <point x="291" y="204" type="line"/>
      <point x="291" y="185"/>
      <point x="295" y="164"/>
      <point x="301" y="148" type="curve"/>
      <point x="301" y="148"/>
      <point x="290" y="141"/>
    </contour>
    <contour>
      <point x="574" y="325" type="curve"/>
      <point x="490" y="325" type="line"/>
      <point x="491" y="373"/>
      <point x="501" y="387"/>
      <point x="531" y="387" type="curve" smooth="yes"/>
      <point x="564" y="387"/>
      <point x="574" y="373"/>
    </contour>
  </outline>
</glyph>
<glyph name="eth" format="2">
	<advance width="572"/>
	<unicode hex="00F0"/>
	<outline>
		<contour>
			<point x="54" y="574" type="line"/>
			<point x="141" y="451" type="line"/>
			<point x="270" y="544" type="line"/>
			<point x="298" y="523"/>
			<point x="325" y="479"/>
			<point x="327" y="417" type="curve"/>
			<point x="295" y="426"/>
			<point x="260" y="431"/>
			<point x="224" y="431" type="curve" smooth="yes"/>
			<point x="71" y="431"/>
			<point x="8" y="340"/>
			<point x="8" y="213" type="curve" smooth="yes"/>
			<point x="8" y="63"/>
			<point x="99" y="-13"/>
			<point x="259" y="-13" type="curve" smooth="yes"/>
			<point x="458" y="-13"/>
			<point x="553" y="104"/>
			<point x="553" y="317" type="curve" smooth="yes"/>
			<point x="553" y="471"/>
			<point x="504" y="572"/>
			<point x="426" y="640" type="curve"/>
			<point x="481" y="678" type="line"/>
			<point x="390" y="805" type="line"/>
			<point x="279" y="731" type="line"/>
			<point x="224" y="751"/>
			<point x="144" y="764"/>
			<point x="57" y="768" type="curve"/>
			<point x="35" y="626" type="line"/>
			<point x="61" y="621"/>
			<point x="87" y="616"/>
			<point x="110" y="612" type="curve"/>
		</contour>
		<contour>
			<point x="268" y="278" type="curve" smooth="yes"/>
			<point x="283" y="278"/>
			<point x="304" y="276"/>
			<point x="330" y="267" type="curve"/>
			<point x="330" y="180"/>
			<point x="314" y="157"/>
			<point x="272" y="157" type="curve" smooth="yes"/>
			<point x="236" y="157"/>
			<point x="220" y="174"/>
			<point x="220" y="217" type="curve" smooth="yes"/>
			<point x="220" y="254"/>
			<point x="232" y="278"/>
		</contour>
	</outline>
</glyph>
<glyph name="divide" format="2">
  <advance width="560"/>
  <unicode hex="00F7"/>
  <outline>
    <contour>
      <point x="512" y="364" type="line"/>
      <point x="48" y="364" type="line"/>
      <point x="48" y="204" type="line"/>
      <point x="512" y="204" type="line"/>
    </contour>
    <contour>
      <point x="180" y="544" type="line"/>
      <point x="180" y="404" type="line"/>
      <point x="380" y="404" type="line"/>
      <point x="380" y="544" type="line"/>
    </contour>
    <contour>
      <point x="180" y="164" type="line"/>
      <point x="180" y="24" type="line"/>
      <point x="380" y="24" type="line"/>
      <point x="380" y="164" type="line"/>
    </contour>
  </outline>
</glyph>
<glyph name="oslash" format="2">
	<advance width="566"/>
	<unicode hex="00F8"/>
	<anchor x="285" y="520" name="top"/>
	<outline>
		<contour>
			<point x="301" y="406" type="line"/>
			<point x="399" y="344" type="line"/>
			<point x="503" y="535" type="line"/>
			<point x="401" y="589" type="line"/>
		</contour>
		<contour>
			<point x="269" y="151" type="line"/>
			<point x="171" y="213" type="line"/>
			<point x="52" y="-9" type="line"/>
			<point x="152" y="-65" type="line"/>
		</contour>
		<component base="o"/>
	</outline>
</glyph>
<glyph name="thorn" format="2">
	<advance width="575"/>
	<unicode hex="00FE"/>
	<outline>
		<contour>
			<point x="30" y="730" type="line"/>
			<point x="30" y="-200" type="line"/>
			<point x="254" y="-200" type="line"/>
			<point x="254" y="0" type="line"/>
			<point x="254" y="0"/>
			<point x="304" y="-13"/>
			<point x="336" y="-13" type="curve" smooth="yes"/>
			<point x="499" y="-13"/>
			<point x="556" y="73"/>
			<point x="556" y="248" type="curve" smooth="yes"/>
			<point x="556" y="436"/>
			<point x="504" y="535"/>
			<point x="368" y="535" type="curve" smooth="yes"/>
			<point x="305" y="535"/>
			<point x="254" y="499"/>
			<point x="254" y="499" type="curve"/>
			<point x="254" y="730" type="line"/>
		</contour>
		<contour>
			<point x="286" y="354" type="curve" smooth="yes"/>
			<point x="316" y="354"/>
			<point x="330" y="339"/>
			<point x="330" y="256" type="curve" smooth="yes"/>
			<point x="330" y="210"/>
			<point x="323" y="168"/>
			<point x="286" y="168" type="curve" smooth="yes"/>
			<point x="267" y="168"/>
			<point x="254" y="175"/>
			<point x="254" y="175" type="curve"/>
			<point x="254" y="351" type="line"/>
			<point x="254" y="351"/>
			<point x="277" y="354"/>
		</contour>
	</outline>
</glyph>
<glyph name="idotless" format="2">
	<advance width="284"/>
	<unicode hex="0131"/>
	<anchor x="142" y="0" name="bottom"/>
	<anchor x="254" y="0" name="ogonek"/>
	<anchor x="142" y="520" name="top"/>
	<outline>
		<contour>
			<point x="30" y="520" type="line"/>
			<point x="30" y="0" type="line"/>
			<point x="254" y="0" type="line"/>
			<point x="254" y="520" type="line"/>
		</contour>
	</outline>
</glyph>
<glyph name="Eng" format="2">
	<advance width="729"/>
	<unicode hex="014A"/>
	<outline>
		<contour>
			<point x="40" y="700" type="line"/>
			<point x="40" y="0" type="line"/>
			<point x="272" y="0" type="line"/>
			<point x="272" y="303" type="line"/>
			<point x="297" y="303" type="line"/>
			<point x="451" y="32" type="line"/>
			<point x="457" y="21" type="line"/>
			<point x="457" y="6" type="line"/>
			<point x="457" y="-32"/>
			<point x="425" y="-42"/>
			<point x="381" y="-42" type="curve"/>
			<point x="381" y="-230" type="line"/>
			<point x="626" y="-230"/>
			<point x="689" y="-195"/>
			<point x="689" y="-27" type="curve" smooth="yes"/>
			<point x="689" y="700" type="line"/>
			<point x="457" y="700" type="line"/>
			<point x="457" y="396" type="line"/>
			<point x="432" y="396" type="line"/>
			<point x="260" y="700" type="line"/>
		</contour>
	</outline>
</glyph>
<glyph name="eng" format="2">
	<advance width="583"/>
	<unicode hex="014B"/>
	<outline>
		<contour>
			<point x="557" y="-27" type="curve" smooth="yes"/>
			<point x="557" y="30" type="line"/>
			<point x="333" y="30" type="line"/>
			<point x="333" y="-21" type="line" smooth="yes"/>
			<point x="333" y="-58"/>
			<point x="318" y="-72"/>
			<point x="279" y="-72" type="curve"/>
			<point x="279" y="-235" type="line"/>
			<point x="488" y="-235"/>
			<point x="557" y="-200"/>
		</contour>
		<component base="n"/>
	</outline>
</glyph>
<glyph name="OE" format="2">
	<advance width="914"/>
	<unicode hex="0152"/>
	<anchor x="453" y="0" name="bottom"/>
	<anchor x="463" y="700" name="top"/>
	<outline>
		<contour>
			<point x="470" y="0" type="curve"/>
			<point x="885" y="0" type="line"/>
			<point x="885" y="185" type="line"/>
			<point x="646" y="185" type="line"/>
			<point x="646" y="266" type="line"/>
			<point x="825" y="266" type="line"/>
			<point x="825" y="436" type="line"/>
			<point x="646" y="436" type="line"/>
			<point x="646" y="515" type="line"/>
			<point x="885" y="515" type="line"/>
			<point x="885" y="700" type="line"/>
			<point x="470" y="700" type="line"/>
			<point x="420" y="706"/>
			<point x="382" y="713"/>
			<point x="320" y="713" type="curve" smooth="yes"/>
			<point x="99" y="713"/>
			<point x="26" y="621"/>
			<point x="26" y="340" type="curve" smooth="yes"/>
			<point x="26" y="94"/>
			<point x="93" y="-13"/>
			<point x="307" y="-13" type="curve" smooth="yes"/>
			<point x="366" y="-13"/>
			<point x="411" y="-9"/>
		</contour>
		<contour>
			<point x="373" y="175" type="curve" smooth="yes"/>
			<point x="265" y="175"/>
			<point x="262" y="224"/>
			<point x="262" y="340" type="curve" smooth="yes"/>
			<point x="262" y="492"/>
			<point x="276" y="525"/>
			<point x="373" y="525" type="curve" smooth="yes"/>
			<point x="387" y="525"/>
			<point x="400" y="523"/>
			<point x="414" y="520" type="curve"/>
			<point x="414" y="179" type="line"/>
			<point x="400" y="176"/>
			<point x="387" y="175"/>
		</contour>
	</outline>
</glyph>
<glyph name="oe" format="2">
  <advance width="870"/>
  <unicode hex="0153"/>
  <anchor x="437" y="0" name="bottom"/>
  <anchor x="437" y="520" name="top"/>
  <outline>
    <contour>
      <point x="609" y="152" type="curve" smooth="yes"/>
      <point x="559" y="152"/>
      <point x="548" y="161"/>
      <point x="548" y="205" type="curve"/>
      <point x="841" y="205" type="line"/>
      <point x="851" y="306" type="line"/>
      <point x="849" y="462"/>
      <point x="758" y="535"/>
      <point x="615" y="535" type="curve" smooth="yes"/>
      <point x="518" y="535"/>
      <point x="473" y="508"/>
      <point x="445" y="467" type="curve"/>
      <point x="414" y="509"/>
      <point x="362" y="535"/>
      <point x="283" y="535" type="curve" smooth="yes"/>
      <point x="110" y="535"/>
      <point x="18" y="462"/>
      <point x="18" y="253" type="curve" smooth="yes"/>
      <point x="18" y="58"/>
      <point x="111" y="-13"/>
      <point x="273" y="-13" type="curve" smooth="yes"/>
      <point x="356" y="-13"/>
      <point x="405" y="11"/>
      <point x="437" y="51" type="curve"/>
      <point x="464" y="12"/>
      <point x="519" y="-13"/>
      <point x="613" y="-13" type="curve" smooth="yes"/>
      <point x="716" y="-13"/>
      <point x="841" y="16"/>
      <point x="841" y="16" type="curve"/>
      <point x="836" y="161" type="line"/>
      <point x="836" y="161"/>
      <point x="688" y="152"/>
    </contour>
    <contour>
      <point x="284" y="158" type="curve" smooth="yes"/>
      <point x="254" y="158"/>
      <point x="244" y="178"/>
      <point x="244" y="260" type="curve" smooth="yes"/>
      <point x="244" y="342"/>
      <point x="254" y="365"/>
      <point x="284" y="365" type="curve" smooth="yes"/>
      <point x="311" y="365"/>
      <point x="322" y="343"/>
      <point x="322" y="260" type="curve" smooth="yes"/>
      <point x="322" y="178"/>
      <point x="311" y="158"/>
    </contour>
    <contour>
      <point x="633" y="313" type="curve"/>
      <point x="549" y="313" type="line"/>
      <point x="550" y="359"/>
      <point x="559" y="375"/>
      <point x="590" y="375" type="curve" smooth="yes"/>
      <point x="622" y="375"/>
      <point x="633" y="362"/>
    </contour>
  </outline>
</glyph>
<glyph name="Schwa" format="2">
	<advance width="666"/>
	<unicode hex="018F"/>
	<outline>
		<contour>
			<point x="318" y="544" type="curve" smooth="yes"/>
			<point x="394" y="544"/>
			<point x="415" y="533"/>
			<point x="419" y="425" type="curve"/>
			<point x="36" y="425" type="line"/>
			<point x="18" y="290" type="line"/>
			<point x="17" y="102"/>
			<point x="136" y="-14"/>
			<point x="325" y="-14" type="curve" smooth="yes"/>
			<point x="530" y="-14"/>
			<point x="642" y="123"/>
			<point x="642" y="371" type="curve" smooth="yes"/>
			<point x="642" y="602"/>
			<point x="558" y="726"/>
			<point x="329" y="726" type="curve" smooth="yes"/>
			<point x="249" y="726"/>
			<point x="117" y="706"/>
			<point x="46" y="690" type="curve"/>
			<point x="51" y="519" type="line"/>
			<point x="128" y="530"/>
			<point x="258" y="544"/>
		</contour>
		<contour>
			<point x="227" y="272" type="curve"/>
			<point x="420" y="272" type="line"/>
			<point x="413" y="188"/>
			<point x="380" y="167"/>
			<point x="326" y="167" type="curve" smooth="yes"/>
			<point x="265" y="167"/>
			<point x="233" y="195"/>
		</contour>
	</outline>
</glyph>
<glyph name="Eopen" format="2">
	<advance width="552"/>
	<unicode hex="0190"/>
	<outline>
		<contour>
			<point x="523" y="696" type="line"/>
			<point x="523" y="696"/>
			<point x="410" y="726"/>
			<point x="290" y="726" type="curve" smooth="yes"/>
			<point x="141" y="726"/>
			<point x="35" y="679"/>
			<point x="35" y="530" type="curve" smooth="yes"/>
			<point x="35" y="454"/>
			<point x="63" y="413"/>
			<point x="113" y="383" type="curve"/>
			<point x="59" y="359"/>
			<point x="25" y="319"/>
			<point x="25" y="209" type="curve" smooth="yes"/>
			<point x="25" y="36"/>
			<point x="128" y="-13"/>
			<point x="293" y="-13" type="curve" smooth="yes"/>
			<point x="413" y="-13"/>
			<point x="528" y="14"/>
			<point x="528" y="14" type="curve"/>
			<point x="522" y="196" type="line"/>
			<point x="522" y="196"/>
			<point x="406" y="186"/>
			<point x="349" y="186" type="curve" smooth="yes"/>
			<point x="284" y="186"/>
			<point x="267" y="197"/>
			<point x="267" y="232" type="curve" smooth="yes"/>
			<point x="267" y="260"/>
			<point x="279" y="277"/>
			<point x="322" y="277" type="curve" smooth="yes"/>
			<point x="468" y="277" type="line"/>
			<point x="468" y="453" type="line"/>
			<point x="326" y="453" type="line" smooth="yes"/>
			<point x="285" y="453"/>
			<point x="275" y="468"/>
			<point x="275" y="489" type="curve" smooth="yes"/>
			<point x="275" y="522"/>
			<point x="303" y="527"/>
			<point x="346" y="527" type="curve" smooth="yes"/>
			<point x="417" y="527"/>
			<point x="517" y="518"/>
			<point x="517" y="518" type="curve"/>
		</contour>
	</outline>
</glyph>
<glyph name="florin" format="2">
	<advance width="414"/>
	<unicode hex="0192"/>
	<outline>
		<contour>
			<point x="310" y="-31" type="curve" smooth="yes"/>
			<point x="310" y="313" type="line"/>
			<point x="396" y="313" type="line"/>
			<point x="396" y="453" type="line"/>
			<point x="314" y="453" type="line"/>
			<point x="314" y="482" type="line" smooth="yes"/>
			<point x="314" y="507"/>
			<point x="323" y="519"/>
			<point x="361" y="519" type="curve" smooth="yes"/>
			<point x="372" y="519"/>
			<point x="383" y="518"/>
			<point x="393" y="517" type="curve"/>
			<point x="393" y="665" type="line"/>
			<point x="393" y="665"/>
			<point x="297" y="677"/>
			<point x="265" y="677" type="curve" smooth="yes"/>
			<point x="145" y="677"/>
			<point x="99" y="631"/>
			<point x="99" y="498" type="curve" smooth="yes"/>
			<point x="99" y="453" type="line"/>
			<point x="29" y="453" type="line"/>
			<point x="29" y="313" type="line"/>
			<point x="96" y="313" type="line"/>
			<point x="96" y="-15" type="line" smooth="yes"/>
			<point x="96" y="-39"/>
			<point x="91" y="-52"/>
			<point x="56" y="-52" type="curve" smooth="yes"/>
			<point x="44" y="-52"/>
			<point x="17" y="-50"/>
			<point x="17" y="-50" type="curve"/>
			<point x="17" y="-198" type="line"/>
			<point x="17" y="-198"/>
			<point x="83" y="-210"/>
			<point x="145" y="-210" type="curve" smooth="yes"/>
			<point x="275" y="-210"/>
			<point x="310" y="-164"/>
		</contour>
	</outline>
</glyph>
<glyph name="Nhookleft" format="2">
  <advance width="729"/>
  <unicode hex="019D"/>
  <outline>
    <contour>
      <point x="272" y="-27" type="curve" smooth="yes"/>
      <point x="272" y="30" type="line"/>
      <point x="40" y="30" type="line"/>
      <point x="40" y="29" type="line" smooth="yes"/>
      <point x="40" y="-28"/>
      <point x="15" y="-42"/>
      <point x="-36" y="-42" type="curve"/>
      <point x="-36" y="-230" type="line"/>
      <point x="209" y="-230"/>
      <point x="272" y="-195"/>
    </contour>
    <component base="N"/>
  </outline>
</glyph>
<glyph name="jdotless" format="2">
	<advance width="288"/>
	<unicode hex="0237"/>
	<anchor x="156" y="-210" name="bottom"/>
	<anchor x="145" y="520" name="top"/>
	<outline>
		<contour>
			<point x="34" y="520" type="line"/>
			<point x="34" y="76" type="line" smooth="yes"/>
			<point x="34" y="4"/>
			<point x="26" y="-2"/>
			<point x="-55" y="-40" type="curve"/>
			<point x="17" y="-210" type="line"/>
			<point x="215" y="-148"/>
			<point x="258" y="-118"/>
			<point x="258" y="83" type="curve" smooth="yes"/>
			<point x="258" y="520" type="line"/>
		</contour>
	</outline>
</glyph>
<glyph name="eopen" format="2">
  <advance width="513"/>
  <unicode hex="025B"/>
  <outline>
    <contour>
      <point x="493" y="517" type="line"/>
      <point x="493" y="517"/>
      <point x="401" y="535"/>
      <point x="284" y="535" type="curve" smooth="yes"/>
      <point x="83" y="535"/>
      <point x="26" y="479"/>
      <point x="26" y="383" type="curve" smooth="yes"/>
      <point x="26" y="333"/>
      <point x="47" y="295"/>
      <point x="90" y="277" type="curve"/>
      <point x="36" y="253"/>
      <point x="18" y="221"/>
      <point x="18" y="162" type="curve" smooth="yes"/>
      <point x="18" y="54"/>
      <point x="76" y="-13"/>
      <point x="276" y="-13" type="curve" smooth="yes"/>
      <point x="383" y="-13"/>
      <point x="496" y="7"/>
      <point x="496" y="7" type="curve"/>
      <point x="490" y="151" type="line"/>
      <point x="490" y="151"/>
      <point x="382" y="141"/>
      <point x="298" y="141" type="curve" smooth="yes"/>
      <point x="262" y="141"/>
      <point x="234" y="143"/>
      <point x="234" y="169" type="curve" smooth="yes"/>
      <point x="234" y="193"/>
      <point x="247" y="200"/>
      <point x="276" y="200" type="curve" smooth="yes"/>
      <point x="427" y="200" type="line"/>
      <point x="427" y="330" type="line"/>
      <point x="276" y="330" type="line" smooth="yes"/>
      <point x="253" y="330"/>
      <point x="243" y="338"/>
      <point x="243" y="357" type="curve" smooth="yes"/>
      <point x="243" y="380"/>
      <point x="256" y="386"/>
      <point x="308" y="386" type="curve" smooth="yes"/>
      <point x="382" y="386"/>
      <point x="485" y="376"/>
      <point x="485" y="376" type="curve"/>
    </contour>
  </outline>
</glyph>
<glyph name="nhookleft" format="2">
	<advance width="583"/>
	<unicode hex="0272"/>
	<outline>
		<contour>
			<point x="254" y="-27" type="curve" smooth="yes"/>
			<point x="254" y="30" type="line"/>
			<point x="30" y="30" type="line"/>
			<point x="30" y="-21" type="line" smooth="yes"/>
			<point x="30" y="-58"/>
			<point x="15" y="-72"/>
			<point x="-24" y="-72" type="curve"/>
			<point x="-24" y="-235" type="line"/>
			<point x="185" y="-235"/>
			<point x="254" y="-200"/>
		</contour>
		<component base="n"/>
	</outline>
</glyph>
<glyph name="ubar" format="2">
	<advance width="619"/>
	<unicode hex="0289"/>
	<outline>
		<contour>
			<point x="16" y="413" type="line"/>
			<point x="16" y="253" type="line"/>
			<point x="602" y="253" type="line"/>
			<point x="602" y="413" type="line"/>
		</contour>
		<component base="u" xOffset="19"/>
	</outline>
</glyph>
<glyph name="gravecomb" format="2">
	<advance width="446"/>
	<unicode hex="0300"/>
	<anchor x="225" y="520" name="_top"/>
	<anchor x="225" y="810" name="top"/>
	<outline>
		<contour>
			<point x="109" y="800" type="line"/>
			<point x="50" y="640" type="line"/>
			<point x="356" y="561" type="line"/>
			<point x="396" y="680" type="line"/>
		</contour>
	</outline>
</glyph>
<glyph name="circumflexcomb" format="2">
  <advance width="486"/>
  <unicode hex="0302"/>
  <anchor x="243" y="520" name="_top"/>
  <anchor x="243" y="756" name="top"/>
  <outline>
    <contour>
      <point x="243" y="659" type="line"/>
      <point x="274" y="576" type="line"/>
      <point x="436" y="576" type="line"/>
      <point x="355" y="756" type="line"/>
      <point x="131" y="756" type="line"/>
      <point x="50" y="576" type="line"/>
      <point x="212" y="576" type="line"/>
    </contour>
  </outline>
</glyph>
<glyph name="tildecomb" format="2">
  <advance width="548"/>
  <unicode hex="0303"/>
  <anchor x="274" y="520" name="_top"/>
  <anchor x="274" y="766" name="top"/>
  <outline>
    <contour>
      <point x="498" y="660" type="curve"/>
      <point x="435" y="766" type="line"/>
      <point x="435" y="766"/>
      <point x="364" y="719"/>
      <point x="338" y="719" type="curve" smooth="yes"/>
      <point x="310" y="719"/>
      <point x="253" y="762"/>
      <point x="192" y="762" type="curve" smooth="yes"/>
      <point x="139" y="762"/>
      <point x="50" y="688"/>
      <point x="50" y="688" type="curve"/>
      <point x="114" y="585" type="line"/>
      <point x="114" y="585"/>
      <point x="166" y="622"/>
      <point x="194" y="622" type="curve" smooth="yes"/>
      <point x="227" y="622"/>
      <point x="291" y="578"/>
      <point x="343" y="578" type="curve" smooth="yes"/>
      <point x="397" y="578"/>
      <point x="498" y="660"/>
    </contour>
  </outline>
</glyph>
<glyph name="macroncomb" format="2">
	<advance width="427"/>
	<unicode hex="0304"/>
	<anchor x="214" y="520" name="_top"/>
	<anchor x="214" y="736" name="top"/>
	<outline>
		<contour>
			<point x="50" y="736" type="line"/>
			<point x="50" y="606" type="line"/>
			<point x="377" y="606" type="line"/>
			<point x="377" y="736" type="line"/>
		</contour>
	</outline>
</glyph>
<glyph name="brevecomb" format="2">
  <advance width="440"/>
  <unicode hex="0306"/>
  <anchor x="220" y="520" name="_top"/>
  <anchor x="220" y="756" name="top"/>
  <outline>
    <contour>
      <point x="176" y="756" type="curve"/>
      <point x="50" y="756" type="line"/>
      <point x="50" y="636"/>
      <point x="90" y="571"/>
      <point x="220" y="571" type="curve" smooth="yes"/>
      <point x="350" y="571"/>
      <point x="390" y="636"/>
      <point x="390" y="756" type="curve"/>
      <point x="264" y="756" type="line"/>
      <point x="261" y="716"/>
      <point x="250" y="702"/>
      <point x="220" y="702" type="curve" smooth="yes"/>
      <point x="190" y="702"/>
      <point x="179" y="716"/>
    </contour>
  </outline>
</glyph>
<glyph name="dotaccentcomb" format="2">
	<advance width="292"/>
	<unicode hex="0307"/>
	<anchor x="146" y="520" name="_top"/>
	<anchor x="146" y="730" name="top"/>
	<outline>
		<contour>
			<point x="50" y="730" type="line"/>
			<point x="50" y="576" type="line"/>
			<point x="242" y="576" type="line"/>
			<point x="242" y="730" type="line"/>
		</contour>
	</outline>
</glyph>
<glyph name="dieresiscomb" format="2">
	<advance width="498"/>
	<unicode hex="0308"/>
	<anchor x="249" y="520" name="_top"/>
	<anchor x="249" y="730" name="top"/>
	<outline>
		<contour>
			<point x="274" y="730" type="line"/>
			<point x="274" y="576" type="line"/>
			<point x="448" y="576" type="line"/>
			<point x="448" y="730" type="line"/>
		</contour>
		<contour>
			<point x="50" y="730" type="line"/>
			<point x="50" y="576" type="line"/>
			<point x="224" y="576" type="line"/>
			<point x="224" y="730" type="line"/>
		</contour>
	</outline>
</glyph>
<glyph name="ringcomb" format="2">
  <advance width="390"/>
  <unicode hex="030A"/>
  <anchor x="195" y="520" name="_top"/>
  <anchor x="195" y="790" name="top"/>
  <outline>
    <contour>
      <point x="163" y="678" type="curve" smooth="yes"/>
      <point x="163" y="693"/>
      <point x="175" y="700"/>
      <point x="195" y="700" type="curve" smooth="yes"/>
      <point x="214" y="700"/>
      <point x="227" y="693"/>
      <point x="227" y="678" type="curve" smooth="yes"/>
      <point x="227" y="662"/>
      <point x="214" y="655"/>
      <point x="195" y="655" type="curve" smooth="yes"/>
      <point x="175" y="655"/>
      <point x="163" y="662"/>
    </contour>
    <contour>
      <point x="50" y="678" type="curve" smooth="yes"/>
      <point x="50" y="598"/>
      <point x="110" y="566"/>
      <point x="195" y="566" type="curve" smooth="yes"/>
      <point x="280" y="566"/>
      <point x="340" y="598"/>
      <point x="340" y="678" type="curve" smooth="yes"/>
      <point x="340" y="758"/>
      <point x="280" y="790"/>
      <point x="195" y="790" type="curve" smooth="yes"/>
      <point x="110" y="790"/>
      <point x="50" y="758"/>
    </contour>
  </outline>
</glyph>
<glyph name="hungarumlautcomb" format="2">
	<advance width="624"/>
	<unicode hex="030B"/>
	<anchor x="280" y="520" name="_top"/>
	<anchor x="331" y="839" name="top"/>
	<outline>
		<contour>
			<point x="50" y="663" type="line"/>
			<point x="144" y="561" type="line"/>
			<point x="314" y="709" type="line"/>
			<point x="208" y="839" type="line"/>
		</contour>
		<contour>
			<point x="310" y="663" type="line"/>
			<point x="404" y="561" type="line"/>
			<point x="574" y="709" type="line"/>
			<point x="468" y="839" type="line"/>
		</contour>
	</outline>
</glyph>
<glyph name="commaabovecomb" format="2">
	<advance width="322"/>
	<unicode hex="0313"/>
	<anchor x="161" y="520" name="_top"/>
	<anchor x="161" y="794" name="top"/>
	<outline>
		<contour>
			<point x="134" y="794" type="line"/>
			<point x="50" y="637" type="line"/>
			<point x="161" y="568" type="line"/>
			<point x="272" y="710" type="line"/>
		</contour>
	</outline>
</glyph>
<glyph name="dotbelowcomb" format="2">
	<advance width="300"/>
	<unicode hex="0323"/>
	<anchor x="150" y="0" name="_bottom"/>
	<anchor x="150" y="-218" name="bottom"/>
	<outline>
		<contour>
			<point x="50" y="-64" type="line"/>
			<point x="50" y="-218" type="line"/>
			<point x="250" y="-218" type="line"/>
			<point x="250" y="-64" type="line"/>
		</contour>
	</outline>
</glyph>
<glyph name="commaaccentcomb" format="2">
	<advance width="357"/>
	<unicode hex="0326"/>
	<anchor x="177" y="0" name="_bottom"/>
	<anchor x="177" y="-327" name="bottom"/>
	<outline>
		<contour>
			<point x="162" y="-54" type="line"/>
			<point x="50" y="-242" type="line"/>
			<point x="170" y="-327" type="line"/>
			<point x="307" y="-160" type="line"/>
		</contour>
	</outline>
</glyph>
<glyph name="cedillacomb" format="2">
  <advance width="354"/>
  <unicode hex="0327"/>
  <anchor x="163" y="0" name="_bottom"/>
  <anchor x="177" y="-240" name="bottom"/>
  <outline>
    <contour>
      <point x="304" y="-137" type="curve" smooth="yes"/>
      <point x="304" y="-59"/>
      <point x="266" y="-42"/>
      <point x="181" y="-41" type="curve"/>
      <point x="189" y="3" type="line"/>
      <point x="113" y="3" type="line"/>
      <point x="93" y="-109" type="line"/>
      <point x="102" y="-109" type="line" smooth="yes"/>
      <point x="131" y="-109"/>
      <point x="140" y="-112"/>
      <point x="140" y="-129" type="curve" smooth="yes"/>
      <point x="140" y="-144"/>
      <point x="132" y="-151"/>
      <point x="102" y="-151" type="curve" smooth="yes"/>
      <point x="85" y="-151"/>
      <point x="54" y="-150"/>
      <point x="54" y="-150" type="curve"/>
      <point x="50" y="-231" type="line"/>
      <point x="50" y="-231"/>
      <point x="110" y="-240"/>
      <point x="167" y="-240" type="curve" smooth="yes"/>
      <point x="271" y="-240"/>
      <point x="304" y="-210"/>
    </contour>
  </outline>
</glyph>
<glyph name="ogonekcomb" format="2">
	<advance width="361"/>
	<unicode hex="0328"/>
	<anchor x="278" y="0" name="_ogonek"/>
	<outline>
		<contour>
			<point x="311" y="-215" type="curve"/>
			<point x="298" y="-107" type="line"/>
			<point x="298" y="-107"/>
			<point x="273" y="-111"/>
			<point x="252" y="-111" type="curve" smooth="yes"/>
			<point x="236" y="-111"/>
			<point x="230" y="-102"/>
			<point x="230" y="-89" type="curve" smooth="yes"/>
			<point x="230" y="-54"/>
			<point x="278" y="0"/>
			<point x="278" y="0" type="curve"/>
			<point x="145" y="21" type="line"/>
			<point x="145" y="21"/>
			<point x="52" y="-57"/>
			<point x="52" y="-133" type="curve" smooth="yes"/>
			<point x="52" y="-199"/>
			<point x="106" y="-230"/>
			<point x="201" y="-230" type="curve" smooth="yes"/>
			<point x="262" y="-230"/>
			<point x="311" y="-215"/>
		</contour>
	</outline>
</glyph>
<glyph name="strokeshortcomb" format="2">
	<advance width="366"/>
	<unicode hex="0335"/>
	<anchor x="222" y="615" name="_stroke"/>
	<outline>
		<contour>
			<point x="0" y="682" type="line"/>
			<point x="0" y="566" type="line"/>
			<point x="366" y="566" type="line"/>
			<point x="366" y="682" type="line"/>
		</contour>
	</outline>
</glyph>
<glyph name="slashlongcomb" format="2">
  <advance width="477"/>
  <unicode hex="0338"/>
  <anchor x="239" y="346" name="_center"/>
  <outline>
    <contour>
      <point x="385" y="755" type="line"/>
      <point x="0" y="-20" type="line"/>
      <point x="92" y="-64" type="line"/>
      <point x="477" y="711" type="line"/>
    </contour>
  </outline>
</glyph>
<glyph name="Omega" format="2">
  <advance width="644"/>
  <unicode hex="03A9"/>
  <outline>
    <contour>
      <point x="323" y="512" type="curve" smooth="yes"/>
      <point x="360" y="512"/>
      <point x="369" y="486"/>
      <point x="369" y="419" type="curve" smooth="yes"/>
      <point x="369" y="237"/>
      <point x="342" y="170"/>
      <point x="342" y="170" type="curve"/>
      <point x="342" y="0" type="line"/>
      <point x="619" y="0" type="line"/>
      <point x="619" y="180" type="line"/>
      <point x="541" y="180" type="line"/>
      <point x="541" y="180"/>
      <point x="589" y="265"/>
      <point x="589" y="444" type="curve" smooth="yes"/>
      <point x="589" y="586"/>
      <point x="553" y="690"/>
      <point x="323" y="690" type="curve" smooth="yes"/>
      <point x="83" y="690"/>
      <point x="47" y="586"/>
      <point x="47" y="444" type="curve" smooth="yes"/>
      <point x="47" y="265"/>
      <point x="105" y="180"/>
      <point x="105" y="180" type="curve"/>
      <point x="27" y="180" type="line"/>
      <point x="27" y="0" type="line"/>
      <point x="304" y="0" type="line"/>
      <point x="304" y="170" type="line"/>
      <point x="304" y="170"/>
      <point x="277" y="237"/>
      <point x="277" y="419" type="curve" smooth="yes"/>
      <point x="277" y="486"/>
      <point x="286" y="512"/>
    </contour>
  </outline>
</glyph>
<glyph name="pi" format="2">
	<advance width="564"/>
	<unicode hex="03C0"/>
	<outline>
		<contour>
			<point x="290" y="330" type="line"/>
			<point x="286" y="131" type="line" smooth="yes"/>
			<point x="284" y="17"/>
			<point x="329" y="-13"/>
			<point x="530" y="-13" type="curve"/>
			<point x="530" y="141" type="line"/>
			<point x="460" y="141"/>
			<point x="448" y="158"/>
			<point x="448" y="214" type="curve" smooth="yes"/>
			<point x="448" y="331" type="line"/>
			<point x="508" y="331"/>
			<point x="545" y="346"/>
			<point x="545" y="346" type="curve"/>
			<point x="545" y="535" type="line"/>
			<point x="545" y="535"/>
			<point x="469" y="520"/>
			<point x="381" y="520" type="curve" smooth="yes"/>
			<point x="195" y="520" type="line" smooth="yes"/>
			<point x="95" y="520"/>
			<point x="15" y="507"/>
			<point x="15" y="507" type="curve"/>
			<point x="15" y="317" type="line"/>
			<point x="15" y="317"/>
			<point x="45" y="326"/>
			<point x="78" y="326" type="curve"/>
			<point x="58" y="0" type="line"/>
			<point x="233" y="0" type="line"/>
			<point x="251" y="330" type="line"/>
		</contour>
	</outline>
</glyph>
<glyph name="baht" format="2">
	<advance width="610"/>
	<unicode hex="0E3F"/>
	<outline>
		<contour>
			<point x="360" y="665" type="curve" smooth="yes"/>
			<point x="43" y="665" type="line"/>
			<point x="43" y="0" type="line"/>
			<point x="360" y="0" type="line" smooth="yes"/>
			<point x="490" y="0"/>
			<point x="586" y="46"/>
			<point x="586" y="187" type="curve" smooth="yes"/>
			<point x="586" y="278"/>
			<point x="546" y="322"/>
			<point x="488" y="340" type="curve"/>
			<point x="546" y="376"/>
			<point x="568" y="420"/>
			<point x="568" y="490" type="curve" smooth="yes"/>
			<point x="568" y="616"/>
			<point x="490" y="665"/>
		</contour>
		<contour>
			<point x="261" y="262" type="line"/>
			<point x="302" y="262" type="line" smooth="yes"/>
			<point x="344" y="262"/>
			<point x="358" y="249"/>
			<point x="358" y="202" type="curve" smooth="yes"/>
			<point x="358" y="155"/>
			<point x="345" y="145"/>
			<point x="302" y="145" type="curve" smooth="yes"/>
			<point x="261" y="145" type="line"/>
		</contour>
		<contour>
			<point x="261" y="521" type="line"/>
			<point x="302" y="521" type="line" smooth="yes"/>
			<point x="338" y="521"/>
			<point x="352" y="508"/>
			<point x="352" y="460" type="curve" smooth="yes"/>
			<point x="352" y="417"/>
			<point x="339" y="405"/>
			<point x="302" y="405" type="curve" smooth="yes"/>
			<point x="261" y="405" type="line"/>
		</contour>
		<contour>
			<point x="162" y="780" type="line"/>
			<point x="162" y="645" type="line"/>
			<point x="224" y="645" type="line"/>
			<point x="224" y="780" type="line"/>
		</contour>
		<contour>
			<point x="345" y="780" type="line"/>
			<point x="345" y="645" type="line"/>
			<point x="407" y="645" type="line"/>
			<point x="407" y="780" type="line"/>
		</contour>
		<contour>
			<point x="157" y="25" type="line"/>
			<point x="157" y="-120" type="line"/>
			<point x="219" y="-120" type="line"/>
			<point x="219" y="25" type="line"/>
		</contour>
		<contour>
			<point x="340" y="25" type="line"/>
			<point x="340" y="-120" type="line"/>
			<point x="402" y="-120" type="line"/>
			<point x="402" y="25" type="line"/>
		</contour>
	</outline>
</glyph>
<glyph name="endash" format="2">
  <advance width="556"/>
  <unicode hex="2013"/>
  <outline>
    <contour>
      <point x="28" y="354" type="line"/>
      <point x="28" y="214" type="line"/>
      <point x="528" y="214" type="line"/>
      <point x="528" y="354" type="line"/>
    </contour>
  </outline>
</glyph>
<glyph name="emdash" format="2">
	<advance width="1056"/>
	<unicode hex="2014"/>
	<outline>
		<contour>
			<point x="28" y="354" type="line"/>
			<point x="28" y="214" type="line"/>
			<point x="1028" y="214" type="line"/>
			<point x="1028" y="354" type="line"/>
		</contour>
	</outline>
</glyph>
<glyph name="dagger" format="2">
	<advance width="524"/>
	<unicode hex="2020"/>
	<outline>
		<contour>
			<point x="14" y="530" type="line"/>
			<point x="14" y="332" type="line"/>
			<point x="149" y="332" type="line"/>
			<point x="159" y="-200" type="line"/>
			<point x="365" y="-200" type="line"/>
			<point x="375" y="332" type="line"/>
			<point x="510" y="332" type="line"/>
			<point x="510" y="530" type="line"/>
			<point x="375" y="530" type="line"/>
			<point x="375" y="710" type="line"/>
			<point x="149" y="710" type="line"/>
			<point x="149" y="530" type="line"/>
		</contour>
	</outline>
</glyph>
<glyph name="daggerdbl" format="2">
	<advance width="560"/>
	<unicode hex="2021"/>
	<outline>
		<contour>
			<point x="167" y="-20" type="line"/>
			<point x="167" y="-200" type="line"/>
			<point x="393" y="-200" type="line"/>
			<point x="393" y="-20" type="line"/>
			<point x="530" y="-20" type="line"/>
			<point x="530" y="178" type="line"/>
			<point x="393" y="178" type="line"/>
			<point x="393" y="332" type="line"/>
			<point x="530" y="332" type="line"/>
			<point x="530" y="530" type="line"/>
			<point x="393" y="530" type="line"/>
			<point x="393" y="710" type="line"/>
			<point x="167" y="710" type="line"/>
			<point x="167" y="530" type="line"/>
			<point x="30" y="530" type="line"/>
			<point x="30" y="332" type="line"/>
			<point x="167" y="332" type="line"/>
			<point x="167" y="178" type="line"/>
			<point x="30" y="178" type="line"/>
			<point x="30" y="-20" type="line"/>
		</contour>
	</outline>
</glyph>
<glyph name="bullet" format="2">
  <advance width="427"/>
  <unicode hex="2022"/>
  <outline>
    <contour>
      <point x="56" y="429" type="line"/>
      <point x="56" y="89" type="line"/>
      <point x="371" y="89" type="line"/>
      <point x="371" y="429" type="line"/>
    </contour>
  </outline>
</glyph>
<glyph name="perthousand" format="2">
  <advance width="969"/>
  <unicode hex="2030"/>
  <outline>
    <contour>
      <point x="381" y="701" type="line"/>
      <point x="223" y="-59" type="line"/>
      <point x="266" y="-67" type="line"/>
      <point x="425" y="692" type="line"/>
    </contour>
    <contour>
      <point x="156" y="668" type="curve" smooth="yes"/>
      <point x="48" y="668"/>
      <point x="12" y="618"/>
      <point x="12" y="490" type="curve" smooth="yes"/>
      <point x="12" y="362"/>
      <point x="45" y="311"/>
      <point x="156" y="311" type="curve" smooth="yes"/>
      <point x="268" y="311"/>
      <point x="300" y="362"/>
      <point x="300" y="490" type="curve" smooth="yes"/>
      <point x="300" y="618"/>
      <point x="269" y="668"/>
    </contour>
    <contour>
      <point x="156" y="562" type="curve" smooth="yes"/>
      <point x="172" y="562"/>
      <point x="174" y="560"/>
      <point x="174" y="490" type="curve" smooth="yes"/>
      <point x="174" y="420"/>
      <point x="171" y="418"/>
      <point x="156" y="418" type="curve" smooth="yes"/>
      <point x="142" y="418"/>
      <point x="138" y="420"/>
      <point x="138" y="490" type="curve" smooth="yes"/>
      <point x="138" y="560"/>
      <point x="141" y="562"/>
    </contour>
    <contour>
      <point x="500" y="345" type="curve" smooth="yes"/>
      <point x="392" y="345"/>
      <point x="356" y="295"/>
      <point x="356" y="167" type="curve" smooth="yes"/>
      <point x="356" y="39"/>
      <point x="389" y="-12"/>
      <point x="500" y="-12" type="curve" smooth="yes"/>
      <point x="612" y="-12"/>
      <point x="644" y="39"/>
      <point x="644" y="167" type="curve" smooth="yes"/>
      <point x="644" y="295"/>
      <point x="613" y="345"/>
    </contour>
    <contour>
      <point x="500" y="239" type="curve" smooth="yes"/>
      <point x="516" y="239"/>
      <point x="518" y="237"/>
      <point x="518" y="167" type="curve" smooth="yes"/>
      <point x="518" y="97"/>
      <point x="515" y="95"/>
      <point x="500" y="95" type="curve" smooth="yes"/>
      <point x="486" y="95"/>
      <point x="482" y="97"/>
      <point x="482" y="167" type="curve" smooth="yes"/>
      <point x="482" y="237"/>
      <point x="485" y="239"/>
    </contour>
    <contour>
      <point x="812" y="345" type="curve" smooth="yes"/>
      <point x="704" y="345"/>
      <point x="668" y="295"/>
      <point x="668" y="167" type="curve" smooth="yes"/>
      <point x="668" y="39"/>
      <point x="701" y="-12"/>
      <point x="812" y="-12" type="curve" smooth="yes"/>
      <point x="924" y="-12"/>
      <point x="956" y="39"/>
      <point x="956" y="167" type="curve" smooth="yes"/>
      <point x="956" y="295"/>
      <point x="925" y="345"/>
    </contour>
    <contour>
      <point x="812" y="239" type="curve" smooth="yes"/>
      <point x="828" y="239"/>
      <point x="830" y="237"/>
      <point x="830" y="167" type="curve" smooth="yes"/>
      <point x="830" y="97"/>
      <point x="827" y="95"/>
      <point x="812" y="95" type="curve" smooth="yes"/>
      <point x="798" y="95"/>
      <point x="794" y="97"/>
      <point x="794" y="167" type="curve" smooth="yes"/>
      <point x="794" y="237"/>
      <point x="797" y="239"/>
    </contour>
  </outline>
</glyph>
<glyph name="minute" format="2">
	<advance width="307"/>
	<unicode hex="2032"/>
	<outline>
		<contour>
			<point x="52" y="673" type="line"/>
			<point x="17" y="363" type="line"/>
			<point x="193" y="363" type="line"/>
			<point x="290" y="673" type="line"/>
		</contour>
	</outline>
</glyph>
<glyph name="second" format="2">
	<advance width="597"/>
	<unicode hex="2033"/>
	<outline>
		<contour>
			<point x="52" y="673" type="line"/>
			<point x="17" y="363" type="line"/>
			<point x="193" y="363" type="line"/>
			<point x="290" y="673" type="line"/>
		</contour>
		<contour>
			<point x="342" y="673" type="line"/>
			<point x="307" y="363" type="line"/>
			<point x="483" y="363" type="line"/>
			<point x="580" y="673" type="line"/>
		</contour>
	</outline>
</glyph>
<glyph name="guilsinglleft" format="2">
  <advance width="382"/>
  <unicode hex="2039"/>
  <outline>
    <contour>
      <point x="232" y="259" type="line"/>
      <point x="368" y="382" type="line"/>
      <point x="257" y="519" type="line"/>
      <point x="27" y="339" type="line"/>
      <point x="27" y="179" type="line"/>
      <point x="257" y="-1" type="line"/>
      <point x="368" y="136" type="line"/>
    </contour>
  </outline>
</glyph>
<glyph name="fraction" format="2">
	<advance width="80"/>
	<unicode hex="2044"/>
	<outline>
		<contour>
			<point x="118" y="752" type="line"/>
			<point x="-82" y="-43" type="line"/>
			<point x="-39" y="-51" type="line"/>
			<point x="162" y="743" type="line"/>
		</contour>
	</outline>
</glyph>
<glyph name="sheqel" format="2">
  <advance width="702"/>
  <unicode hex="20AA"/>
  <outline>
    <contour>
      <point x="141" y="665" type="line"/>
      <point x="141" y="515" type="line"/>
      <point x="279" y="515" type="line" smooth="yes"/>
      <point x="362" y="515"/>
      <point x="368" y="495"/>
      <point x="368" y="432" type="curve" smooth="yes"/>
      <point x="368" y="203" type="line"/>
      <point x="440" y="203" type="line"/>
      <point x="440" y="508" type="line" smooth="yes"/>
      <point x="440" y="625"/>
      <point x="420" y="665"/>
      <point x="343" y="665" type="curve" smooth="yes"/>
    </contour>
    <contour>
      <point x="40" y="665" type="line"/>
      <point x="40" y="0" type="line"/>
      <point x="230" y="0" type="line"/>
      <point x="230" y="665" type="line"/>
    </contour>
    <contour>
      <point x="282" y="0" type="line"/>
      <point x="545" y="0" type="line" smooth="yes"/>
      <point x="646" y="0"/>
      <point x="662" y="40"/>
      <point x="662" y="157" type="curve" smooth="yes"/>
      <point x="662" y="665" type="line"/>
      <point x="472" y="665" type="line"/>
      <point x="472" y="233" type="line" smooth="yes"/>
      <point x="472" y="171"/>
      <point x="466" y="150"/>
      <point x="383" y="150" type="curve" smooth="yes"/>
      <point x="282" y="150" type="line"/>
    </contour>
    <contour>
      <point x="334" y="0" type="line"/>
      <point x="334" y="462" type="line"/>
      <point x="262" y="462" type="line"/>
      <point x="262" y="0" type="line"/>
    </contour>
  </outline>
</glyph>
<glyph name="euro" format="2">
  <advance width="613"/>
  <unicode hex="20AC"/>
  <outline>
    <contour>
      <point x="32" y="433" type="line"/>
      <point x="32" y="359" type="line"/>
      <point x="93" y="359" type="line"/>
      <point x="93" y="355"/>
      <point x="93" y="345"/>
      <point x="93" y="330" type="curve" smooth="yes"/>
      <point x="93" y="318"/>
      <point x="93" y="302"/>
      <point x="93" y="302" type="curve"/>
      <point x="32" y="302" type="line"/>
      <point x="32" y="228" type="line"/>
      <point x="96" y="228" type="line"/>
      <point x="118" y="53"/>
      <point x="193" y="-12"/>
      <point x="377" y="-12" type="curve" smooth="yes"/>
      <point x="449" y="-12"/>
      <point x="546" y="-2"/>
      <point x="581" y="6" type="curve"/>
      <point x="578" y="158" type="line"/>
      <point x="540" y="156"/>
      <point x="490" y="152"/>
      <point x="423" y="152" type="curve" smooth="yes"/>
      <point x="338" y="152"/>
      <point x="314" y="165"/>
      <point x="314" y="228" type="curve"/>
      <point x="518" y="228" type="line"/>
      <point x="518" y="302" type="line"/>
      <point x="312" y="302" type="line"/>
      <point x="312" y="302"/>
      <point x="312" y="318"/>
      <point x="312" y="330" type="curve" smooth="yes"/>
      <point x="312" y="345"/>
      <point x="312" y="355"/>
      <point x="312" y="359" type="curve"/>
      <point x="518" y="359" type="line"/>
      <point x="518" y="433" type="line"/>
      <point x="314" y="433" type="line"/>
      <point x="314" y="500"/>
      <point x="336" y="513"/>
      <point x="419" y="513" type="curve" smooth="yes"/>
      <point x="452" y="513"/>
      <point x="534" y="511"/>
      <point x="578" y="508" type="curve"/>
      <point x="582" y="660" type="line"/>
      <point x="542" y="670"/>
      <point x="438" y="677"/>
      <point x="375" y="677" type="curve" smooth="yes"/>
      <point x="190" y="677"/>
      <point x="114" y="617"/>
      <point x="94" y="433" type="curve"/>
    </contour>
  </outline>
</glyph>
<glyph name="hryvnia" format="2">
  <advance width="672"/>
  <unicode hex="20B4"/>
  <outline>
    <contour>
      <point x="576" y="433" type="line"/>
      <point x="585" y="443"/>
      <point x="589" y="458"/>
      <point x="589" y="479" type="curve" smooth="yes"/>
      <point x="589" y="631"/>
      <point x="491" y="677"/>
      <point x="321" y="677" type="curve" smooth="yes"/>
      <point x="215" y="677"/>
      <point x="99" y="659"/>
      <point x="99" y="659" type="curve"/>
      <point x="114" y="512" type="line"/>
      <point x="114" y="512"/>
      <point x="238" y="519"/>
      <point x="286" y="519" type="curve" smooth="yes"/>
      <point x="365" y="519"/>
      <point x="376" y="497"/>
      <point x="376" y="475" type="curve" smooth="yes"/>
      <point x="376" y="461"/>
      <point x="369" y="447"/>
      <point x="358" y="433" type="curve"/>
    </contour>
    <contour>
      <point x="642" y="443" type="line"/>
      <point x="29" y="443" type="line"/>
      <point x="29" y="366" type="line"/>
      <point x="642" y="366" type="line"/>
    </contour>
    <contour>
      <point x="642" y="324" type="line"/>
      <point x="29" y="324" type="line"/>
      <point x="29" y="247" type="line"/>
      <point x="642" y="247" type="line"/>
    </contour>
    <contour>
      <point x="108" y="261" type="line"/>
      <point x="103" y="250"/>
      <point x="90" y="223"/>
      <point x="90" y="176" type="curve" smooth="yes"/>
      <point x="90" y="39"/>
      <point x="201" y="-10"/>
      <point x="369" y="-10" type="curve" smooth="yes"/>
      <point x="500" y="-10"/>
      <point x="602" y="19"/>
      <point x="602" y="19" type="curve"/>
      <point x="583" y="178" type="line"/>
      <point x="583" y="178"/>
      <point x="481" y="171"/>
      <point x="418" y="171" type="curve" smooth="yes"/>
      <point x="339" y="171"/>
      <point x="310" y="178"/>
      <point x="310" y="214" type="curve" smooth="yes"/>
      <point x="310" y="235"/>
      <point x="319" y="247"/>
      <point x="338" y="261" type="curve"/>
    </contour>
  </outline>
</glyph>
<glyph name="rupeeIndian" format="2">
	<advance width="658"/>
	<unicode hex="20B9"/>
	<outline>
		<contour>
			<point x="31" y="665" type="line"/>
			<point x="31" y="513" type="line"/>
			<point x="226" y="513" type="line" smooth="yes"/>
			<point x="291" y="513"/>
			<point x="323" y="498"/>
			<point x="323" y="423" type="curve" smooth="yes"/>
			<point x="323" y="351"/>
			<point x="291" y="316"/>
			<point x="226" y="316" type="curve" smooth="yes"/>
			<point x="31" y="316" type="line"/>
			<point x="31" y="190" type="line"/>
			<point x="227" y="190" type="line" smooth="yes"/>
			<point x="468" y="190"/>
			<point x="545" y="253"/>
			<point x="545" y="423" type="curve" smooth="yes"/>
			<point x="545" y="546"/>
			<point x="468" y="665"/>
			<point x="227" y="665" type="curve" smooth="yes"/>
		</contour>
		<contour>
			<point x="634" y="452" type="line"/>
			<point x="31" y="452" type="line"/>
			<point x="31" y="378" type="line"/>
			<point x="634" y="378" type="line"/>
		</contour>
		<contour>
			<point x="634" y="665" type="line"/>
			<point x="93" y="665" type="line"/>
			<point x="93" y="515" type="line"/>
			<point x="634" y="515" type="line"/>
		</contour>
		<contour>
			<point x="620" y="0" type="line"/>
			<point x="320" y="200" type="line"/>
			<point x="31" y="190" type="line"/>
			<point x="310" y="0" type="line"/>
		</contour>
	</outline>
</glyph>
<glyph name="ruble" format="2">
  <advance width="650"/>
  <unicode hex="20BD"/>
  <outline>
    <contour>
      <point x="315" y="224" type="line"/>
      <point x="384" y="224" type="line" smooth="yes"/>
      <point x="535" y="224"/>
      <point x="632" y="278"/>
      <point x="632" y="446" type="curve" smooth="yes"/>
      <point x="632" y="589"/>
      <point x="564" y="665"/>
      <point x="384" y="665" type="curve" smooth="yes"/>
      <point x="98" y="665" type="line"/>
      <point x="98" y="0" type="line"/>
      <point x="315" y="0" type="line"/>
    </contour>
    <contour>
      <point x="363" y="370" type="curve" smooth="yes"/>
      <point x="315" y="370" type="line"/>
      <point x="315" y="492" type="line"/>
      <point x="363" y="492" type="line" smooth="yes"/>
      <point x="396" y="492"/>
      <point x="411" y="472"/>
      <point x="411" y="434" type="curve" smooth="yes"/>
      <point x="411" y="393"/>
      <point x="396" y="370"/>
    </contour>
    <contour>
      <point x="291" y="367" type="line"/>
      <point x="30" y="365" type="line"/>
      <point x="30" y="225" type="line"/>
      <point x="291" y="225" type="line"/>
    </contour>
    <contour>
      <point x="431" y="163" type="line"/>
      <point x="30" y="163" type="line"/>
      <point x="30" y="89" type="line"/>
      <point x="431" y="89" type="line"/>
    </contour>
  </outline>
</glyph>
<glyph name="trademark" format="2">
	<advance width="666"/>
	<unicode hex="2122"/>
	<outline>
		<contour>
			<point x="14" y="700" type="line"/>
			<point x="14" y="620" type="line"/>
			<point x="85" y="620" type="line"/>
			<point x="85" y="388" type="line"/>
			<point x="193" y="388" type="line"/>
			<point x="193" y="620" type="line"/>
			<point x="244" y="620" type="line"/>
			<point x="244" y="700" type="line"/>
		</contour>
		<contour>
			<point x="268" y="700" type="line"/>
			<point x="268" y="387" type="line"/>
			<point x="370" y="387" type="line"/>
			<point x="370" y="606" type="line"/>
			<point x="380" y="606" type="line"/>
			<point x="405" y="408" type="line"/>
			<point x="494" y="408" type="line"/>
			<point x="518" y="606" type="line"/>
			<point x="528" y="606" type="line"/>
			<point x="528" y="387" type="line"/>
			<point x="631" y="387" type="line"/>
			<point x="631" y="700" type="line"/>
			<point x="478" y="700" type="line"/>
			<point x="450" y="531" type="line"/>
			<point x="433" y="700" type="line"/>
		</contour>
	</outline>
</glyph>
<glyph name="upArrow" format="2">
	<advance width="740"/>
	<unicode hex="2191"/>
	<outline>
		<contour>
			<point x="255" y="0" type="line"/>
			<point x="485" y="0" type="line"/>
			<point x="485" y="244" type="line"/>
			<point x="467" y="449" type="line"/>
			<point x="443" y="426" type="line"/>
			<point x="591" y="257" type="line"/>
			<point x="722" y="388" type="line"/>
			<point x="370" y="739" type="line"/>
			<point x="18" y="388" type="line"/>
			<point x="149" y="257" type="line"/>
			<point x="297" y="426" type="line"/>
			<point x="273" y="449" type="line"/>
			<point x="255" y="244" type="line"/>
		</contour>
	</outline>
</glyph>
<glyph name="leftRightArrow" format="2">
  <advance width="1110"/>
  <unicode hex="2194"/>
  <outline>
    <contour>
      <point x="733" y="-27" type="line"/>
      <point x="1084" y="325" type="line"/>
      <point x="733" y="677" type="line"/>
      <point x="602" y="546" type="line"/>
      <point x="735" y="428" type="line"/>
      <point x="555" y="422" type="line"/>
      <point x="375" y="428" type="line"/>
      <point x="508" y="546" type="line"/>
      <point x="377" y="677" type="line"/>
      <point x="26" y="325" type="line"/>
      <point x="377" y="-27" type="line"/>
      <point x="508" y="104" type="line"/>
      <point x="375" y="222" type="line"/>
      <point x="555" y="228" type="line"/>
      <point x="735" y="222" type="line"/>
      <point x="602" y="104" type="line"/>
    </contour>
  </outline>
</glyph>
<glyph name="upDownArrow" format="2">
  <advance width="746"/>
  <unicode hex="2195"/>
  <outline>
    <contour>
      <point x="21" y="147" type="line"/>
      <point x="373" y="-204" type="line"/>
      <point x="725" y="147" type="line"/>
      <point x="594" y="278" type="line"/>
      <point x="476" y="145" type="line"/>
      <point x="470" y="325" type="line"/>
      <point x="476" y="505" type="line"/>
      <point x="594" y="372" type="line"/>
      <point x="725" y="503" type="line"/>
      <point x="373" y="854" type="line"/>
      <point x="21" y="503" type="line"/>
      <point x="152" y="372" type="line"/>
      <point x="270" y="505" type="line"/>
      <point x="276" y="325" type="line"/>
      <point x="270" y="145" type="line"/>
      <point x="152" y="278" type="line"/>
    </contour>
  </outline>
</glyph>
<glyph name="increment" format="2">
  <advance width="606"/>
  <unicode hex="2206"/>
  <outline>
    <contour>
      <point x="161" y="673" type="line"/>
      <point x="17" y="162" type="line"/>
      <point x="17" y="0" type="line"/>
      <point x="589" y="0" type="line"/>
      <point x="589" y="162" type="line"/>
      <point x="445" y="673" type="line"/>
    </contour>
    <contour>
      <point x="293" y="512" type="line"/>
      <point x="314" y="512" type="line"/>
      <point x="396" y="178" type="line"/>
      <point x="210" y="178" type="line"/>
    </contour>
  </outline>
</glyph>
<glyph name="product" format="2">
	<advance width="586"/>
	<unicode hex="220F"/>
	<outline>
		<contour>
			<point x="325" y="575" type="line"/>
			<point x="325" y="-200" type="line"/>
			<point x="514" y="-200" type="line"/>
			<point x="514" y="575" type="line"/>
			<point x="563" y="575" type="line"/>
			<point x="563" y="750" type="line"/>
			<point x="23" y="750" type="line"/>
			<point x="23" y="575" type="line"/>
			<point x="69" y="575" type="line"/>
			<point x="69" y="-200" type="line"/>
			<point x="259" y="-200" type="line"/>
			<point x="259" y="575" type="line"/>
		</contour>
	</outline>
</glyph>
<glyph name="summation" format="2">
  <advance width="595"/>
  <unicode hex="2211"/>
  <outline>
    <contour>
      <point x="29" y="576" type="line"/>
      <point x="264" y="290" type="line"/>
      <point x="19" y="-30" type="line"/>
      <point x="19" y="-200" type="line"/>
      <point x="569" y="-200" type="line"/>
      <point x="569" y="0" type="line"/>
      <point x="278" y="0" type="line"/>
      <point x="278" y="20" type="line"/>
      <point x="474" y="239" type="line"/>
      <point x="474" y="346" type="line"/>
      <point x="300" y="530" type="line"/>
      <point x="300" y="550" type="line"/>
      <point x="569" y="550" type="line"/>
      <point x="569" y="750" type="line"/>
      <point x="29" y="750" type="line"/>
    </contour>
  </outline>
</glyph>
<glyph name="minus" format="2">
  <advance width="560"/>
  <unicode hex="2212"/>
  <outline>
    <contour>
      <point x="67" y="374" type="line"/>
      <point x="67" y="194" type="line"/>
      <point x="493" y="194" type="line"/>
      <point x="493" y="374" type="line"/>
    </contour>
  </outline>
</glyph>
<glyph name="radical" format="2">
  <advance width="738"/>
  <unicode hex="221A"/>
  <outline>
    <contour>
      <point x="30" y="448" type="line"/>
      <point x="30" y="264" type="line"/>
      <point x="130" y="264" type="line"/>
      <point x="219" y="-200" type="line"/>
      <point x="572" y="-200" type="line"/>
      <point x="728" y="750" type="line"/>
      <point x="508" y="750" type="line"/>
      <point x="404" y="13" type="line"/>
      <point x="384" y="13" type="line"/>
      <point x="319" y="448" type="line"/>
    </contour>
  </outline>
</glyph>
<glyph name="infinity" format="2">
  <advance width="683"/>
  <unicode hex="221E"/>
  <outline>
    <contour>
      <point x="192" y="69" type="curve" smooth="yes"/>
      <point x="260" y="69"/>
      <point x="318" y="104"/>
      <point x="341" y="159" type="curve"/>
      <point x="364" y="104"/>
      <point x="421" y="69"/>
      <point x="488" y="69" type="curve" smooth="yes"/>
      <point x="608" y="69"/>
      <point x="654" y="142"/>
      <point x="654" y="284" type="curve" smooth="yes"/>
      <point x="654" y="427"/>
      <point x="608" y="500"/>
      <point x="490" y="500" type="curve" smooth="yes"/>
      <point x="421" y="500"/>
      <point x="365" y="465"/>
      <point x="341" y="409" type="curve"/>
      <point x="318" y="465"/>
      <point x="260" y="500"/>
      <point x="192" y="500" type="curve" smooth="yes"/>
      <point x="74" y="500"/>
      <point x="29" y="427"/>
      <point x="29" y="284" type="curve" smooth="yes"/>
      <point x="29" y="142"/>
      <point x="74" y="69"/>
    </contour>
    <contour>
      <point x="292" y="284" type="curve"/>
      <point x="263" y="219"/>
      <point x="248" y="209"/>
      <point x="213" y="209" type="curve" smooth="yes"/>
      <point x="184" y="209"/>
      <point x="157" y="229"/>
      <point x="157" y="284" type="curve" smooth="yes"/>
      <point x="157" y="339"/>
      <point x="184" y="359"/>
      <point x="213" y="359" type="curve" smooth="yes"/>
      <point x="248" y="359"/>
      <point x="263" y="349"/>
    </contour>
    <contour>
      <point x="391" y="284" type="curve"/>
      <point x="421" y="349"/>
      <point x="439" y="359"/>
      <point x="473" y="359" type="curve" smooth="yes"/>
      <point x="504" y="359"/>
      <point x="526" y="339"/>
      <point x="526" y="284" type="curve" smooth="yes"/>
      <point x="526" y="229"/>
      <point x="503" y="209"/>
      <point x="473" y="209" type="curve" smooth="yes"/>
      <point x="439" y="209"/>
      <point x="421" y="219"/>
    </contour>
  </outline>
</glyph>
<glyph name="integral" format="2">
  <advance width="394"/>
  <unicode hex="222B"/>
  <outline>
    <contour>
      <point x="91" y="576" type="curve" smooth="yes"/>
      <point x="91" y="-11" type="line" smooth="yes"/>
      <point x="90" y="-40"/>
      <point x="70" y="-51"/>
      <point x="10" y="-51" type="curve"/>
      <point x="10" y="-198" type="line"/>
      <point x="10" y="-198"/>
      <point x="106" y="-210"/>
      <point x="138" y="-210" type="curve" smooth="yes"/>
      <point x="268" y="-210"/>
      <point x="303" y="-164"/>
      <point x="304" y="-31" type="curve" smooth="yes"/>
      <point x="304" y="560" type="line" smooth="yes"/>
      <point x="304" y="589"/>
      <point x="312" y="596"/>
      <point x="384" y="596" type="curve"/>
      <point x="384" y="743" type="line"/>
      <point x="384" y="743"/>
      <point x="288" y="755"/>
      <point x="256" y="755" type="curve" smooth="yes"/>
      <point x="126" y="755"/>
      <point x="91" y="709"/>
    </contour>
  </outline>
</glyph>
<glyph name="greaterequal" format="2">
	<advance width="560"/>
	<unicode hex="2265"/>
	<outline>
		<contour>
			<point x="318" y="384" type="line"/>
			<point x="73" y="353" type="line"/>
			<point x="73" y="193" type="line"/>
			<point x="489" y="290" type="line"/>
			<point x="489" y="478" type="line"/>
			<point x="73" y="575" type="line"/>
			<point x="73" y="415" type="line"/>
		</contour>
		<contour>
			<point x="489" y="0" type="line"/>
			<point x="489" y="164" type="line"/>
			<point x="73" y="164" type="line"/>
			<point x="73" y="0" type="line"/>
		</contour>
	</outline>
</glyph>
<glyph name="lozenge" format="2">
  <advance width="624"/>
  <unicode hex="25CA"/>
  <outline>
    <contour>
      <point x="26" y="329" type="line"/>
      <point x="195" y="0" type="line"/>
      <point x="430" y="0" type="line"/>
      <point x="598" y="329" type="line"/>
      <point x="430" y="673" type="line"/>
      <point x="195" y="673" type="line"/>
    </contour>
    <contour>
      <point x="385" y="329" type="line"/>
      <point x="321" y="174" type="line"/>
      <point x="304" y="174" type="line"/>
      <point x="239" y="329" type="line"/>
      <point x="304" y="499" type="line"/>
      <point x="321" y="499" type="line"/>
    </contour>
  </outline>
</glyph>
<glyph name="whiteCircle" format="2">
  <advance width="853"/>
  <unicode hex="25CB"/>
  <outline>
    <contour>
      <point x="427" y="-40" type="curve" smooth="yes"/>
      <point x="652" y="-40"/>
      <point x="823" y="130"/>
      <point x="823" y="349" type="curve" smooth="yes"/>
      <point x="823" y="568"/>
      <point x="652" y="740"/>
      <point x="427" y="740" type="curve" smooth="yes"/>
      <point x="200" y="740"/>
      <point x="30" y="568"/>
      <point x="30" y="349" type="curve" smooth="yes"/>
      <point x="30" y="130"/>
      <point x="200" y="-40"/>
    </contour>
    <contour>
      <point x="427" y="-1" type="curve" smooth="yes"/>
      <point x="221" y="-1"/>
      <point x="70" y="151"/>
      <point x="70" y="349" type="curve" smooth="yes"/>
      <point x="70" y="547"/>
      <point x="221" y="701"/>
      <point x="427" y="701" type="curve" smooth="yes"/>
      <point x="631" y="701"/>
      <point x="783" y="547"/>
      <point x="783" y="349" type="curve" smooth="yes"/>
      <point x="783" y="151"/>
      <point x="631" y="-1"/>
    </contour>
  </outline>
</glyph>
<glyph name="dottedCircle" format="2">
  <advance width="839"/>
  <unicode hex="25CC"/>
  <outline>
    <contour>
      <point x="570" y="670" type="curve"/>
      <point x="585" y="706" type="line"/>
      <point x="540" y="726"/>
      <point x="490" y="738"/>
      <point x="437" y="740" type="curve"/>
      <point x="437" y="701" type="line"/>
      <point x="485" y="699"/>
      <point x="530" y="688"/>
    </contour>
    <contour>
      <point x="755" y="472" type="curve"/>
      <point x="791" y="488" type="line"/>
      <point x="773" y="537"/>
      <point x="745" y="582"/>
      <point x="710" y="619" type="curve"/>
      <point x="682" y="591" type="line"/>
      <point x="714" y="557"/>
      <point x="739" y="517"/>
    </contour>
    <contour>
      <point x="745" y="201" type="curve"/>
      <point x="781" y="185" type="line"/>
      <point x="802" y="231"/>
      <point x="814" y="282"/>
      <point x="816" y="336" type="curve"/>
      <point x="776" y="336" type="line"/>
      <point x="774" y="287"/>
      <point x="763" y="242"/>
    </contour>
    <contour>
      <point x="542" y="18" type="curve"/>
      <point x="557" y="-17" type="line"/>
      <point x="607" y="0"/>
      <point x="652" y="27"/>
      <point x="690" y="61" type="curve"/>
      <point x="662" y="88" type="line"/>
      <point x="628" y="57"/>
      <point x="587" y="34"/>
    </contour>
    <contour>
      <point x="271" y="28" type="curve"/>
      <point x="256" y="-8" type="line"/>
      <point x="301" y="-27"/>
      <point x="351" y="-38"/>
      <point x="405" y="-40" type="curve"/>
      <point x="406" y="-1" type="line"/>
      <point x="357" y="1"/>
      <point x="312" y="11"/>
    </contour>
    <contour>
      <point x="83" y="227" type="curve"/>
      <point x="47" y="213" type="line"/>
      <point x="65" y="162"/>
      <point x="93" y="118"/>
      <point x="129" y="80" type="curve"/>
      <point x="156" y="107" type="line"/>
      <point x="124" y="141"/>
      <point x="99" y="182"/>
    </contour>
    <contour>
      <point x="96" y="503" type="curve"/>
      <point x="60" y="518" type="line"/>
      <point x="38" y="472"/>
      <point x="25" y="420"/>
      <point x="23" y="366" type="curve"/>
      <point x="63" y="366" type="line"/>
      <point x="65" y="415"/>
      <point x="77" y="461"/>
    </contour>
    <contour>
      <point x="301" y="682" type="curve"/>
      <point x="286" y="719" type="line"/>
      <point x="236" y="702"/>
      <point x="190" y="675"/>
      <point x="152" y="641" type="curve"/>
      <point x="180" y="614" type="line"/>
      <point x="214" y="644"/>
      <point x="255" y="667"/>
    </contour>
  </outline>
</glyph>
<glyph name="blackCircle" format="2">
	<advance width="853"/>
	<unicode hex="25CF"/>
	<outline>
		<contour>
			<point x="427" y="-40" type="curve" smooth="yes"/>
			<point x="200" y="-40"/>
			<point x="30" y="130"/>
			<point x="30" y="349" type="curve" smooth="yes"/>
			<point x="30" y="568"/>
			<point x="200" y="740"/>
			<point x="427" y="740" type="curve" smooth="yes"/>
			<point x="652" y="740"/>
			<point x="823" y="568"/>
			<point x="823" y="349" type="curve" smooth="yes"/>
			<point x="823" y="130"/>
			<point x="652" y="-40"/>
		</contour>
	</outline>
</glyph>
<glyph name="A.ss06" format="2">
  <advance width="1222"/>
  <note>
A
</note>
  <outline>
    <contour>
      <point x="44" y="904" type="line"/>
      <point x="1178" y="904" type="line"/>
      <point x="1178" y="-230" type="line"/>
      <point x="44" y="-230" type="line"/>
    </contour>
    <contour>
      <point x="623" y="518" type="line"/>
      <point x="659" y="284" type="line"/>
      <point x="560" y="284" type="line"/>
      <point x="598" y="518" type="line"/>
    </contour>
    <contour>
      <point x="286" y="0" type="line"/>
      <point x="514" y="0" type="line"/>
      <point x="530" y="107" type="line"/>
      <point x="683" y="107" type="line"/>
      <point x="702" y="0" type="line"/>
      <point x="936" y="0" type="line"/>
      <point x="785" y="700" type="line"/>
      <point x="434" y="700" type="line"/>
    </contour>
  </outline>
</glyph>
<glyph name="B.ss06" format="2">
	<advance width="1222"/>
	<note>
		B
	</note>
	<outline>
		<contour>
			<point x="44" y="904" type="line"/>
			<point x="1178" y="904" type="line"/>
			<point x="1178" y="-230" type="line"/>
			<point x="44" y="-230" type="line"/>
		</contour>
		<contour>
			<point x="681" y="700" type="curve" smooth="yes"/>
			<point x="344" y="700" type="line"/>
			<point x="344" y="0" type="line"/>
			<point x="681" y="0" type="line" smooth="yes"/>
			<point x="819" y="0"/>
			<point x="921" y="49"/>
			<point x="921" y="198" type="curve" smooth="yes"/>
			<point x="921" y="295"/>
			<point x="878" y="339"/>
			<point x="817" y="358" type="curve"/>
			<point x="878" y="394"/>
			<point x="902" y="440"/>
			<point x="902" y="515" type="curve" smooth="yes"/>
			<point x="902" y="648"/>
			<point x="819" y="700"/>
		</contour>
		<contour>
			<point x="576" y="278" type="line"/>
			<point x="619" y="278" type="line" smooth="yes"/>
			<point x="664" y="278"/>
			<point x="679" y="264"/>
			<point x="679" y="214" type="curve" smooth="yes"/>
			<point x="679" y="165"/>
			<point x="665" y="154"/>
			<point x="619" y="154" type="curve" smooth="yes"/>
			<point x="576" y="154" type="line"/>
		</contour>
		<contour>
			<point x="576" y="548" type="line"/>
			<point x="619" y="548" type="line" smooth="yes"/>
			<point x="657" y="548"/>
			<point x="672" y="534"/>
			<point x="672" y="483" type="curve" smooth="yes"/>
			<point x="672" y="437"/>
			<point x="659" y="424"/>
			<point x="619" y="424" type="curve" smooth="yes"/>
			<point x="576" y="424" type="line"/>
		</contour>
	</outline>
</glyph>
<glyph name="C.ss06" format="2">
	<advance width="1222"/>
	<note>
		C
	</note>
	<outline>
		<contour>
			<point x="44" y="904" type="line"/>
			<point x="1178" y="904" type="line"/>
			<point x="1178" y="-230" type="line"/>
			<point x="44" y="-230" type="line"/>
		</contour>
		<contour>
			<point x="856" y="13" type="curve"/>
			<point x="853" y="189" type="line"/>
			<point x="853" y="189"/>
			<point x="762" y="183"/>
			<point x="706" y="183" type="curve" smooth="yes"/>
			<point x="601" y="183"/>
			<point x="581" y="202"/>
			<point x="581" y="347" type="curve" smooth="yes"/>
			<point x="581" y="501"/>
			<point x="600" y="519"/>
			<point x="694" y="519" type="curve" smooth="yes"/>
			<point x="762" y="519"/>
			<point x="850" y="509"/>
			<point x="850" y="509" type="curve"/>
			<point x="856" y="688" type="line"/>
			<point x="856" y="688"/>
			<point x="738" y="715"/>
			<point x="623" y="715" type="curve" smooth="yes"/>
			<point x="431" y="715"/>
			<point x="345" y="633"/>
			<point x="345" y="347" type="curve" smooth="yes"/>
			<point x="345" y="65"/>
			<point x="423" y="-13"/>
			<point x="633" y="-13" type="curve" smooth="yes"/>
			<point x="752" y="-13"/>
			<point x="856" y="13"/>
		</contour>
	</outline>
</glyph>
<glyph name="D.ss06" format="2">
	<advance width="1222"/>
	<note>
		D
	</note>
	<outline>
		<contour>
			<point x="44" y="904" type="line"/>
			<point x="1178" y="904" type="line"/>
			<point x="1178" y="-230" type="line"/>
			<point x="44" y="-230" type="line"/>
		</contour>
		<contour>
			<point x="332" y="0" type="line"/>
			<point x="665" y="0" type="line" smooth="yes"/>
			<point x="878" y="0"/>
			<point x="932" y="124"/>
			<point x="932" y="355" type="curve" smooth="yes"/>
			<point x="932" y="600"/>
			<point x="868" y="700"/>
			<point x="655" y="700" type="curve" smooth="yes"/>
			<point x="332" y="700" type="line"/>
		</contour>
		<contour>
			<point x="696" y="355" type="curve" smooth="yes"/>
			<point x="696" y="220"/>
			<point x="680" y="189"/>
			<point x="617" y="189" type="curve" smooth="yes"/>
			<point x="564" y="189" type="line"/>
			<point x="564" y="511" type="line"/>
			<point x="617" y="511" type="line" smooth="yes"/>
			<point x="680" y="511"/>
			<point x="696" y="486"/>
		</contour>
	</outline>
</glyph>
<glyph name="E.ss06" format="2">
  <advance width="1222"/>
  <note>
E
</note>
  <outline>
    <contour>
      <point x="44" y="904" type="line"/>
      <point x="1178" y="904" type="line"/>
      <point x="1178" y="-230" type="line"/>
      <point x="44" y="-230" type="line"/>
    </contour>
    <contour>
      <point x="368" y="700" type="line"/>
      <point x="368" y="0" type="line"/>
      <point x="870" y="0" type="line"/>
      <point x="870" y="185" type="line"/>
      <point x="600" y="185" type="line"/>
      <point x="600" y="266" type="line"/>
      <point x="810" y="266" type="line"/>
      <point x="810" y="436" type="line"/>
      <point x="600" y="436" type="line"/>
      <point x="600" y="515" type="line"/>
      <point x="870" y="515" type="line"/>
      <point x="870" y="700" type="line"/>
    </contour>
  </outline>
</glyph>
<glyph name="F.ss06" format="2">
  <advance width="1222"/>
  <note>
F
</note>
  <outline>
    <contour>
      <point x="44" y="904" type="line"/>
      <point x="1178" y="904" type="line"/>
      <point x="1178" y="-230" type="line"/>
      <point x="44" y="-230" type="line"/>
    </contour>
    <contour>
      <point x="384" y="700" type="line"/>
      <point x="384" y="0" type="line"/>
      <point x="616" y="0" type="line"/>
      <point x="616" y="223" type="line"/>
      <point x="807" y="223" type="line"/>
      <point x="807" y="403" type="line"/>
      <point x="616" y="403" type="line"/>
      <point x="616" y="515" type="line"/>
      <point x="867" y="515" type="line"/>
      <point x="867" y="700" type="line"/>
    </contour>
  </outline>
</glyph>
<glyph name="G.ss06" format="2">
  <advance width="1222"/>
  <note>
G
</note>
  <outline>
    <contour>
      <point x="44" y="904" type="line"/>
      <point x="1178" y="904" type="line"/>
      <point x="1178" y="-230" type="line"/>
      <point x="44" y="-230" type="line"/>
    </contour>
    <contour>
      <point x="635" y="399" type="line"/>
      <point x="636" y="237" type="line"/>
      <point x="676" y="237" type="line"/>
      <point x="676" y="182" type="line"/>
      <point x="676" y="182"/>
      <point x="655" y="181"/>
      <point x="642" y="181" type="curve" smooth="yes"/>
      <point x="569" y="181"/>
      <point x="551" y="219"/>
      <point x="551" y="344" type="curve" smooth="yes"/>
      <point x="551" y="473"/>
      <point x="559" y="519"/>
      <point x="650" y="519" type="curve" smooth="yes"/>
      <point x="733" y="519"/>
      <point x="887" y="506"/>
      <point x="887" y="506" type="curve"/>
      <point x="887" y="681" type="line"/>
      <point x="887" y="681"/>
      <point x="727" y="715"/>
      <point x="612" y="715" type="curve" smooth="yes"/>
      <point x="387" y="715"/>
      <point x="315" y="629"/>
      <point x="315" y="336" type="curve" smooth="yes"/>
      <point x="315" y="94"/>
      <point x="377" y="-13"/>
      <point x="596" y="-13" type="curve" smooth="yes"/>
      <point x="711" y="-13"/>
      <point x="892" y="16"/>
      <point x="892" y="16" type="curve"/>
      <point x="892" y="399" type="line"/>
    </contour>
  </outline>
</glyph>
<glyph name="H.ss06" format="2">
  <advance width="1222"/>
  <note>
H
</note>
  <outline>
    <contour>
      <point x="44" y="904" type="line"/>
      <point x="1178" y="904" type="line"/>
      <point x="1178" y="-230" type="line"/>
      <point x="44" y="-230" type="line"/>
    </contour>
    <contour>
      <point x="682" y="257" type="line"/>
      <point x="682" y="0" type="line"/>
      <point x="914" y="0" type="line"/>
      <point x="914" y="700" type="line"/>
      <point x="682" y="700" type="line"/>
      <point x="682" y="447" type="line"/>
      <point x="539" y="447" type="line"/>
      <point x="539" y="700" type="line"/>
      <point x="307" y="700" type="line"/>
      <point x="307" y="0" type="line"/>
      <point x="539" y="0" type="line"/>
      <point x="539" y="257" type="line"/>
    </contour>
  </outline>
</glyph>
<glyph name="J.ss06" format="2">
	<advance width="1222"/>
	<note>
		J
	</note>
	<outline>
		<contour>
			<point x="44" y="904" type="line"/>
			<point x="1178" y="904" type="line"/>
			<point x="1178" y="-230" type="line"/>
			<point x="44" y="-230" type="line"/>
		</contour>
		<contour>
			<point x="763" y="183" type="curve" smooth="yes"/>
			<point x="763" y="700" type="line"/>
			<point x="531" y="700" type="line"/>
			<point x="531" y="268" type="line" smooth="yes"/>
			<point x="531" y="187"/>
			<point x="527" y="184"/>
			<point x="474" y="184" type="curve"/>
			<point x="474" y="-7" type="line"/>
			<point x="707" y="-7"/>
			<point x="763" y="25"/>
		</contour>
	</outline>
</glyph>
<glyph name="K.ss06" format="2">
	<advance width="1222"/>
	<note>
		K
	</note>
	<outline>
		<contour>
			<point x="44" y="904" type="line"/>
			<point x="1178" y="904" type="line"/>
			<point x="1178" y="-230" type="line"/>
			<point x="44" y="-230" type="line"/>
		</contour>
		<contour>
			<point x="616" y="241" type="line"/>
			<point x="689" y="0" type="line"/>
			<point x="930" y="0" type="line"/>
			<point x="813" y="364" type="line"/>
			<point x="920" y="700" type="line"/>
			<point x="690" y="700" type="line"/>
			<point x="615" y="451" type="line"/>
			<point x="575" y="451" type="line"/>
			<point x="575" y="700" type="line"/>
			<point x="343" y="700" type="line"/>
			<point x="343" y="0" type="line"/>
			<point x="575" y="0" type="line"/>
			<point x="575" y="241" type="line"/>
		</contour>
	</outline>
</glyph>
<glyph name="L.ss06" format="2">
  <advance width="1222"/>
  <note>
L
</note>
  <outline>
    <contour>
      <point x="44" y="904" type="line"/>
      <point x="1178" y="904" type="line"/>
      <point x="1178" y="-230" type="line"/>
      <point x="44" y="-230" type="line"/>
    </contour>
    <contour>
      <point x="398" y="0" type="line"/>
      <point x="848" y="0" type="line"/>
      <point x="848" y="190" type="line"/>
      <point x="630" y="190" type="line"/>
      <point x="630" y="700" type="line"/>
      <point x="398" y="700" type="line"/>
    </contour>
  </outline>
</glyph>
<glyph name="Lslashcomb" format="2">
  <advance width="346"/>
  <anchor x="142" y="350" name="_center"/>
  <outline>
    <contour>
      <point x="142" y="301" type="line"/>
      <point x="142" y="405" type="line"/>
      <point x="0" y="356" type="line"/>
      <point x="0" y="251" type="line"/>
    </contour>
    <contour>
      <point x="152" y="396" type="line"/>
      <point x="152" y="290" type="line"/>
      <point x="346" y="358" type="line"/>
      <point x="346" y="463" type="line"/>
    </contour>
  </outline>
</glyph>
<glyph name="M.ss03" format="2">
	<advance width="1256"/>
	<note>
		M
	</note>
	<outline>
		<contour>
			<point x="230" y="700" type="line"/>
			<point x="230" y="0" type="line"/>
			<point x="452" y="0" type="line"/>
			<point x="452" y="375" type="line"/>
			<point x="477" y="375" type="line"/>
			<point x="538" y="0" type="line"/>
			<point x="716" y="0" type="line"/>
			<point x="778" y="375" type="line"/>
			<point x="803" y="375" type="line"/>
			<point x="803" y="0" type="line"/>
			<point x="1025" y="0" type="line"/>
			<point x="1025" y="700" type="line"/>
			<point x="684" y="700" type="line"/>
			<point x="620" y="310" type="line"/>
			<point x="634" y="310" type="line"/>
			<point x="569" y="700" type="line"/>
		</contour>
		<component base="_sferiliumstroke" xOffset="-2"/>
	</outline>
</glyph>
<glyph name="M.ss06" format="2">
	<advance width="1222"/>
	<note>
		M
	</note>
	<outline>
		<contour>
			<point x="44" y="904" type="line"/>
			<point x="1178" y="904" type="line"/>
			<point x="1178" y="-230" type="line"/>
			<point x="44" y="-230" type="line"/>
		</contour>
		<contour>
			<point x="213" y="700" type="line"/>
			<point x="213" y="0" type="line"/>
			<point x="435" y="0" type="line"/>
			<point x="435" y="375" type="line"/>
			<point x="460" y="375" type="line"/>
			<point x="521" y="0" type="line"/>
			<point x="699" y="0" type="line"/>
			<point x="761" y="375" type="line"/>
			<point x="786" y="375" type="line"/>
			<point x="786" y="0" type="line"/>
			<point x="1008" y="0" type="line"/>
			<point x="1008" y="700" type="line"/>
			<point x="667" y="700" type="line"/>
			<point x="610" y="354" type="line"/>
			<point x="552" y="700" type="line"/>
		</contour>
	</outline>
</glyph>
<glyph name="N.ss06" format="2">
  <advance width="1222"/>
  <note>
N
</note>
  <outline>
    <contour>
      <point x="44" y="904" type="line"/>
      <point x="1178" y="904" type="line"/>
      <point x="1178" y="-230" type="line"/>
      <point x="44" y="-230" type="line"/>
    </contour>
    <contour>
      <point x="286" y="700" type="line"/>
      <point x="286" y="0" type="line"/>
      <point x="518" y="0" type="line"/>
      <point x="518" y="303" type="line"/>
      <point x="543" y="303" type="line"/>
      <point x="715" y="0" type="line"/>
      <point x="935" y="0" type="line"/>
      <point x="935" y="700" type="line"/>
      <point x="703" y="700" type="line"/>
      <point x="703" y="396" type="line"/>
      <point x="678" y="396" type="line"/>
      <point x="506" y="700" type="line"/>
    </contour>
  </outline>
</glyph>
<glyph name="O.ss06" format="2">
  <advance width="1222"/>
  <note>
O
</note>
  <outline>
    <contour>
      <point x="44" y="904" type="line"/>
      <point x="1178" y="904" type="line"/>
      <point x="1178" y="-230" type="line"/>
      <point x="44" y="-230" type="line"/>
    </contour>
    <contour>
      <point x="611" y="527" type="curve" smooth="yes"/>
      <point x="681" y="527"/>
      <point x="692" y="478"/>
      <point x="692" y="352" type="curve" smooth="yes"/>
      <point x="692" y="224"/>
      <point x="681" y="175"/>
      <point x="611" y="175" type="curve" smooth="yes"/>
      <point x="541" y="175"/>
      <point x="530" y="224"/>
      <point x="530" y="352" type="curve" smooth="yes"/>
      <point x="530" y="478"/>
      <point x="541" y="527"/>
    </contour>
    <contour>
      <point x="294" y="352" type="curve" smooth="yes"/>
      <point x="294" y="92"/>
      <point x="384" y="-13"/>
      <point x="611" y="-13" type="curve" smooth="yes"/>
      <point x="838" y="-13"/>
      <point x="928" y="92"/>
      <point x="928" y="352" type="curve" smooth="yes"/>
      <point x="928" y="610"/>
      <point x="841" y="715"/>
      <point x="611" y="715" type="curve" smooth="yes"/>
      <point x="381" y="715"/>
      <point x="294" y="610"/>
    </contour>
  </outline>
</glyph>
<glyph name="P.ss06" format="2">
	<advance width="1222"/>
	<note>
		P
	</note>
	<outline>
		<contour>
			<point x="44" y="904" type="line"/>
			<point x="1178" y="904" type="line"/>
			<point x="1178" y="-230" type="line"/>
			<point x="44" y="-230" type="line"/>
		</contour>
		<contour>
			<point x="589" y="172" type="line"/>
			<point x="660" y="172" type="line" smooth="yes"/>
			<point x="820" y="172"/>
			<point x="925" y="228"/>
			<point x="925" y="439" type="curve" smooth="yes"/>
			<point x="925" y="650"/>
			<point x="820" y="700"/>
			<point x="660" y="700" type="curve" smooth="yes"/>
			<point x="357" y="700" type="line"/>
			<point x="357" y="0" type="line"/>
			<point x="589" y="0" type="line"/>
		</contour>
		<contour>
			<point x="635" y="355" type="curve" smooth="yes"/>
			<point x="589" y="355" type="line"/>
			<point x="589" y="517" type="line"/>
			<point x="635" y="517" type="line" smooth="yes"/>
			<point x="673" y="517"/>
			<point x="690" y="502"/>
			<point x="690" y="440" type="curve" smooth="yes"/>
			<point x="690" y="377"/>
			<point x="673" y="355"/>
		</contour>
	</outline>
</glyph>
<glyph name="Q.ss03" format="2">
	<advance width="1256"/>
	<note>
		Q
	</note>
	<outline>
		<contour>
			<point x="625" y="175" type="curve" smooth="yes"/>
			<point x="555" y="175"/>
			<point x="546" y="223"/>
			<point x="546" y="351" type="curve" smooth="yes"/>
			<point x="546" y="479"/>
			<point x="555" y="527"/>
			<point x="625" y="527" type="curve" smooth="yes"/>
			<point x="694" y="527"/>
			<point x="708" y="479"/>
			<point x="708" y="351" type="curve" smooth="yes"/>
			<point x="708" y="224"/>
			<point x="693" y="175"/>
		</contour>
		<contour>
			<point x="310" y="351" type="curve" smooth="yes"/>
			<point x="310" y="88"/>
			<point x="402" y="-13"/>
			<point x="623" y="-13" type="curve" smooth="yes"/>
			<point x="633" y="-13"/>
			<point x="643" y="-13"/>
			<point x="652" y="-12" type="curve"/>
			<point x="750" y="-158" type="line"/>
			<point x="913" y="-59" type="line"/>
			<point x="846" y="48" type="line"/>
			<point x="912" y="103"/>
			<point x="944" y="196"/>
			<point x="944" y="351" type="curve" smooth="yes"/>
			<point x="944" y="614"/>
			<point x="856" y="715"/>
			<point x="623" y="715" type="curve" smooth="yes"/>
			<point x="399" y="715"/>
			<point x="310" y="614"/>
		</contour>
		<component base="_sferiliumstroke" xOffset="-2"/>
	</outline>
</glyph>
<glyph name="Q.ss05" format="2">
  <advance width="1222"/>
  <note>
Q
</note>
  <outline>
    <contour>
      <point x="609" y="175" type="curve" smooth="yes"/>
      <point x="539" y="175"/>
      <point x="530" y="223"/>
      <point x="530" y="351" type="curve" smooth="yes"/>
      <point x="530" y="479"/>
      <point x="539" y="527"/>
      <point x="609" y="527" type="curve" smooth="yes"/>
      <point x="678" y="527"/>
      <point x="692" y="479"/>
      <point x="692" y="351" type="curve" smooth="yes"/>
      <point x="692" y="224"/>
      <point x="677" y="175"/>
    </contour>
    <contour>
      <point x="294" y="351" type="curve" smooth="yes"/>
      <point x="294" y="88"/>
      <point x="386" y="-13"/>
      <point x="607" y="-13" type="curve" smooth="yes"/>
      <point x="617" y="-13"/>
      <point x="627" y="-13"/>
      <point x="636" y="-12" type="curve"/>
      <point x="720" y="-128" type="line"/>
      <point x="883" y="-29" type="line"/>
      <point x="830" y="48" type="line"/>
      <point x="896" y="103"/>
      <point x="928" y="196"/>
      <point x="928" y="351" type="curve" smooth="yes"/>
      <point x="928" y="614"/>
      <point x="840" y="715"/>
      <point x="607" y="715" type="curve" smooth="yes"/>
      <point x="383" y="715"/>
      <point x="294" y="614"/>
    </contour>
    <component base="_quadriliumstroke" xOffset="4"/>
  </outline>
</glyph>
<glyph name="R.ss06" format="2">
	<advance width="1222"/>
	<note>
		R
	</note>
	<outline>
		<contour>
			<point x="44" y="904" type="line"/>
			<point x="1178" y="904" type="line"/>
			<point x="1178" y="-230" type="line"/>
			<point x="44" y="-230" type="line"/>
		</contour>
		<contour>
			<point x="683" y="448" type="curve" smooth="yes"/>
			<point x="683" y="401"/>
			<point x="667" y="376"/>
			<point x="634" y="376" type="curve" smooth="yes"/>
			<point x="577" y="376" type="line"/>
			<point x="577" y="517" type="line"/>
			<point x="628" y="517" type="line" smooth="yes"/>
			<point x="666" y="517"/>
			<point x="683" y="495"/>
		</contour>
		<contour>
			<point x="578" y="202" type="line"/>
			<point x="625" y="202" type="line"/>
			<point x="673" y="0" type="line"/>
			<point x="909" y="0" type="line"/>
			<point x="837" y="263" type="line"/>
			<point x="883" y="302"/>
			<point x="917" y="356"/>
			<point x="917" y="463" type="curve" smooth="yes"/>
			<point x="917" y="641"/>
			<point x="823" y="700"/>
			<point x="648" y="700" type="curve" smooth="yes"/>
			<point x="346" y="700" type="line"/>
			<point x="346" y="0" type="line"/>
			<point x="578" y="0" type="line"/>
		</contour>
	</outline>
</glyph>
<glyph name="S.ss06" format="2">
  <advance width="1222"/>
  <note>
S
</note>
  <outline>
    <contour>
      <point x="44" y="904" type="line"/>
      <point x="1178" y="904" type="line"/>
      <point x="1178" y="-230" type="line"/>
      <point x="44" y="-230" type="line"/>
    </contour>
    <contour>
      <point x="844" y="510" type="curve"/>
      <point x="860" y="690" type="line"/>
      <point x="860" y="690"/>
      <point x="710" y="715"/>
      <point x="599" y="715" type="curve" smooth="yes"/>
      <point x="439" y="715"/>
      <point x="340" y="653"/>
      <point x="340" y="480" type="curve" smooth="yes"/>
      <point x="340" y="362"/>
      <point x="387" y="308"/>
      <point x="484" y="282" type="curve" smooth="yes"/>
      <point x="597" y="252" type="line" smooth="yes"/>
      <point x="646" y="239"/>
      <point x="656" y="233"/>
      <point x="656" y="210" type="curve" smooth="yes"/>
      <point x="656" y="191"/>
      <point x="644" y="178"/>
      <point x="584" y="178" type="curve" smooth="yes"/>
      <point x="506" y="178"/>
      <point x="360" y="192"/>
      <point x="360" y="192" type="curve"/>
      <point x="340" y="15" type="line"/>
      <point x="340" y="15"/>
      <point x="472" y="-13"/>
      <point x="604" y="-13" type="curve" smooth="yes"/>
      <point x="786" y="-13"/>
      <point x="890" y="45"/>
      <point x="890" y="243" type="curve" smooth="yes"/>
      <point x="890" y="344"/>
      <point x="861" y="398"/>
      <point x="725" y="437" type="curve" smooth="yes"/>
      <point x="624" y="466" type="line" smooth="yes"/>
      <point x="579" y="479"/>
      <point x="572" y="483"/>
      <point x="572" y="498" type="curve" smooth="yes"/>
      <point x="572" y="521"/>
      <point x="582" y="525"/>
      <point x="629" y="525" type="curve" smooth="yes"/>
      <point x="721" y="525"/>
      <point x="844" y="510"/>
    </contour>
  </outline>
</glyph>
<glyph name="T.ss06" format="2">
	<advance width="1222"/>
	<note>
		T
	</note>
	<outline>
		<contour>
			<point x="44" y="904" type="line"/>
			<point x="1178" y="904" type="line"/>
			<point x="1178" y="-230" type="line"/>
			<point x="44" y="-230" type="line"/>
		</contour>
		<contour>
			<point x="345" y="700" type="line"/>
			<point x="345" y="510" type="line"/>
			<point x="495" y="510" type="line"/>
			<point x="495" y="0" type="line"/>
			<point x="727" y="0" type="line"/>
			<point x="727" y="510" type="line"/>
			<point x="877" y="510" type="line"/>
			<point x="877" y="700" type="line"/>
		</contour>
	</outline>
</glyph>
